<?xml version="1.0" standalone="no"?><!DOCTYPE svg PUBLIC "-//W3C//DTD SVG 1.1//EN" "http://www.w3.org/Graphics/SVG/1.1/DTD/svg11.dtd"><svg class="icon" width="64px" height="64.00px" viewBox="0 0 1024 1024" version="1.1" xmlns="http://www.w3.org/2000/svg"><path d="M1001.884528 304.009803l-209.831741 208.680576-7.226756 7.162803-1.343026-1.40698a30.825632 30.825632 0 0 1-34.854708-5.755823 30.314003 30.314003 0 0 1-5.755824-34.534941l185.017747-186.744493H637.28509v0.511629a237.459693 237.459693 0 0 0-68.366392 13.17444 233.814338 233.814338 0 0 0-156.686304 220.32013c0 3.453494 0.383722 6.779081 0.511629 10.168622H412.232394v135.709525a30.186096 30.186096 0 0 1-30.697725 27.116324 30.569818 30.569818 0 0 1-30.697725-30.505864l-0.063954-152.721182h0.575583c5.372102-154.767697 130.401378-279.093483 286.064424-284.337677v-0.767443h290.157455L741.465494 44.997749l1.343026-1.470933a30.186096 30.186096 0 0 1 40.610532-40.290764l1.343025-1.406979 7.226756 7.226756 209.831741 208.616622a60.755914 60.755914 0 0 1 0.063954 86.337352z m-139.418835 435.076298a20.401196 20.401196 0 1 1-0.19186-40.73844 20.401196 20.401196 0 0 1 0.19186 40.73844z m20.401197 142.424653h-245.5818a20.337243 20.337243 0 0 1 0-40.674486h204.715453v-61.011728a20.401196 20.401196 0 0 1 40.802393 0v101.686214zM197.348319 372.759916h-10.232575c-33.895405 0-61.39545 27.308184-61.39545 61.075682v468.076352c0 33.63959 27.500045 61.011728 61.39545 61.011729h695.751146a61.267543 61.267543 0 0 0 61.459403-61.011729V637.335933v-10.168621a30.697725 30.697725 0 0 1 61.331497 0V901.91195A122.407178 122.407178 0 0 1 882.86689 1023.99936H187.115744A122.407178 122.407178 0 0 1 64.324844 901.91195V433.835598c0-67.471041 54.936137-122.08741 122.7909-122.08741h10.232575c16.947702 0 30.697725 13.686069 30.697725 30.505864a30.569818 30.569818 0 0 1-30.697725 30.505864z" /></svg>