<svg id="图层_1" data-name="图层 1" xmlns="http://www.w3.org/2000/svg" viewBox="0 0 49.09 59.5"><title>基本信息</title><path d="M31.64,62C19.89,62,7.25,58.72,7.25,52.77c0-4.31,5.35-7.88,16.21-8.92.6-.15,1,.3,1.19.89S26.14,47,25.54,47c-10.41,1-14.42,3.27-14.42,5.8,0,3.42,7.43,5.95,20.67,5.95s20.68-2.53,20.68-5.95c0-2.53-4-4.76-14.58-5.8-.6,0,.74-1.78.89-2.23A1,1,0,0,1,40,43.85c11,1,16.36,4.61,16.36,8.92C56,58.72,43.39,62,31.64,62" transform="translate(-7.25 -2.5)"/><path d="M31.64,54.26l-1-1C29.86,52.48,11,34.77,11,23.47a20.88,20.88,0,0,1,20.67-21A20.92,20.92,0,0,1,52.32,23.62c0,11.3-18.89,29-19.64,29.75l-1,.89m0-48.64A17.74,17.74,0,0,0,14.09,23.47c0,7.74,11.9,20.82,17.55,26.33,5.8-5.51,17.55-18.59,17.55-26.33A17.74,17.74,0,0,0,31.64,5.62m0,25.73a8.5,8.5,0,0,1-8.48-8.62,8.61,8.61,0,0,1,8.48-8.63,8.51,8.51,0,0,1,8.48,8.63,8.5,8.5,0,0,1-8.48,8.62m0-14.13A5.51,5.51,0,1,0,37,22.73a5.37,5.37,0,0,0-5.36-5.51" transform="translate(-7.25 -2.5)"/></svg>