<?xml version="1.0" standalone="no"?><!DOCTYPE svg PUBLIC "-//W3C//DTD SVG 1.1//EN" "http://www.w3.org/Graphics/SVG/1.1/DTD/svg11.dtd"><svg class="icon" width="64px" height="64.00px" viewBox="0 0 1024 1024" version="1.1" xmlns="http://www.w3.org/2000/svg"><path d="M268.1 448.2c-6.1 0-11.5 4-13.4 9.8l-151 483.6c-2.8 9 3.9 18.2 13.4 18.2h192.7c7 0 12.9-5.1 13.9-12l65.7-456.5c0.5-3.8-0.5-7.6-2.8-10.6-7-9-13.7-17.9-20.1-26.7-2.6-3.6-6.8-5.7-11.3-5.7h-87.1zM922.3 941.6L771.2 458c-1.8-5.8-7.2-9.8-13.4-9.8H669c-4.5 0-8.7 2.1-11.3 5.7-5.9 8.1-12.1 16.3-18.5 24.7-2.3 3-3.3 6.8-2.8 10.6l66 458.6c1 6.9 6.9 12 13.9 12H909c9.4 0 16.1-9.2 13.3-18.2zM538.1 749.5h-50.3c-7.5 0-13.7 6-14 13.5L469 897.5c-0.3 7.9 6.1 14.5 14 14.5h59.8c7.9 0 14.3-6.6 14-14.5L552.1 763c-0.2-7.6-6.4-13.5-14-13.5zM512 610c-11.7 0-22.8-4.6-31-12.8-0.8 1.7-1.3 3.5-1.3 5.5l-3.1 86.8c-0.3 7.9 6.1 14.5 14 14.5h44.8c7.9 0 14.3-6.6 14-14.5l-3.1-86.8c-0.1-2.5-0.8-4.8-2-6.8-8.3 9-19.9 14.1-32.3 14.1zM678.5 359.8c1.5-3.1 2.9-6.1 4.3-9.2 0.7-1.5 1.3-3.1 2-4.6 2-4.6 3.8-9.2 5.4-13.8 1.1-3.1 2.2-6.2 3.2-9.2 2-6.2 3.7-12.4 5.1-18.7 0.7-3.1 1.4-6.3 2-9.5 0.6-3.2 1.1-6.3 1.5-9.5s0.8-6.4 1.1-9.7c0.3-3.2 0.5-6.5 0.7-9.8 0.1-3.3 0.2-6.6 0.2-9.9 0-106-86-192-192-192s-192 86-192 192c0 6.7 0.3 13.2 0.9 19.7 0.4 4.9 1.1 9.7 1.8 14.4 0.8 4.8 1.7 9.5 2.8 14.2 1.1 4.7 2.3 9.4 3.7 14 0.9 3.1 1.9 6.2 3 9.3s2.2 6.2 3.3 9.2c2.4 6.1 5 12.3 7.8 18.4 1.6 3.4 3.3 6.9 5 10.3 1.8 3.4 3.6 6.9 5.5 10.3l3.9 6.9c1.8 3.1 3.6 6.1 5.5 9.2 0.9 1.5 1.9 3.1 2.9 4.6 4.8 7.7 10 15.5 15.4 23.4 2.5 3.5 5 7.1 7.6 10.7l3.9 5.4c2.6 3.6 5.3 7.2 8.1 10.9s5.6 7.3 8.4 11.1c1.4 1.9 2.9 3.7 4.3 5.6 2.6 3.3 5.2 6.7 7.9 10.1l8.1 10.2c6.9 8.6 14 17.4 21.4 26.4 10.3 12.6 21 25.7 32.1 39.3 3.2 3.9 6.4 7.8 9.6 11.8 3.2 4 6.5 8 9.8 12.1 0.6 0.7 1.3 1.4 2 2 0.6 0.5 1.3 0.9 2 1.3 0.1 0 0.2 0.1 0.3 0.1 0.3 0.2 0.7 0.3 1 0.4 0.1 0 0.1 0.1 0.2 0.1 0.3 0.1 0.5 0.2 0.8 0.2 0.1 0 0.3 0.1 0.4 0.1 0.2 0 0.4 0.1 0.6 0.1 0.2 0 0.4 0.1 0.7 0.1H513.3c0.2 0 0.4-0.1 0.5-0.1 0.3 0 0.5-0.1 0.8-0.1 0.1 0 0.3-0.1 0.4-0.1 0.3-0.1 0.6-0.1 0.8-0.2 0 0 0.1 0 0.1-0.1 0.4-0.1 0.7-0.3 1.1-0.4l1.2-0.6 0.1-0.1c0.3-0.2 0.7-0.4 1-0.7 0.4-0.3 0.7-0.6 1-0.9 0.3-0.3 0.6-0.7 0.9-1 2.5-3.1 4.9-6.1 7.3-9.1 2.4-3 4.8-6 7.2-8.9 1.6-2 3.2-3.9 4.8-5.9 4.8-5.8 9.4-11.6 14.1-17.2 4.6-5.6 9.2-11.2 13.6-16.6 4.5-5.5 8.9-10.8 13.2-16.2 2.9-3.5 5.7-7 8.5-10.5 9.8-12.2 19.1-23.9 27.9-35.4 2.5-3.3 5-6.5 7.4-9.8 18.1-24.3 33.7-47.4 46.2-70.4 2.6-4.5 4.9-9.1 7.1-13.7zM512 338.4c-45.5 0-82.4-36.9-82.4-82.4s36.9-82.4 82.4-82.4 82.4 36.9 82.4 82.4-36.9 82.4-82.4 82.4z" /></svg>