<svg id="图层_1" data-name="图层 1" xmlns="http://www.w3.org/2000/svg" viewBox="0 0 55.24 55"><title>埋设日期查询</title><path d="M47.47,55.56c-.29,0-.58,0-.88,0a10.3,10.3,0,1,1,11.12-9.41h0a10.3,10.3,0,0,1-10.24,9.45Zm0-17.2a6.89,6.89,0,0,0-5.27,11.35,6.9,6.9,0,0,0,12.15-3.88h0A6.91,6.91,0,0,0,48,38.38,5.72,5.72,0,0,0,47.45,38.36Z" transform="translate(-4.94 -5)"/><path d="M58.48,60a1.7,1.7,0,0,1-1.3-.6l-5.47-6.48a1.7,1.7,0,1,1,2.59-2.2l5.48,6.48a1.7,1.7,0,0,1-1.3,2.8Z" transform="translate(-4.94 -5)"/><path d="M32.63,56H12.23a7.3,7.3,0,0,1-7.29-7.29V12.29A7.3,7.3,0,0,1,12.23,5H42.72A7.3,7.3,0,0,1,50,12.29V24.81H9V48.75A3.25,3.25,0,0,0,12.23,52h20.4ZM9,20.76H46V12.29a3.25,3.25,0,0,0-3.24-3.24H12.23A3.25,3.25,0,0,0,9,12.29Z" transform="translate(-4.94 -5)"/><rect x="7.55" y="36.45" width="12.54" height="2.34"/><rect x="7.55" y="26.72" width="22.28" height="2.34"/><rect x="21.86" y="9.51" width="17.48" height="2.34"/><circle cx="12.11" cy="10.19" r="2.42"/></svg>