<?xml version="1.0" standalone="no"?><!DOCTYPE svg PUBLIC "-//W3C//DTD SVG 1.1//EN" "http://www.w3.org/Graphics/SVG/1.1/DTD/svg11.dtd"><svg class="icon" width="64px" height="64.00px" viewBox="0 0 1024 1024" version="1.1" xmlns="http://www.w3.org/2000/svg"><path d="M279.75056093750004 104.7574390625h466.6528884375v116.12386406249999h56.925631875V104.34921406250004c0.2246371875-32.176745625-25.6257703125-58.4707265625-57.800235-58.791148125H279.284181875c-32.1106078125 0-58.6748390625 26.6805403125-58.6748390625 58.791148125v116.47393406249999h59.141218124999995V104.7574390625zM961.4818090625 296.5966578125a57.50718 57.50718 0 0 0-41.097245625-16.5729965625h-0.11631v0.058155H104.54249374999995c-32.1106078125 0-59.141218124999995 25.2802621875-59.141218124999995 57.39087v291.33079125c0 32.226917812500005 27.030609375 58.6155440625 59.141218124999995 58.6155440625H220.6663578125v232.7129671875c0.19156874999999998 32.318141250000004 26.3578378125 58.458183749999996 58.6748390625 58.6178240625h466.1283534375c32.226917812500005 0 57.799095-26.4467803125 57.799095-58.6178240625V687.4201615625h116.999608125c32.226917812500005 0 58.323629062500004-26.389766249999997 58.323629062500004-58.615543125V337.47268625000004a57.498058125 57.498058125 0 0 0-17.1100734375-40.876028437500004z m-215.0783596875 622.9526418749999v-0.058155H279.8087159375V512.153939375h466.5947334375v407.33720531250003h0.060434999999999996l-0.060434999999999996 0.058155z m115.65748500000001-465.4863703125c-32.1619209375 0-58.2369665625-26.0739046875-58.2369665625-58.2369665625 0-32.163061875 26.075045625-58.2369665625 58.2369665625-58.2369665625 32.164201874999996 0 58.2369665625 26.0739046875 58.2369665625 58.2369665625 0 32.163061875-26.0727646875 58.2369665625-58.2369665625 58.2369665625z"  /><path d="M498.2566371875 751.949256875l1.8073612499999998 1.8940246875000002 1.8073621875-1.8940246875000002c0.19955062499999998-0.2086734375 20.226490312499998-21.2595946875 39.9843215625-47.4190209375 26.74325625-35.4083315625 40.303602187500005-62.8859353125 40.303602187500005-81.67223812499999 0-45.2672915625-36.827994375-82.0964259375-82.0952859375-82.0964259375-45.2684315625 0-82.0975659375 36.829134375-82.0975659375 82.0964259375 0 18.786301875 13.561486875 46.2639065625 40.304743125 81.67223812499999 19.7578303125 26.1594271875 39.78363 47.2103484375 39.9854615625 47.4190209375z m1.7799946875-190.278159375c16.350639375 0 31.719488437500004 6.365107500000001 43.2774825 17.9185396875 11.559135 11.5568540625 17.919680624999998 26.9222821875 17.9071378125 43.267220625 0 30.4799915625-50.819370937500004 88.291629375-61.183480312499995 99.761821875-10.365249375000001-11.4758934375-61.159533749999994-69.2829703125-61.159533749999994-99.761821875 0.00114-33.7366640625 27.435413437500003-61.185760312499994 61.158393749999995-61.185760312499994z"  /><path d="M584.5310909375 584.093789375c2.2326909374999997 4.8291346875 4.084524375 10.0448278125 5.5041871875 15.496560937500002l0.48690375 1.868938125h45.594555c-15.03702375 7.783629375-29.112781875 18.081601875-43.8966609375 32.068417499999995l-0.5564615625 0.5268140625-0.1653421875 0.7446103125000001c-2.5257459375 11.3344978125-8.429034375 24.986067187499998-17.551366875 40.578413437500004l4.0913653125 2.8416056249999997c19.9220325-24.366888749999998 41.03110875-42.9844275 62.806115625-55.3976409375V745.7540534375a295.313829375 295.313829375 0 0 0-27.733029374999997-1.2737053125c-13.262730000000001 0-27.18340875 0.7902215625-45.1338778125 2.5645153124999998a46.6892353125 46.6892353125 0 0 1-4.5668671875 0.2155153125c-10.28200875 0-21.48993375-3.0172115625-32.32726406250001-5.9374978125l-4.147239375-1.112925-1.0239825 1.2121303125c-11.89894125 14.1076865625-21.9152625 24.86633625-25.86523125 29.0420840625a899.7903290625 899.7903290625 0 0 1-5.924955-6.37879125l-1.7343834375-1.8814809375-1.8404296875 1.7788546875c-5.3787553125 5.1940275-10.3470046875 11.157751875-14.7667753125 17.7224109375-11.871574687499999 17.640309375-14.4611765625 37.270426875-16.965256875 56.252859375-0.9190753125 6.96946125-1.8677971875 14.1544378125-3.264654375 21.218543437500003h-72.39824718749999v-54.535580625a9.9422015625 9.9422015625 0 0 0 3.0035278125 0.24630375000000002c17.845561875-0.931618125 27.989595-6.8964825 39.475751249999995-16.880875312500002 13.6025371875-11.7997359375 26.4969534375-21.536685 39.350319375000005-29.713715625a10.304814375 10.304814375 0 0 0 7.124540625000001 2.824501875c0.6989990625 0 1.4185228125-0.067276875 2.1517303125000002-0.2041125 3.9465487500000003-0.7605740624999999 7.6171471875000005-1.1186259375 10.3755121875-1.344403125l4.9978978125-0.409365-3.337633125-3.7435771874999997c-5.6284790625-6.3115134375-12.1429640625-13.9480453125-18.843316875-22.0828846875l-1.2531806250000002-1.5200081250000002-1.7708728125 0.8632003125c-2.3045287500000002 1.1220468749999999-4.101628125 2.0639278125-5.474538750000001 2.8701140625-8.1257175 4.6820371875-16.519402499999998 12.025514062500001-25.4045540625 19.798880625-15.595766250000002 13.6447275-31.722909375 27.7535540625-47.6562028125 28.612194374999998a10.739265 10.739265 0 0 0-2.71503375 0.49488656249999996v-3.6557746875h-0.0239465625V601.4592884374999h26.4878315625l0.48006281250000005-1.882621875a90.756939375 90.756939375 0 0 1 5.479100625-15.486298125l1.6271953125-3.541745625h-44.516979375v-0.0193846875h-10.4701565625V880.663079375h10.4701565625v-0.5997928124999999h289.046788125V580.5474828125h-78.86256l1.6374590625 3.5463065625z m56.2870678125 275.0576915625h-163.871289375c0.9510028125-5.0070196875 1.8016603125-10.1337703125 2.6295121874999996-15.1191253125 5.905569375-35.5691128125 11.48501625-69.17122218749999 50.8501584375-79.74856593749999 7.813276875 1.4493103125 16.9276275 2.9830021875 26.898336562500003 3.3273712499999997 2.6032856250000003 0.0786796875 4.921498124999999 0.11859 7.0891921875 0.11859 7.428999375 0 13.8682246875-0.47094 20.2641196875-1.4778178124999999 9.333285937500001-1.4550121875000002 18.2469440625-2.163133125 27.2529665625-2.163133125 8.911378125 0 17.900295937499997 0.6579478125 28.8881446875 2.1277837500000003v92.9348971875z"  /><path d="M526.4320990625 614.8999034375c0-14.5558209375-11.840787187499998-26.3954671875-26.3943271875-26.3954671875-14.5398571875 0-26.369240625 11.840787187499998-26.369240625 26.3954671875 0 14.540997187499999 11.8293834375 26.370380625 26.369240625 26.3703815625 14.55354 0 26.3943271875-11.8293834375 26.3943271875-26.3703815625z m-26.3954671875 5.484802500000001c-3.0103696875 0-5.458575-2.4596090625-5.458575-5.484802500000001 0-3.0229125 2.4482062499999997-5.4836615625 5.458575-5.4836615625a5.4916434375 5.4916434375 0 0 1 5.484802500000001 5.4836615625 5.4916434375 5.4916434375 0 0 1-5.484802500000001 5.484802500000001z"  /></svg>