<?xml version="1.0" standalone="no"?><!DOCTYPE svg PUBLIC "-//W3C//DTD SVG 1.1//EN" "http://www.w3.org/Graphics/SVG/1.1/DTD/svg11.dtd"><svg class="icon" width="64px" height="64.00px" viewBox="0 0 1024 1024" version="1.1" xmlns="http://www.w3.org/2000/svg"><path d="M846.409814 162.172543l-206.861348 0 0 0.092098 0.505513 0 0 204.26215L317.678758 366.526791l0-204.354248-48.942689 0-107.174951 105.778138 0 579.069535c0 8.853645 7.175423 16.029068 16.029068 16.029068l668.819628 0c8.853645 0 16.028045-7.175423 16.028045-16.029068l0-668.820652C862.437859 169.346943 855.260389 162.172543 846.409814 162.172543zM750.570026 824.685535l-477.142098 0 0-57.020668 477.142098 0L750.570026 824.685535zM750.570026 702.689017l-477.142098 0 0-63.87375 477.142098 0L750.570026 702.689017zM750.570026 573.839417l-477.142098 0 0-63.504336 477.142098 0L750.570026 573.839417zM462.229968 160.951739l-85.002976 0 0 137.926326 85.002976 0L462.229968 160.951739z" /></svg>