<?xml version="1.0" standalone="no"?><!DOCTYPE svg PUBLIC "-//W3C//DTD SVG 1.1//EN" "http://www.w3.org/Graphics/SVG/1.1/DTD/svg11.dtd"><svg class="icon" width="64px" height="55.45px" viewBox="0 0 1182 1024" version="1.1" xmlns="http://www.w3.org/2000/svg"><path d="M1147.031683 562.442325l0 0.076899-534.758536 219.163334c-0.076899 0.076899-0.153799 0.076899-0.230698 0.076899l-0.230698 0.076899 0 0c-6.61335 2.69148-13.688096 4.229468-21.147339 4.229468-7.536143 0-14.657029-1.537988-21.224239-4.229468l0 0L569.209474 781.759459c-0.076899 0-0.153799 0-0.230698-0.076899L34.26638 562.519225 34.26638 562.442325c-20.024608-8.228237-34.22024-27.760689-34.22024-50.599815 0-30.29837 24.807751-54.829283 55.336819-54.829283 7.566902 0 14.687788 1.537988 21.224239 4.152568L76.607198 461.088896l0.230698 0.153799C76.899416 461.319594 77.022455 461.319594 77.053214 461.319594l513.611197 210.5506L1104.275608 461.319594c0 0 0.153799 0 0.307598-0.076899l0.153799-0.153799 0 0.076899c6.459551-2.61458 13.534297-4.152568 21.07044-4.152568 30.605967 0 55.367579 24.530914 55.367579 54.829283C1181.175023 534.681636 1167.025531 554.214088 1147.031683 562.442325zM1147.031683 324.823131 1147.031683 324.823131 612.273147 544.063365c-0.076899 0-0.153799 0.076899-0.230698 0.076899l-0.230698 0.076899 0 0c-6.61335 2.61458-13.688096 4.229468-21.147339 4.229468-7.536143 0-14.657029-1.614888-21.224239-4.229468l0 0L569.209474 544.140265c-0.076899 0-0.153799-0.076899-0.230698-0.076899L34.26638 324.823131l0 0c-20.024608-8.228237-34.22024-27.760689-34.22024-50.599815 0-22.839126 14.195632-42.448477 34.22024-50.630575l0 0 534.712396-219.163334c0.076899-0.076899 0.153799-0.153799 0.230698-0.153799l0.230698-0.03076 0 0C576.007382 1.537988 583.128268 0 590.664411 0c7.459243 0 14.53399 1.537988 21.147339 4.229468l0 0 0.230698 0.03076c0.076899 0 0.153799 0.076899 0.230698 0.076899l534.758536 219.240234 0 0c19.993848 8.182098 34.143341 27.791449 34.143341 50.630575C1181.175023 297.062442 1167.025531 316.594894 1147.031683 324.823131zM55.367579 694.632421c7.566902 0 14.687788 1.537988 21.224239 4.229468l0 0 0.230698 0.076899c0.076899 0 0.184559 0 0.230698 0.076899l513.611197 210.4737L1104.275608 699.015687c0-0.076899 0.153799-0.076899 0.307598-0.076899l0.153799-0.076899 0 0c6.459551-2.69148 13.534297-4.229468 21.07044-4.229468 30.605967 0 55.367579 24.530914 55.367579 54.829283 0 22.839126-14.149492 42.448477-34.143341 50.676715l0 0-534.758536 219.163334c-0.076899 0-0.153799 0.076899-0.230698 0.153799L611.81175 1019.455552l0 0c-6.61335 2.768379-13.688096 4.229468-21.147339 4.229468-7.536143 0-14.657029-1.461089-21.224239-4.229468l0 0L569.209474 1019.455552c-0.076899-0.076899-0.153799-0.153799-0.230698-0.153799L34.26638 800.138419l0 0c-20.024608-8.228237-34.22024-27.837588-34.22024-50.676715C0.03076 719.163334 24.838511 694.632421 55.367579 694.632421z" /></svg>