<?xml version="1.0" standalone="no"?><!DOCTYPE svg PUBLIC "-//W3C//DTD SVG 1.1//EN" "http://www.w3.org/Graphics/SVG/1.1/DTD/svg11.dtd"><svg class="icon" width="64px" height="64.00px" viewBox="0 0 1024 1024" version="1.1" xmlns="http://www.w3.org/2000/svg"><path d="M670.773109 733.0118c21.138228-46.060885 45.560093-73.672426 64.495234-90.502441 10.335711-9.183189 21.136228-16.799028 32.523503-21.678004-5.967523-8.126627-10.591604-15.332637-15.1807-22.225776-8.417507-12.635756-17.342803-27.088758-21.678004-34.135834-28.718082 15.71048-55.900801 48.160014-77.501837 76.953064-12.543794 16.743052-23.840106 34.684606-34.685605 53.658732l52.027409 37.931259zM450.199647 803.473558c5.963525 14.608937 9.213177 29.292843 13.549377 40.623141 1.632323 7.057071 3.245653 13.531384 5.419751 19.539891 19.505905-6.008506 38.96483-12.021011 57.995932-20.115652 32.466526-13.645337 70.991539-33.009301 95.37342-58.48173l-44.976335-48.233983c-8.122629 8.129626-17.849592 14.694902-30.349405 22.768551-21.098244 13.606353-51.481635 30.349405-97.01274 43.899782zM373.785359 204.070311c0-52.027409 43.356007-95.385415 95.384415-95.385415 53.659731 0 94.84364 43.359006 94.84364 95.385415 0 53.647736-41.18191 95.384415-94.84364 95.384415-52.028408 0-95.384415-41.737679-95.384415-95.384415zM268.114213 204.070311c0 20.052678 2.704877 39.557584 8.670402 58.525712l-2.173098 0c16.79403 39.020806 35.780151 79.917834 52.028408 111.102892l27.095755 52.028408c47.472299 91.163167 105.678144 191.311606 114.348545 204.319208 0.542775 0.542775 0.542775 0.542775 0.542775 1.085549 0 0.546773 0 1.077553 0.541775 1.077553 32.512507-54.731287 60.575861-104.126787 81.836038-143.608403l34.14383-63.42268 26.555979-52.027409c15.762459-30.858194 34.685605-70.984541 51.486633-110.556119l-1.633322 0c5.967523-18.968128 8.671401-38.473034 8.671401-58.525712 0-110.565115-90.507439-200.524782-201.062559-200.524782-111.094896 0.001-201.054562 89.960666-201.054562 200.525782zM229.623186 800.209913c15.1817 11.392272 31.299011 21.346141 48.233983 30.3604 30.226456 15.961376 68.829436 34.111844 112.728218 40.700109 1.632323-13.064578 2.472974-29.944573 4.335201-42.319437l3.251651-21.683002c-11.925051-2.174098-25.602375-5.612671-40.099359-10.846499-24.523823-8.847328-55.821834-23.840106-90.507439-48.228985-9.213177 13.544379-18.634267 25.704333-26.014204 35.764158l-11.929049 16.252255zM17.185348 949.774843c0 41.160918 33.596058 74.226196 74.247187 74.226196l841.112938 0c41.183909 0 74.238191-33.065278 74.238191-74.226196l0-612.924636c0-41.194904-33.054282-74.255184-74.238191-74.255184l-204.320207 0-35.774154 100.269388 202.152107 0c9.213177 0 15.722475 5.950531 15.722475 15.167705l0 133.317673c-28.729077-0.53078-73.164637 2.173098-116.521644 23.308327l5.414753 14.637925 17.341803 44.971337c25.477427-8.123629 47.681212-14.170119 65.03501-16.793031l28.729077-4.3362 0 338.713434c0 9.247162-6.509299 15.147714-15.722475 15.147714l-761.445 0c-9.213177 0-15.71148-5.900551-15.71148-15.147714l0-207.015089c4.325205 4.3362 9.320132 9.078233 15.170704 14.086154 9.330128 7.99968 23.309327 21.136228 41.183909 36.317928 10.301725-9.222173 19.956718-21.245183 28.186303-29.808629 4.776018-4.983932 9.213177-9.75995 13.006602-14.638925-42.815232-35.75816-86.172239-86.171239-97.547518-100.262391l0-232.495514c0-8.670402 6.498303-15.167705 15.71148-15.167705l109.471569 0-33.054282-100.269388-118.142971 0c-40.653129 0-74.247187 33.06028-74.247187 74.255184l0 612.923637z" /></svg>