<?xml version="1.0" standalone="no"?><!DOCTYPE svg PUBLIC "-//W3C//DTD SVG 1.1//EN" "http://www.w3.org/Graphics/SVG/1.1/DTD/svg11.dtd"><svg class="icon" width="64px" height="64.00px" viewBox="0 0 1024 1024" version="1.1" xmlns="http://www.w3.org/2000/svg"><path d="M512 0C229.227055 0 0 229.227055 0 512s229.227055 512 512 512 512-229.227055 512-512S794.772945 0 512 0zM698.181818 148.945455l55.854545 0 0 174.173091-55.854545-52.652218L698.181818 148.945455zM810.970764 759.714909c-29.239855 11.115055-208.607418 90.754327-236.7488 90.754327-0.549236 0-1.042618-0.027927-1.480145-0.093091-21.969455-3.118545-195.127855-55.109818-220.830255-55.109818-0.633018 0-1.182255 0.037236-1.629091 0.1024-18.776436 2.736873-58.414545 22.239418-99.244218 37.766982-2.001455 0.763345-4.021527 1.1264-6.032291 1.1264-39.023709 0-78.159127-136.704-50.753164-150.164945 3.760873-1.852509 7.586909-3.593309 11.403636-5.3248 24.911127-11.245382 50.148073-21.792582 75.422255-32.190836 9.262545-3.816727 18.525091-7.624145 27.815564-11.394327 8.685382-3.528145 17.389382-7.019055 26.121309-10.435491 15.304145-5.985745 30.701382-11.6736 46.191709-17.138036 15.369309-5.417891 30.757236-11.217455 46.927127-13.758836 0.381673-0.055855 0.763345-0.111709 1.1264-0.158255 0.027927 0 0.065164-0.009309 0.093091-0.009309 0.335127-0.046545 0.642327-0.083782 0.949527-0.111709 0.1024-0.009309 0.195491-0.018618 0.3072-0.027927 0.242036-0.018618 0.474764-0.046545 0.707491-0.055855 0.093091-0.009309 0.186182 1.163636 0.279273 1.154327C431.876655 594.627491 432.174545 595.781818 432.444509 595.781818c0.167564 0 0.335127 0 0.512 0 31.008582 0 186.786909 50.036364 224.349091 60.3136 34.527418 9.458036 18.385455 55.677673-18.068945 55.677673-3.369891 0-6.925964-0.698182-10.621673-1.563927-43.650327-10.212073-112.044218-24.278109-142.354618-30.785164-2.290036-0.493382-4.496291-0.800582-6.618764-0.800582-25.935127 0-38.278982 34.6112-11.552582 46.238255 19.502545 8.471273 119.938327 36.1472 153.302109 36.1472 12.474182 0 25.488291-6.925964 37.003636-11.115055 14.503564-5.278255 28.914036-10.807855 43.287273-16.411927 28.811636-11.217455 57.474327-22.8352 86.379055-33.819927 6.441891-2.448291 12.353164-3.537455 17.659345-3.537455C841.309091 696.1152 849.798982 744.941382 810.970764 759.714909zM856.436364 496.249018 754.036364 414.72l0 251.038255c-9.309091 3.500218-20.638255 7.251782-30.692073 11.133673-0.158255-12.930327-4.784873-25.488291-11.738764-36.1472-9.346327-14.345309-24.129164-24.492218-41.909527-29.360873-9.309091-2.550691-27.936582-8.192-49.235782-14.717673-30.692073-9.411491-69.0176-21.131636-102.558255-30.533818-55.947636-15.676509-73.895564-17.836218-84.8896-17.836218-0.484073 0-0.977455 0-1.4336 0.009309-9.085673 0.176873-22.602473 2.113164-59.578182 14.885236-20.368291 7.037673-47.560145 16.635345-77.423709 28.541673C283.834182 596.005236 279.272727 600.408436 260.654545 604.765091L260.654545 429.689018l-83.781818 66.56 0-74.603055 324.356655-262.637382L856.436364 421.655273 856.436364 496.249018z" /></svg>