<svg id="图层_1" data-name="图层 1" xmlns="http://www.w3.org/2000/svg" viewBox="0 0 59.42 51.33"><defs><style>.cls-1{fill:#231f20;}</style></defs><title>管线统计</title><path class="cls-1" d="M54.86,46.71H23.72a2,2,0,0,1,0-4H54.86c1.33,0,2.44-1.56,2.44-3.4s-1.11-3.4-2.44-3.4a2,2,0,0,1,0-4c3.56,0,6.44,3.32,6.44,7.4S58.42,46.71,54.86,46.71Z" transform="translate(-1.88 -6.17)"/><path class="cls-1" d="M23.79,35.91H3.88a2,2,0,1,1,0-4H23.79a2,2,0,1,1,0,4Z" transform="translate(-1.88 -6.17)"/><path class="cls-1" d="M46.31,57.5H22.25c-3.52,0-6.37-3.32-6.37-7.4s2.85-7.39,6.37-7.39H46.31a2,2,0,0,1,0,4H22.25c-1.27,0-2.37,1.58-2.37,3.39s1.1,3.4,2.37,3.4H46.31a2,2,0,0,1,0,4Z" transform="translate(-1.88 -6.17)"/><rect class="cls-1" x="30.47" y="14.43" width="2" height="6.38"/><rect class="cls-1" x="36.47" y="7.58" width="2" height="13.23"/><rect class="cls-1" x="42.46" y="10.69" width="2" height="10.12"/><path class="cls-1" d="M39.35,35.63a14.46,14.46,0,0,1-3.83-.51A14.73,14.73,0,0,1,43.18,6.68,14.73,14.73,0,0,1,53.57,24.73h0A14.76,14.76,0,0,1,39.35,35.63Zm0-26.46A11.73,11.73,0,1,0,50.68,24,11.76,11.76,0,0,0,42.4,9.57,11.89,11.89,0,0,0,39.35,9.17Z" transform="translate(-1.88 -6.17)"/></svg>