<svg id="图层_1" data-name="图层 1" xmlns="http://www.w3.org/2000/svg" viewBox="0 0 57.39 57.28"><defs><style>.cls-1{fill:#231f20;}</style></defs><title>系统管理</title><path d="M9.63,30A2.08,2.08,0,0,1,9,30a2,2,0,0,1-1.3-2.51,25.79,25.79,0,0,1,23.67-18,2,2,0,0,1,2.06,1.94,2,2,0,0,1-1.93,2.06,21.79,21.79,0,0,0-20,15.2A2,2,0,0,1,9.63,30Z" transform="translate(-3.22 -3.63)"/><path d="M32.25,60.91A25.69,25.69,0,0,1,8.81,45.76a2,2,0,0,1,3.65-1.64,21.74,21.74,0,0,0,30.43,10,2,2,0,0,1,2,3.5A25.85,25.85,0,0,1,32.25,60.91Z" transform="translate(-3.22 -3.63)"/><path d="M54.92,45.2a1.82,1.82,0,0,1-.68-.13,2,2,0,0,1-1.19-2.56c.11-.33.23-.65.33-1a21.72,21.72,0,0,0-6.64-23.1,2,2,0,1,1,2.59-3A25.71,25.71,0,0,1,57.2,42.73c-.13.39-.26.77-.4,1.15A2,2,0,0,1,54.92,45.2Z" transform="translate(-3.22 -3.63)"/><circle class="cls-1" cx="29.36" cy="7.22" r="7.22"/><circle class="cls-1" cx="7.22" cy="39.44" r="7.22"/><circle class="cls-1" cx="50.17" cy="40.86" r="7.22"/></svg>