<?xml version="1.0" standalone="no"?><!DOCTYPE svg PUBLIC "-//W3C//DTD SVG 1.1//EN" "http://www.w3.org/Graphics/SVG/1.1/DTD/svg11.dtd"><svg class="icon" width="64px" height="64.00px" viewBox="0 0 1024 1024" version="1.1" xmlns="http://www.w3.org/2000/svg"><path d="M128.563556 811.122667l225.330666-0.679111V396.412444L129.226667 610.465778l-0.663111 200.656889z m578.379555-409.275556v409.533333h192.572445V433.942222L777.670222 332.221333l-70.727111 69.625778zM418.084444 811.380444h224.666667V466.037333l-113.013333 99.682667-111.653334-99.682667v345.343111z m-290.157333 59.525334v88.315555h771.701333v-88.315555H127.927111z m0.671111-341.120889l223.174222-211.729778 145.711112 145.271111 31.872 31.872 248.633777-242.536889 67.272 61.025778 53.455111-248.909333-242.541333 77.376889 56.287111 51.061333L530.085333 371.12 351.997333 193.570667l-62.353777 62.543111 0.008 0.008-161.121778 161.742222 0.068444 111.920889z" /></svg>