<?xml version="1.0" standalone="no"?><!DOCTYPE svg PUBLIC "-//W3C//DTD SVG 1.1//EN" "http://www.w3.org/Graphics/SVG/1.1/DTD/svg11.dtd"><svg class="icon" width="64px" height="60.57px" viewBox="0 0 1082 1024" version="1.1" xmlns="http://www.w3.org/2000/svg"><path d="M 1016.45 188.588 H 873.128 a 65.0603 65.0603 0 0 0 -66.0032 63.1745 v 532.74 a 65.0603 65.0603 0 0 0 66.0032 63.1745 h 143.321 a 65.0603 65.0603 0 0 0 66.0032 -63.1745 V 255.534 a 65.0603 65.0603 0 0 0 -66.0032 -66.9461 Z m 13.2006 518.597 a 65.0603 65.0603 0 0 1 -66.0032 63.1745 h -36.7732 a 65.0603 65.0603 0 0 1 -66.0032 -63.1745 V 329.081 a 65.0603 65.0603 0 0 1 66.0032 -63.1745 h 36.7732 a 65.0603 65.0603 0 0 1 66.0032 63.1745 Z M 471.451 848.62 h 141.435 a 65.0603 65.0603 0 0 0 66.0032 -63.1745 V 63.182 A 65.0603 65.0603 0 0 0 612.887 0.007543 H 471.451 a 65.0603 65.0603 0 0 0 -66.0032 63.1745 V 782.617 A 65.0603 65.0603 0 0 0 471.451 848.62 Z m -14.1435 -712.835 a 65.0603 65.0603 0 0 1 66.0032 -63.1745 h 36.7732 a 65.0603 65.0603 0 0 1 66.0032 63.1745 v 574.228 a 65.0603 65.0603 0 0 1 -66.0032 63.1745 h -36.7732 a 65.0603 65.0603 0 0 1 -66.0032 -63.1745 Z M 69.7748 848.62 h 143.321 A 65.0603 65.0603 0 0 0 282.871 782.617 v -282.871 a 65.0603 65.0603 0 0 0 -66.0032 -63.1745 H 69.7748 a 65.0603 65.0603 0 0 0 -66.0032 63.1745 v 282.871 a 65.0603 65.0603 0 0 0 66.0032 66.0032 Z M 56.5742 577.064 a 65.0603 65.0603 0 0 1 66.0032 -63.1745 h 36.7732 a 65.0603 65.0603 0 0 1 66.0032 63.1745 v 132.949 a 65.0603 65.0603 0 0 1 -66.0032 63.1745 H 122.577 a 65.0603 65.0603 0 0 1 -66.0032 -63.1745 Z M 0 928.767 h 1078.68 v 95.2332 H 0 Z"  /></svg>