<?xml version="1.0" standalone="no"?><!DOCTYPE svg PUBLIC "-//W3C//DTD SVG 1.1//EN" "http://www.w3.org/Graphics/SVG/1.1/DTD/svg11.dtd"><svg class="icon" width="64px" height="62.77px" viewBox="0 0 1044 1024" version="1.1" xmlns="http://www.w3.org/2000/svg"><path d="M664.776236 551.275257c62.195393-83.278382 120.205278-191.295597 123.371757-308.239403C795.099852-13.748274 510.024679 0.132416 510.024679 0.132416s-271.165697 13.877811-271.165697 249.843783c0 116.468833 66.090162 231.124138 132.99785 317.502791l-209.488455-52.039633L0 900.98689l353.701397 115.806752 318.202294-109.329864 372.559215 116.535042-153.263312-447.573089z m-264.521849 51.363158a1046.780193 1046.780193 0 0 0 109.770292 112.31499 969.328131 969.328131 0 0 0 130.804345-132.894221l15.527258 299.548859-286.252527 98.301883z m124.482902-438.681041a86.816202 86.816202 0 1 1-86.983162 86.813324 86.899682 86.899682 0 0 1 86.983162-86.813324zM179.784009 550.152596l191.220753 47.574899-30.648633 383.601589-300.694548-98.4343zM685.916798 880.897024l-15.527259-299.537344 198.932567 22.320795 128.331613 374.729691z" /></svg>