<?xml version="1.0" standalone="no"?><!DOCTYPE svg PUBLIC "-//W3C//DTD SVG 1.1//EN" "http://www.w3.org/Graphics/SVG/1.1/DTD/svg11.dtd"><svg class="icon" width="64px" height="64.00px" viewBox="0 0 1024 1024" version="1.1" xmlns="http://www.w3.org/2000/svg"><path d="M859.023765 742.627146c55.339714-66.779118 88.607034-152.514443 88.607034-246.017128 0-213.083077-172.73926-385.816256-385.81504-385.816256-89.923083 0-172.6602 30.762936-238.260713 82.336951a1488.628339 1488.628339 0 0 0-17.815306-13.03642C244.719853 136.162359 161.852591 83.791659 113.601536 83.791659c-11.88579 0-21.168675 3.257281-27.594445 9.680619-30.640088 30.651035 17.561097 118.302049 63.394125 186.432489 15.925159 23.674276 33.933858 48.552699 53.732967 74.298352-17.507579 44.060863-27.137113 92.108793-27.137113 142.406899 0 213.076996 172.736828 385.816256 385.817473 385.816256 53.833921 0 105.088047-11.030724 151.637482-30.949031 59.954398 42.448035 137.215684 89.868349 183.138719 89.868348 11.889439 0 21.177189-3.259713 27.604176-9.687916 30.642521-30.641305-17.562313-118.291102-63.39899-186.421542-0.581397-0.862364-1.187119-1.741757-1.772165-2.608987z m23.396957-146.374505s11.761727 54.31558-32.604431 120.434242c0 0-1.520389 2.345047-4.384801 6.26765-33.295295-47.246381-74.046576-98.606326-120.234767-151.684918a395.974885 395.974885 0 0 0 14.135966-7.643298c0.001216 0 15.402145-19.884251 143.088033 32.626324z m-491.783696-391.27506s32.603214 14.49721 38.047421 39.853644c0 0 17.899231 16.29735 76.417167-23.551428 0 0 62.140109 6.340629 17.771518 38.042556-44.37832 31.701928-54.336258 37.126675-1.814735 52.531253 0 0 64.303926 19.914659 49.821311-56.155859 0 0 54.336258-50.720165 194.71435 124.080742 0 0 19.636123 6.506047-106.868726 15.393631-43.843143 3.077267-56.328575 23.62684-52.442462 47.987115a3095.321546 3095.321546 0 0 0-15.824205-15.950702c-85.253665-85.257314-173.684334-163.367585-252.655753-223.371851 14.603029-5.43691 32.147098-6.405093 52.834114 1.140899zM159.238738 273.286819C99.740457 184.839122 75.49938 120.752915 94.391122 101.856309c4.119645-4.118429 10.583121-6.208051 19.210414-6.208051 35.178144 0 100.955023 33.407196 185.210097 94.06827 5.031878 3.62339 10.118491 7.340436 15.245241 11.132894C268.847813 238.761833 232.457007 286.846253 208.41054 341.581461c-18.015997-23.617109-34.495794-46.477673-49.171802-68.294642z m555.64002 482.345123s-42.561152-13.587409-77.88647-41.658649c0 0-26.272316-38.04134 0.902503-67.926099 0 0-17.216881-43.480683-98.718227-57.96573 0 0-51.627533-5.439342-68.833468-4.529542 0 0-30.799425-34.208745-35.325318-70.985121 0 0-28.98104-28.633175-76.986399-42.221801 0 0-66.11258-22.635546-24.440552-110.486035 0 0 50.723814-92.378814-4.528325-98.723092 0 0-27.185765 15.393631-37.143703 15.393631 0 0-14.334224-4.018691-11.762943-9.957938 0 0 14.29287-38.229869 45.640851-56.947677 79.754723 60.14171 169.637668 139.3272 256.279143 225.968675a3066.623906 3066.623906 0 0 1 33.953319 34.504309c12.279875 22.758394 33.450983 44.656855 52.669912 55.806777 1.650534 1.798924 3.298635 3.594199 4.939439 5.39069-4.780102 6.226296-22.766908 22.825291-66.543154-2.078675 0 0-27.173602-19.926822-21.731827-46.193056 0 0-39.155481-32.597133-80.260709 0.911017 0 0-41.105228 78.781675 62.153488 47.996845 0 0 13.716338 107.251864 146.930359 44.75416 47.757232 54.740073 89.743069 107.671492 123.680576 156.118372-19.658017 24.418658-61.883467 68.590205-113.930628 74.44431-0.002433 0-15.400929-9.956721-9.057867-51.615371z m200.933347 167.644134c-4.12451 4.123294-10.590419 6.2117-19.222577 6.2117-33.11893 0-93.343349-29.602575-170.562064-83.660297 47.875214-22.551621 90.363387-54.65858 125.002706-93.862714 59.448413 88.389315 83.666379 152.424435 64.781935 171.311311z" /></svg>