<?xml version="1.0" standalone="no"?><!DOCTYPE svg PUBLIC "-//W3C//DTD SVG 1.1//EN" "http://www.w3.org/Graphics/SVG/1.1/DTD/svg11.dtd"><svg class="icon" width="64px" height="64.00px" viewBox="0 0 1024 1024" version="1.1" xmlns="http://www.w3.org/2000/svg"><path d="M464.851532 573.375049c56.503724 0 102.314858-45.801404 102.314858-102.317291 0-56.514671-45.811134-102.316075-102.314858-102.316074-56.502507 0-102.316075 45.798971-102.316075 102.316074-0.001216 56.517103 45.812351 102.317291 102.316075 102.317291z"  /><path d="M923.9493049999999 806.032218L795.067783 675.73856c36.921118-59.436249 58.266158-129.562655 58.266158-204.68080199999997 0-214.549948-173.932461-388.48241-388.482409-388.48241C250.3028 82.57534800000002 76.370338 256.50781000000006 76.370338 471.05775800000004S250.3028 859.540168 464.850315 859.540168c80.850619 0 155.926195-24.70814 218.105226-66.973728l126.51336299999998 127.93644800000001c14.638302 14.651681 34.871634 23.69252 57.231078 23.69252 44.711589 0 80.932112-36.219307 80.932112-80.934545-0.001216-22.354577999999997-9.044488-42.563584-23.682789-57.228645zM149.84038299999997 519.926698l97.713554-48.870155999999994-97.713554-48.867723999999995c21.079885-136.988234 129.374127-245.22044400000001 266.4061479999999-266.177482l48.603784 97.13823899999998 48.579458-97.13459c137.049049 20.9692 245.378565 129.224521 266.441422 266.232216l-97.596789 48.810557 97.596789 48.811774C758.7633350000001 657.167925 650.015408 765.583798 512.551597 786.2245949999999l-47.700065-95.378237-47.724392 95.383102C279.677925 765.59961 170.96405500000003 657.206847 149.84038299999997 519.926698z"  /></svg>