<?xml version="1.0" standalone="no"?><!DOCTYPE svg PUBLIC "-//W3C//DTD SVG 1.1//EN" "http://www.w3.org/Graphics/SVG/1.1/DTD/svg11.dtd"><svg class="icon" width="64px" height="64.00px" viewBox="0 0 1024 1024" version="1.1" xmlns="http://www.w3.org/2000/svg"><path d="M957.986005 666.599054L482.758514 383.861598c-17.337877-10.314926-28.484751-2.436492-24.805966 17.499559l101.045347 546.756595c3.687996 19.931958 16.167215 22.692838 27.773554 6.115278 0 0 64.557318-92.555999 117.508297-149.049664l101.576444 151.285588c9.694803 14.414291 29.254278 18.170848 43.496653 8.377808l34.099632-23.563672c14.214746-9.815553 17.917068-29.673833 8.250918-44.115753l-101.530394-151.182235c67.877947-28.134781 163.788344-51.869345 163.788343-51.869344 19.558451-4.822842 21.370727-17.202801 4.024663-27.516704z m-554.623773 178.822758a30.271444 30.271444 0 0 0-5.841031-1.316995c-164.033937-38.474266-282.725176-188.963723-280.811594-362.817306 2.238994-203.003484 166.905334-366.31906 367.066073-364.081089 189.409884 2.162246 343.801207 151.856593 357.89418 339.948459v0.572028a32.051997 32.051997 0 0 0 0.420579 5.567809c1.940189 11.856026 10.289344 21.522176 21.401426 25.152867 1.863441 0.423649 3.726881 0.842181 5.590321 1.242293 0.421602 0.049119 0.87288 0.098237 1.294483 0.124844 0.768503 0.073678 1.564635 0.124843 2.359744 0.149402 0.844228 0 1.666966-0.024559 2.461051-0.101307 16.229636-1.068332 29.128411-14.663978 29.302373-31.413454 0.024559-0.174985 0-0.323365 0-0.472767 0-1.367137-0.099261-2.75781-0.273223-4.101411-3.206018-45.480844-13.447267-89.771583-30.520107-132.046409-20.877493-51.673893-51.048653-98.17395-89.697905-138.238434-38.620599-40.08802-83.781148-71.727625-134.234237-94.022397-52.229548-23.136953-107.86466-35.164894-165.302837-35.83823-57.437154-0.645706-113.307625 10.143011-166.047803 32.06223-50.912553 21.176298-96.766904 51.77213-136.273687 90.965781-39.518039 39.194674-70.708412 84.998883-92.717681 136.172379-22.790052 52.989865-34.657334 109.382223-35.305087 167.640068-1.166569 105.702414 35.779901 207.876468 104.014982 287.630907 59.387575 69.39244 138.535193 117.483738 225.834468 137.864927 1.799996 0.597611 3.675716 1.017166 5.614881 1.290389 1.205455 0.122797 2.397606 0.225127 3.628644 0.25071 17.359366 0.196475 31.603789-13.921058 31.775704-31.514761 0.174985-14.292518-8.946766-26.470885-21.633717-30.670533z" /></svg>