<?xml version="1.0" standalone="no"?><!DOCTYPE svg PUBLIC "-//W3C//DTD SVG 1.1//EN" "http://www.w3.org/Graphics/SVG/1.1/DTD/svg11.dtd"><svg class="icon" width="64px" height="64.00px" viewBox="0 0 1024 1024" version="1.1" xmlns="http://www.w3.org/2000/svg"><path d="M419.324254 812.849641H139.086218c-27.632151 0-50.11201-22.479858-50.11201-50.11201v-560.476072c0-27.632151 22.479858-50.11201 50.11201-50.11201h560.476072c27.632151 0 50.11201 22.479858 50.112009 50.11201v155.687798c0 23.876183 19.424485 43.300669 43.300669 43.300669s43.300669-19.424485 43.300669-43.300669v-155.687798c0-75.384518-61.328829-136.713347-136.712131-136.713347H139.086218c-75.384518 0-136.713347 61.328829-136.713347 136.713347v560.476072c0 75.384518 61.328829 136.712131 136.713347 136.712131h280.238036c23.876183 0 43.300669-19.424485 43.300668-43.300669s-19.424485-43.299452-43.300668-43.299452z"  /><path d="M232.498897 252.372353c-23.876183 0-43.300669 19.424485-43.300669 43.300668s19.424485 43.300669 43.300669 43.300669h373.650714c23.876183 0 43.300669-19.424485 43.300669-43.300669s-19.424485-43.300669-43.300669-43.300668H232.498897zM1008.579458 884.166815l-87.166922-87.164489c25.862419-38.358797 39.475371-82.281001 39.475371-127.67859 0-126.891637-103.234389-230.126026-230.126026-230.126026s-230.12481 103.234389-230.12481 230.126026 103.231957 230.126026 230.12481 230.126026c45.425564 0 89.346551-13.593491 127.676157-39.414556l87.166922 87.168139c8.412006 8.41079 19.593553 13.043718 31.487857 13.043718 11.891872 0 23.075851-4.632928 31.487857-13.044934 17.376218-17.37865 17.376218-45.655447-0.001216-63.035314zM730.699849 525.800264c79.13927 0 143.524688 64.385419 143.524689 143.524688s-64.385419 143.524688-143.524689 143.524689-143.524688-64.385419-143.524688-143.524689 64.384202-143.524688 143.524688-143.524688zM419.324254 439.19771H232.498897c-23.876183 0-43.300669 19.424485-43.300669 43.300669 0 23.876183 19.424485 43.301885 43.300669 43.301885h186.825357c23.876183 0 43.300669-19.424485 43.300668-43.301885 0-23.876183-19.424485-43.300669-43.300668-43.300669zM357.049135 712.624405c23.876183 0 43.300669-19.424485 43.300668-43.300669s-19.424485-43.301885-43.300668-43.301885H232.498897c-23.876183 0-43.300669 19.425702-43.300669 43.301885s19.424485 43.300669 43.300669 43.300669h124.550238z"  /></svg>