<?xml version="1.0" standalone="no"?><!DOCTYPE svg PUBLIC "-//W3C//DTD SVG 1.1//EN" "http://www.w3.org/Graphics/SVG/1.1/DTD/svg11.dtd"><svg class="icon" width="64px" height="64.00px" viewBox="0 0 1024 1024" version="1.1" xmlns="http://www.w3.org/2000/svg"><path d="M535.466667 533.333333c68.266667-68.266667 177.066667-74.666667 251.733333-19.2l145.066667-160c12.8-14.933333 12.8-38.4-2.133334-51.2l-211.2-192c-14.933333-12.8-38.4-12.8-51.2 2.133334L130.133333 704c-12.8 14.933333-12.8 38.4 2.133334 51.2l211.2 192c14.933333 12.8 38.4 12.8 51.2-2.133333l132.266666-145.066667c-68.266667-76.8-66.133333-194.133333 8.533334-266.666667zM640 172.8c4.266667-6.4 12.8-6.4 19.2 0l49.066667 44.8c6.4 4.266667 6.4 12.8 0 19.2-4.266667 6.4-12.8 6.4-19.2 0L640 192c-4.266667-4.266667-4.266667-12.8 0-19.2z m-89.6 100.266667c4.266667-6.4 12.8-6.4 19.2 0l49.066667 44.8c6.4 4.266667 6.4 12.8 0 19.2-4.266667 6.4-12.8 6.4-19.2 0l-49.066667-44.8c-6.4-4.266667-6.4-12.8 0-19.2zM256 733.866667c-4.266667 6.4-12.8 6.4-19.2 0l-49.066667-44.8c-6.4-4.266667-6.4-12.8 0-19.2 4.266667-6.4 12.8-6.4 19.2 0l49.066667 44.8c4.266667 6.4 4.266667 14.933333 0 19.2z m89.6-98.133334c-4.266667 6.4-12.8 6.4-19.2 0L277.333333 590.933333c-6.4-4.266667-6.4-12.8 0-19.2 4.266667-6.4 12.8-6.4 19.2 0l49.066667 44.8c4.266667 4.266667 6.4 12.8 0 19.2z m91.733333-100.266666c-4.266667 6.4-12.8 6.4-19.2 0L369.066667 490.666667c-6.4-4.266667-6.4-12.8 0-19.2 4.266667-6.4 12.8-6.4 19.2 0l49.066666 44.8c4.266667 4.266667 4.266667 12.8 0 19.2z m21.333334-162.133334c4.266667-6.4 12.8-6.4 19.2 0l49.066666 44.8c6.4 4.266667 6.4 12.8 0 19.2-4.266667 6.4-12.8 6.4-19.2 0l-49.066666-44.8c-4.266667-6.4-4.266667-14.933333 0-19.2z"  /><path d="M878.933333 849.066667L789.333333 759.466667c46.933333-61.866667 42.666667-147.2-12.8-202.666667-6.4-6.4-10.666667-10.666667-17.066666-14.933333-59.733333-44.8-145.066667-38.4-198.4 14.933333-57.6 57.6-59.733333 149.333333-6.4 211.2l6.4 6.4c55.466667 55.466667 140.8 59.733333 202.666666 12.8l89.6 89.6c4.266667 4.266667 8.533333 6.4 12.8 6.4 4.266667 0 10.666667-2.133333 12.8-6.4 6.4-8.533333 6.4-21.333333 0-27.733333zM748.8 746.666667c-44.8 44.8-117.333333 44.8-162.133333 0-2.133333-2.133333-4.266667-4.266667-6.4-8.533334-17.066667-21.333333-25.6-46.933333-27.733334-72.533333 0-64 51.2-115.2 115.2-115.2 23.466667 0 44.8 6.4 64 19.2 6.4 4.266667 10.666667 8.533333 17.066667 12.8 44.8 46.933333 44.8 119.466667 0 164.266667z"  /></svg>