<?xml version="1.0" standalone="no"?><!DOCTYPE svg PUBLIC "-//W3C//DTD SVG 1.1//EN" "http://www.w3.org/Graphics/SVG/1.1/DTD/svg11.dtd"><svg class="icon" width="64px" height="64.00px" viewBox="0 0 1024 1024" version="1.1" xmlns="http://www.w3.org/2000/svg"><path d="M923.888307 233.094519L690.781065 0 98.654824 592.126241l233.094519 233.107243zM660.702711 88.288366l145.722245 145.722245L776.817371 263.567302 631.133297 117.985015z m-88.81003 88.949988l87.372274 87.410445-29.55669 29.569414-87.384998-87.423168z m-88.822753 88.81003l87.384998 87.372274L540.898235 382.977349l-87.384998-87.372275z m-88.81003 88.81003L481.632172 442.243411l-29.569414 29.556691-87.35955-87.384998z m-88.81003 88.810029l87.384998 87.384998L363.303623 560.610132l-87.410445-87.372275z m-88.810029 88.81003L362.362084 678.162548 332.767223 707.770132 187.083148 562.047887z m539.908997 373.231148h-491.127098v-54.825561H100.741478v165.125582h164.858389V974.620097h491.127098v48.183894h164.807495V857.563897H756.548836z m-544.731204 55.72893h-55.601695v-56.123359h55.601695z m600.332899-49.354457h55.601695V968.258347h-55.601695z" /></svg>