<?xml version="1.0" standalone="no"?><!DOCTYPE svg PUBLIC "-//W3C//DTD SVG 1.1//EN" "http://www.w3.org/Graphics/SVG/1.1/DTD/svg11.dtd"><svg class="icon" width="64px" height="60.68px" viewBox="0 0 1080 1024" version="1.1" xmlns="http://www.w3.org/2000/svg"><path d="M525.653041 2.559999L521.443266 0c8.874662 12.060438 8.874662 6.428441 4.209775 2.559999z m467.057519 236.657646a31.85776 31.85776 0 0 0 32.028426-31.743982V39.537756a31.85776 31.85776 0 0 0-31.971538-31.687094h-169.301239a31.85776 31.85776 0 0 0-31.971538 31.687094v52.167082h-103.935942a30.719983 30.719983 0 0 0-9.784883 0H233.244315V39.537756a31.85776 31.85776 0 0 0-31.971538-31.687094H31.971538A31.85776 31.85776 0 0 0 0 39.537756v167.822129a31.85776 31.85776 0 0 0 31.971538 31.687093h52.622193v553.699248H31.971538a31.85776 31.85776 0 0 0-31.971538 31.743983v167.822129A31.85776 31.85776 0 0 0 31.971538 1023.999431h169.301239a31.85776 31.85776 0 0 0 31.971538-31.743982v-52.167082h558.136579v52.167082a31.85776 31.85776 0 0 0 31.971537 31.743982h169.30124a31.85776 31.85776 0 0 0 31.971538-31.743982v-167.651463a31.85776 31.85776 0 0 0-31.971538-31.743982h-52.622193V347.306474a16.611546 16.611546 0 0 0 0-3.242665V239.160756h52.73597zM148.707473 462.50641a34.36087 34.36087 0 0 0 5.404441-4.323553L459.320634 155.30658h145.635474l-456.248635 452.607749V462.50641z m52.622193-223.345654a31.85776 31.85776 0 0 0 31.971538-31.687093v-52.223971h135.509258L148.650584 373.759792V239.160756h52.622193z m-52.622193 458.52419l546.758807-542.435254h95.971503v38.968867L187.790118 792.860004h-39.253312v-95.175058h0.113778zM876.088402 564.963242l-306.687829 304.18472a32.711093 32.711093 0 0 0-5.688886 7.623106H418.019323L876.088402 422.399765v142.563477z m-52.622193 227.896762a31.85776 31.85776 0 0 0-31.971538 31.743982v52.167082h-139.093256L876.088402 654.790747v138.069257h-52.622193z m52.622193-460.287744l-548.693028 544.198808H233.244315v-39.139533l603.36322-598.470779h39.480867v93.411504z" /></svg>