<?xml version="1.0" standalone="no"?><!DOCTYPE svg PUBLIC "-//W3C//DTD SVG 1.1//EN" "http://www.w3.org/Graphics/SVG/1.1/DTD/svg11.dtd"><svg class="icon" width="64px" height="64.00px" viewBox="0 0 1024 1024" version="1.1" xmlns="http://www.w3.org/2000/svg"><path d="M0.146286 58.660571a58.514286 58.514286 0 0 1 58.514285-58.514285h883.185372a58.514286 58.514286 0 0 1 58.514286 58.514285v883.185372a58.514286 58.514286 0 0 1-58.514286 58.514286H58.660571a58.514286 58.514286 0 0 1-58.514285-58.514286V58.660571zM899.657143 928.914286a29.257143 29.257143 0 0 0 29.257143-29.257143V100.849371a29.257143 29.257143 0 0 0-29.257143-29.257142H100.849371a29.257143 29.257143 0 0 0-29.257142 29.257142V899.657143a29.257143 29.257143 0 0 0 29.257142 29.257143H899.657143zM428.792686 464.515657h142.891885v-142.862628h129.696915l-205.063315-205.063315-205.034057 205.063315h137.508572v142.862628z m272.5888 214.337829H571.684571V535.990857h-142.891885v142.891886h-137.508572l205.034057 205.063314 205.063315-205.063314z" fill="#333333" /></svg>