<?xml version="1.0" standalone="no"?><!DOCTYPE svg PUBLIC "-//W3C//DTD SVG 1.1//EN" "http://www.w3.org/Graphics/SVG/1.1/DTD/svg11.dtd"><svg class="icon" width="64px" height="64.00px" viewBox="0 0 1024 1024" version="1.1" xmlns="http://www.w3.org/2000/svg"><path d="M705.227 707.226h35.31V283.461H281.459V707.226H705.227z m0-35.314H485.158l220.069-188.631v188.631z m0-211.88l-11.495-13.411L446.54 658.507l11.489 13.405H342.985l362.242-329.314v117.434z m0-141.261v0.006l-0.005-0.006h0.005z m-388.454 0h184.302L316.773 472.359V318.771z m0 176.572l11.304 13.564L539.96 332.338l-11.305-13.568h150.361L316.773 648.085V495.343z m0 176.563l0.005 0.006h-0.005v-0.006z m635.651 158.918L811.166 742.54v70.628H175.521v-565.02h70.624l-88.281-141.255-88.288 141.254h70.631v600.33h670.958v70.631l141.259-88.284z" fill="#2c2c2c" /></svg>