<svg id="图层_1" data-name="图层 1" xmlns="http://www.w3.org/2000/svg" viewBox="0 0 58.31 47.3"><title>400600</title><path d="M50.47,28.41a.81.81,0,0,0,.81-.81V18.05a.8.8,0,0,0-.81-.8H13.72a.8.8,0,0,0-.81.8V45.52a.8.8,0,0,0,.81.8H50.47a.8.8,0,0,0,.81-.8V34.25a.8.8,0,0,0-.81-.8H44.71A5.83,5.83,0,0,1,50.47,28.41ZM48.72,19h1v1h-1Zm-34.2,0h1v1h-1Zm0,2.58h1.76a.8.8,0,0,0,.8-.81h0V18.86H37.71v11.8H25.38A7.44,7.44,0,0,0,18,24a.8.8,0,0,0-.81.8v5.85H14.52Zm1,23.07h-1v-1h1Zm22.23.1H17.09V42.83a.8.8,0,0,0-.81-.8H14.52V32.26H18a.8.8,0,0,0,.8-.8V25.67a5.85,5.85,0,0,1,5,5.79.78.78,0,0,0,.79.8h13.1v2.3a7.37,7.37,0,0,0-4.15,1.86h0A7.45,7.45,0,0,0,31.08,42a.8.8,0,0,0,.8.8h5.83Zm12-.1h-1v-1h1ZM43.05,34.25a.8.8,0,0,0,.8.81h5.83v7H47.91a.8.8,0,0,0-.8.81v1.87h-7.8V42a.81.81,0,0,0-.81-.81H32.74a5.84,5.84,0,0,1,5.77-5,.8.8,0,0,0,.8-.8V18.86h7.81v1.87a.8.8,0,0,0,.8.81h1.76v5.3A7.45,7.45,0,0,0,43.05,34.25Z" transform="translate(-2.9 -8.53)"/><path d="M13.6,53.17h-8v-42H41.11a.83.83,0,0,0,.83-.83.84.84,0,0,0-.83-.84H4.72a.84.84,0,0,0-.83.84V54a.83.83,0,0,0,.83.83H13.6a.83.83,0,0,0,.83-.83A.84.84,0,0,0,13.6,53.17Z" transform="translate(-2.9 -8.53)"/><path d="M13.6,55.83H4.72A1.82,1.82,0,0,1,2.9,54V10.36A1.82,1.82,0,0,1,4.72,8.53H41.11a1.83,1.83,0,0,1,0,3.65H6.54v40H13.6a1.83,1.83,0,0,1,0,3.66Z" transform="translate(-2.9 -8.53)"/><path d="M59.37,9.52H48.72a.84.84,0,0,0-.83.84.83.83,0,0,0,.83.83h9.83v42H22.1a.83.83,0,0,0-.83.83.84.84,0,0,0,.83.84H59.37a.84.84,0,0,0,.84-.84V10.36A.85.85,0,0,0,59.37,9.52Z" transform="translate(-2.9 -8.53)"/><path d="M59.38,55.83H22.1a1.83,1.83,0,0,1,0-3.66H57.55v-40H48.72a1.83,1.83,0,0,1,0-3.65H59.38a1.83,1.83,0,0,1,1.82,1.81V54A1.83,1.83,0,0,1,59.38,55.83Z" transform="translate(-2.9 -8.53)"/></svg>