<?xml version="1.0" standalone="no"?><!DOCTYPE svg PUBLIC "-//W3C//DTD SVG 1.1//EN" "http://www.w3.org/Graphics/SVG/1.1/DTD/svg11.dtd"><svg class="icon" width="64px" height="64.00px" viewBox="0 0 1024 1024" version="1.1" xmlns="http://www.w3.org/2000/svg"><path d="M959.899648 809.037824V570.042368c0-0.256-0.026624-0.503808-0.038912-0.75776a16.257024 16.257024 0 0 0-9.017344-16.736256L737.355776 448.8192a15.960064 15.960064 0 0 0-4.827136-1.456128V213.045248c0-0.256-0.026624-0.503808-0.038912-0.75776a16.254976 16.254976 0 0 0-9.017344-16.736256L509.986816 91.82208c-4.460544-2.183168-9.674752-2.152448-14.168064-0.032768L279.494656 195.518464a16.218112 16.218112 0 0 0-7.309312 6.97344 16.211968 16.211968 0 0 0-3.897344 10.553344v240.881664c0 0.380928 0.018432 0.759808 0.045056 1.134592l-193.124352 92.61056a16.16896 16.16896 0 0 0-7.206912 6.8608 16.201728 16.201728 0 0 0-4.001792 10.668032v240.881664c0 6.930432 4.345856 12.84096 10.45504 15.190016a16.283648 16.283648 0 0 0 3.520512 2.33472l213.48352 103.729152c2.2528 1.073152 4.661248 1.62816 7.104512 1.62816a16.0768 16.0768 0 0 0 7.13728-1.62816l203.730944-98.99008c0.069632 0.034816 0.135168 0.075776 0.206848 0.108544l213.48352 103.725056a16.457728 16.457728 0 0 0 7.104512 1.62816 16.058368 16.058368 0 0 0 7.133184-1.62816l213.487616-103.725056c6.653952-3.248128 10.090496-10.430464 8.916992-17.395712 0.079872-0.663552 0.135168-1.335296 0.135168-2.021376zM518.967296 534.5792l-2.136064-209.350656 183.117824-88.932352V446.62784l-180.98176 87.95136z m-16.144384-409.985024l176.246784 85.618688-176.246784 85.614592-178.59584-85.614592 178.59584-85.618688z m-201.955328 110.557184l183.361536 87.926784 2.127872 208.678912-180.660224-87.781376a15.98464 15.98464 0 0 0-4.831232-1.456128V235.15136zM96.575488 796.40576V587.302912l183.365632 87.928832 2.156544 211.331072-185.522176-90.157056z m201.955328-148.424704l-178.59584-85.618688 175.888384-84.318208 176.248832 85.633024-173.541376 84.303872z m14.012416 29.396992l183.117824-88.9344V798.78144l-180.98176 87.949312-2.136064-209.352704z m215.699456 123.879424V592.150528l183.361536 87.924736 2.156544 211.331072-185.51808-90.148864z m201.949184-148.432896l-178.59584-85.614592 178.59584-85.618688 176.246784 85.618688-176.246784 85.614592z m197.128192 150.806528l-180.979712 87.943168-2.136064-209.354752 183.113728-88.928256v210.33984z" /></svg>