<?xml version="1.0" standalone="no"?><!DOCTYPE svg PUBLIC "-//W3C//DTD SVG 1.1//EN" "http://www.w3.org/Graphics/SVG/1.1/DTD/svg11.dtd"><svg class="icon" width="64px" height="64.00px" viewBox="0 0 1024 1024" version="1.1" xmlns="http://www.w3.org/2000/svg"><path d="M896 746.666667H128a42.666667 42.666667 0 0 1-42.666667-42.666667v-469.333333a42.666667 42.666667 0 0 1 42.666667-42.666667h170.666667v-42.666667a42.666667 42.666667 0 0 1 42.666666-42.666666h341.333334a42.666667 42.666667 0 0 1 42.666666 42.666666v42.666667h170.666667a42.666667 42.666667 0 0 1 42.666667 42.666667v469.333333a42.666667 42.666667 0 0 1-42.666667 42.666667z m-42.666667-469.333334H170.666667v384h682.666666v-384z m-426.666666 326.4V327.253333l266.24 138.24L426.666667 603.733333zM341.333333 832h341.333334a42.666667 42.666667 0 0 1 0 85.333333H341.333333a42.666667 42.666667 0 0 1 0-85.333333z"  /></svg>