<?xml version="1.0" standalone="no"?><!DOCTYPE svg PUBLIC "-//W3C//DTD SVG 1.1//EN" "http://www.w3.org/Graphics/SVG/1.1/DTD/svg11.dtd"><svg class="icon" width="64px" height="64.00px" viewBox="0 0 1024 1024" version="1.1" xmlns="http://www.w3.org/2000/svg"><path d="M1009.736 778.936v-572.93h-996.4v572.93h373.65v74.73H237.527v49.822h548.021v-49.822H636.09v-74.73h373.647zM63.158 729.115V255.826h896.757v473.288H63.158z m0 0" fill="#2C2C2C" /><path d="M890.413 505.033c-25.497 0-47.513 12.092-59.43 29.915H704.811l-99.779-173.21-76.86 244.565-51.64-492.864-67.606-4.985-131.083 426.493H63.007v59.829H330.84l94.66-308.074 51.342 490.232 67.594 5.141 79.598-253.443 38.152 66.144h168.796c11.933 17.76 33.934 29.909 59.43 29.909 38.058 0 68.936-26.854 68.936-59.828 0-33.104-30.877-59.824-68.934-59.824z m0 0" fill="#2C2C2C" /></svg>