<?xml version="1.0" standalone="no"?><!DOCTYPE svg PUBLIC "-//W3C//DTD SVG 1.1//EN" "http://www.w3.org/Graphics/SVG/1.1/DTD/svg11.dtd"><svg class="icon" width="64px" height="64.00px" viewBox="0 0 1024 1024" version="1.1" xmlns="http://www.w3.org/2000/svg"><path d="M524.082 723.232c-23.618 0-45.952-7.47-64.588-21.608l-37.952-28.84c-7.164-5.5-16.132-8.532-25.248-8.532a42.122 42.122 0 0 0-25.344 8.532l-38.078 28.838c-18.738 14.112-41.052 21.572-64.526 21.572-23.472 0-45.788-7.462-64.536-21.582L165.744 672.78c-7.16-5.496-16.128-8.526-25.246-8.526a42.124 42.124 0 0 0-25.348 8.534l-49.736 37.686a32.136 32.136 0 0 1-19.554 6.582c-10.264 0-19.702-4.686-25.888-12.858-10.798-14.26-7.984-34.646 6.272-45.444l49.75-37.7c18.742-14.112 41.056-21.572 64.526-21.572 23.472 0 45.79 7.462 64.542 21.584l38.058 28.836c7.176 5.436 16.158 8.428 25.294 8.428s18.118-2.992 25.292-8.426l38.084-28.848c18.602-14.144 40.886-21.622 64.446-21.622 23.244 0 46.186 7.68 64.598 21.622l38.082 28.846c7.176 5.436 16.16 8.428 25.294 8.428s18.118-2.992 25.292-8.426l38.08-28.85c18.41-13.942 41.352-21.62 64.596-21.62 23.224 0 46.112 7.676 64.44 21.614l38.1 28.856c7.154 5.494 16.122 8.526 25.238 8.526 9.108 0 18.112-3.03 25.35-8.532l38.066-28.844c18.742-14.112 41.058-21.572 64.53-21.572s45.786 7.462 64.534 21.584l38.066 28.836a32.166 32.166 0 0 1 12.54 21.456 32.094 32.094 0 0 1-6.366 23.974c-6.204 8.188-15.642 12.878-25.906 12.878a32.146 32.146 0 0 1-19.56-6.586l-38.078-28.846c-7.156-5.494-16.126-8.526-25.242-8.526a42.114 42.114 0 0 0-25.348 8.534l-38.08 28.836c-18.738 14.112-41.05 21.572-64.524 21.572s-45.79-7.462-64.54-21.582l-38.06-28.832a41.888 41.888 0 0 0-25.29-8.43 41.874 41.874 0 0 0-25.266 8.406l-38.106 28.868c-18.648 14.136-40.982 21.608-64.594 21.608zM511.382 891.442c-23.61 0-45.944-7.468-64.588-21.602l-37.948-28.844c-7.164-5.5-16.134-8.534-25.25-8.534a42.106 42.106 0 0 0-25.346 8.536l-38.076 28.84c-18.738 14.114-41.05 21.576-64.522 21.576-23.47 0-45.79-7.464-64.542-21.586l-38.066-28.836c-7.158-5.498-16.126-8.53-25.242-8.53a42.102 42.102 0 0 0-25.346 8.536l-49.744 37.688a32.132 32.132 0 0 1-19.548 6.578c-10.268 0-19.706-4.686-25.896-12.858-10.798-14.256-7.982-34.646 6.28-45.456l49.744-37.684c18.74-14.114 41.054-21.576 64.526-21.576s45.79 7.464 64.538 21.588l38.068 28.834c7.178 5.438 16.16 8.432 25.29 8.432 9.13 0 18.112-2.994 25.292-8.432l38.084-28.844c18.338-13.946 41.226-21.624 64.452-21.624 23.244 0 46.184 7.68 64.596 21.624l38.08 28.844c7.178 5.438 16.162 8.432 25.294 8.432 9.134 0 18.116-2.994 25.292-8.434l38.076-28.844c18.412-13.942 41.352-21.622 64.594-21.622 23.222 0 46.114 7.676 64.452 21.616l38.09 28.852c7.16 5.496 16.13 8.526 25.246 8.526 9.11 0 18.11-3.032 25.346-8.534l38.066-28.838c18.742-14.114 41.056-21.576 64.53-21.576s45.788 7.464 64.534 21.588l38.076 28.834a32.146 32.146 0 0 1 12.534 21.446c1.162 8.574-1.102 17.092-6.374 23.986-6.202 8.188-15.638 12.878-25.902 12.878a32.152 32.152 0 0 1-19.56-6.584l-38.08-28.848c-7.154-5.498-16.122-8.53-25.238-8.53a42.126 42.126 0 0 0-25.352 8.534l-38.076 28.842c-18.74 14.114-41.052 21.576-64.524 21.576s-45.79-7.464-64.54-21.586l-38.062-28.836c-7.376-5.518-16.118-8.43-25.292-8.43s-17.912 2.906-25.262 8.406l-38.11 28.872c-18.646 14.134-40.98 21.604-64.594 21.604z"  /><path d="M411.66 145.698l580.484 213.748-106.17 306.238c-20.784-7.33-45.908-10.542-68.286-13.378l90.954-254.334-458.722-168.986-135.75 427.344c-27.676 2.774-55.466 16.036-84.544 40.386L411.66 145.698z"  /><path d="M491.052 398.516l22.676-61.55 89.06 32.798-22.678 61.554zM793.04 439.798l-22.66 61.54-89.064-32.792 22.658-61.54zM561.51 484.674l-22.668 61.55-89.058-32.8 22.668-61.55zM750.786 548.964l-22.66 61.546-89.054-32.788 22.66-61.546z"  /></svg>