<?xml version="1.0" standalone="no"?><!DOCTYPE svg PUBLIC "-//W3C//DTD SVG 1.1//EN" "http://www.w3.org/Graphics/SVG/1.1/DTD/svg11.dtd"><svg class="icon" width="64px" height="64.00px" viewBox="0 0 1024 1024" version="1.1" xmlns="http://www.w3.org/2000/svg"><path d="M855.172854 64.383234a102.2 102.2 0 1 0 0 208.887824 102.2 102.2 0 1 0 0-208.887824Z"  /><path d="M855.172854 750.728942a102.2 102.2 0 1 0 0 208.887824 102.2 102.2 0 1 0 0-208.887824Z"  /><path d="M168.827146 168.827146m0-104.443912a102.2 102.2 0 1 0 0 208.887824 102.2 102.2 0 1 0 0-208.887824Z"  /><path d="M168.827146 750.728942a102.2 102.2 0 1 0 0 208.887824 102.2 102.2 0 1 0 0-208.887824Z"  /><path d="M840.252295 358.425831C840.252295 373.700275 850.272538 386.082659 862.633134 386.082659 874.99372899 386.082659 885.013972 373.700275 885.013972 358.425831L885.013972 330.769003C885.013972 315.494559 874.993729 303.112176 862.633134 303.112176 850.272538 303.112176 840.252295 315.49455899 840.25229499 330.769003L840.252295 358.425831ZM840.25229499 469.053141C840.252295 484.327584 850.272538 496.709968 862.633134 496.709968 874.993729 496.709968 885.013972 484.327584 885.013972 469.053141L885.013972 441.396313C885.013972 426.121869 874.993729 413.739486 862.633134 413.739486 850.272538 413.739486 840.252295 426.121869 840.252295 441.396313L840.25229499 469.053141ZM840.252295 579.680451C840.252295 594.954895 850.272538 607.337279 862.633134 607.337279 874.99372899 607.337279 885.013972 594.954895 885.013972 579.680451L885.013972 552.023624C885.013972 536.74918 874.993729 524.366796 862.633134 524.366796 850.272538 524.366796 840.252295 536.74918 840.252295 552.023624L840.252295 579.680451ZM840.252295 690.30776101C840.25229499 705.582206 850.272538 717.964588 862.633134 717.964588 874.99372899 717.964588 885.013972 705.582206 885.013972 690.307761L885.013972 662.650933C885.013972 647.376489 874.993729 634.994107 862.633134 634.99410701 850.27253799 634.994107 840.252295 647.376489 840.252295 662.650933L840.252295 690.30776101Z"  /><path d="M138.982113 358.44913C138.992465 373.723572 148.966545 386.095527 161.259842 386.082664 173.55314 386.0698 183.510433 373.67699 183.50008101 358.402547L183.481335 330.74572C183.470982 315.47127699 173.49690299 303.099321 161.203606 303.112186 148.910308 303.125049 138.953014 315.51786 138.963367 330.792303L138.982113 358.44913ZM139.057095 469.076434C139.06744801 484.350878 149.041527 496.722833 161.334825 496.709969 173.628122 496.697105 183.585416 484.304294 183.575062 469.029851L183.556317 441.373025C183.545964 426.09858199 173.571885 413.726627 161.278588 413.73949 148.98529 413.752354 139.027997 426.145165 139.038349 441.41960701L139.057095 469.076434ZM139.132078 579.703739C139.14243 594.978182 149.116509 607.350137 161.409807 607.337274 173.703105 607.32440999 183.660398 594.9316 183.650045 579.657156L183.6313 552.00033C183.620946 536.725886 173.646867 524.35393099 161.35357 524.366795 149.06027301 524.379658 139.102979 536.772469 139.113332 552.046913L139.132078 579.703739ZM139.20706 690.331044C139.217412 705.605487 149.191492 717.977442 161.484789 717.964578 173.778087 717.951715 183.735381 705.558904 183.725027 690.284461L183.706282 662.627635C183.695929 647.353192 173.721849 634.98123599 161.428553 634.99409899 149.135255 635.006964 139.177962 647.399775 139.18831399 662.674217L139.20706 690.331044Z"  /><path d="M290.580303 332.092776C299.400869 340.751987 313.571028 340.62118599 322.23024 331.800621 330.889453 322.980057 330.758651 308.80989801 321.938087 300.150685L300.643359 279.245496C291.822794 270.586283 277.652635 270.71708499 268.993423 279.53764999 260.33421 288.358215 260.465012 302.528374 269.285576 311.187587L290.580303 332.092776ZM375.759212 415.713529C384.579776 424.372742 398.74993601 424.24194 407.409148 415.421376 416.068361 406.600811 415.93756 392.430651 407.116994 383.771438L385.822267 362.866251C377.001703 354.207038 362.831543 354.33784 354.17233101 363.158404 345.513118 371.978969 345.64392 386.149129 354.464485 394.808341L375.759212 415.713529ZM460.93812 499.334284C469.758685 507.993497 483.928844 507.862695 492.588057 499.04213 501.247269 490.221565 501.116467 476.051406 492.295903 467.392193L471.001176 446.487004C462.180611 437.827791 448.010452 437.95859399 439.351239 446.779158 430.692026 455.599723 430.822828 469.769882 439.643393 478.429095L460.93812 499.334284ZM546.117028 582.955038C554.937593 591.61425 569.107752 591.483449 577.76696499 582.662884 586.426178 573.84232 586.295376 559.67216 577.474811 551.012948L556.180085 530.107759C547.359519 521.44854599 533.18936 521.57934801 524.530147 530.399913 515.870935 539.220477 516.001737 553.390637 524.822301 562.04985L546.117028 582.955038ZM631.295937 666.575792C640.116501 675.235005 654.286661 675.10420301 662.945874 666.283639 671.605086 657.463073 671.474284 643.292914 662.653719 634.63370099L641.358992 613.728513C632.538428 605.069301 618.368268 605.200102 609.709056 614.020667 601.049843 622.841232 601.180644 637.011391 610.00121 645.670603L631.295937 666.575792ZM716.474845 750.196546C725.29541 758.855759 739.46556901 758.724958 748.124781 749.904392 756.783994 741.083828 756.653193 726.913668 747.832628 718.254456L726.53790099 697.349267C717.717335 688.690054 703.547176 688.820857 694.887964 697.641421 686.228751 706.46198599 686.359553 720.632145 695.18011699 729.291358L716.474845 750.196546Z"  /></svg>