<?xml version="1.0" standalone="no"?><!DOCTYPE svg PUBLIC "-//W3C//DTD SVG 1.1//EN" "http://www.w3.org/Graphics/SVG/1.1/DTD/svg11.dtd"><svg class="icon" width="64px" height="64.00px" viewBox="0 0 1024 1024" version="1.1" xmlns="http://www.w3.org/2000/svg"><path d="M512 25.6C249.6 25.6 32 243.2 32 512c0 268.8 217.6 486.4 480 486.4 262.4 0 480-217.6 480-486.4C992 243.2 774.4 25.6 512 25.6zM512 928c-230.4 0-409.6-185.6-409.6-416 0-230.4 185.6-416 409.6-416 230.4 0 409.6 185.6 409.6 416C921.6 742.4 742.4 928 512 928zM288 595.2c-32 0-64 25.6-64 64 0 32 25.6 64 64 64 32 0 64-25.6 64-64C345.6 620.8 320 595.2 288 595.2zM307.2 268.8c-44.8 0-83.2 38.4-83.2 83.2 0 44.8 38.4 83.2 83.2 83.2 44.8 0 83.2-38.4 83.2-83.2C390.4 307.2 352 268.8 307.2 268.8zM697.6 550.4c-57.6 0-102.4 44.8-102.4 102.4 0 57.6 44.8 102.4 102.4 102.4 57.6 0 102.4-44.8 102.4-102.4C800 595.2 755.2 550.4 697.6 550.4zM697.6 428.8c32 0 64-25.6 64-64 0-32-25.6-64-64-64-32 0-64 25.6-64 64C633.6 403.2 665.6 428.8 697.6 428.8z" /></svg>