<?xml version="1.0" standalone="no"?><!DOCTYPE svg PUBLIC "-//W3C//DTD SVG 1.1//EN" "http://www.w3.org/Graphics/SVG/1.1/DTD/svg11.dtd"><svg class="icon" width="64px" height="59.74px" viewBox="0 0 1097 1024" version="1.1" xmlns="http://www.w3.org/2000/svg"><path d="M60.063391 157.499993a95.343158 95.343158 0 1 0 194.873204 0 95.343158 95.343158 0 1 0-194.873204 0z"  /><path d="M700.360796 157.499993a95.343158 95.343158 0 1 0 194.873204 0 95.343158 95.343158 0 1 0-194.873204 0z"  /><path d="M60.063391 797.797398a95.343158 95.343158 0 1 0 194.873204 0 95.343158 95.343158 0 1 0-194.873204 0z"  /><path d="M700.360796 797.797398a95.343158 95.343158 0 1 0 194.873204 0 95.343158 95.343158 0 1 0-194.873204 0z"  /><path d="M334.378342 171.419907c14.249231 0 25.801426-9.347734 25.801426-20.879405 0-11.530738-11.552195-20.879405-25.801426-20.879405h-25.801425c-14.249231 0-25.801426 9.347734-25.801426 20.878472 0 11.531671 11.552195 20.880338 25.801426 20.880338h25.801425z m103.20477 0c14.250164 0 25.801426-9.347734 25.801426-20.879405 0-11.530738-11.551262-20.879405-25.801426-20.879405h-25.801425c-14.249231 0-25.801426 9.347734-25.801426 20.878472 0 11.531671 11.552195 20.880338 25.801426 20.880338h25.801425z m103.20477 0c14.250164 0 25.801426-9.347734 25.801426-20.879405 0-11.530738-11.551262-20.879405-25.801426-20.879405h-25.800493c-14.250164 0-25.801426 9.347734-25.801425 20.878472 0 11.531671 11.551262 20.880338 25.801425 20.880338h25.800493z m103.205703 0c14.249231 0 25.801426-9.347734 25.801426-20.879405 0-11.530738-11.552195-20.879405-25.801426-20.879405H618.191226c-14.250164 0-25.801426 9.347734-25.801425 20.878472 0 11.531671 11.551262 20.880338 25.801425 20.880338h25.801426z"  /><path d="M334.400732 825.640025c14.249231-0.009329 25.791164-9.315082 25.779036-20.783315-0.012128-11.468233-11.573652-20.757194-25.822883-20.747866l-25.801425 0.017726c-14.250164 0.009329-25.792097 9.31415-25.779969 20.782382 0.012128 11.469166 11.573652 20.758127 25.822882 20.747866l25.801426-0.016793z m103.203837-0.069968c14.250164-0.009329 25.792097-9.315082 25.779969-20.783315-0.012128-11.468233-11.573652-20.757194-25.822883-20.747866l-25.801425 0.017726c-14.249231 0.009329-25.791164 9.31415-25.779969 20.782382 0.012128 11.469166 11.573652 20.758127 25.822882 20.747866l25.801426-0.016793z m103.205703-0.069968c14.249231-0.009329 25.791164-9.315082 25.779036-20.783315-0.012128-11.468233-11.572719-20.757194-25.822883-20.747866l-25.801425 0.017726c-14.249231 0.009329-25.791164 9.31415-25.779036 20.782382 0.012128 11.469166 11.572719 20.758127 25.822882 20.747866l25.801426-0.016793z m103.20477-0.069968c14.249231-0.009329 25.791164-9.31415 25.779969-20.783316-0.012128-11.468233-11.573652-20.757194-25.822883-20.747865l-25.801426 0.017725c-14.250164 0.009329-25.792097 9.31415-25.779968 20.782383 0.012128 11.469166 11.573652 20.758127 25.822882 20.747865l25.801426-0.016792z"  /><path d="M133.561099 338.077807c0.085805 14.249905 9.502924 25.744672 21.034386 25.675236 11.530529-0.069431 20.809472-11.676775 20.723667-25.92668l-0.15536-25.800958c-0.0858-14.248972-9.502924-25.744672-21.033453-25.675241-11.531462 0.069436-20.8104 11.677713-20.7246 25.926685L133.561099 338.077807z m0.621432 103.202899c0.085805 14.249905 9.502924 25.744672 21.034386 25.675236 11.530529-0.069431 20.809472-11.676775 20.723667-25.92668L175.78523 415.229237c-0.085805-14.249905-9.502924-25.744672-21.033453-25.675242-11.531462 0.069436-20.810405 11.67678-20.7246 25.926686l0.155354 25.800025z m0.621437 103.203832c0.0858 14.248972 9.502924 25.744672 21.034386 25.675236 11.530529-0.069431 20.809467-11.677708 20.723667-25.92668l-0.155359-25.800958c-0.085805-14.249905-9.502924-25.744672-21.033453-25.675242-11.531462 0.069436-20.810405 11.67678-20.7246 25.926686l0.155359 25.800958z m0.621432 103.202899c0.0858 14.248972 9.502924 25.744672 21.034386 25.675236 11.530529-0.069431 20.809467-11.677708 20.723667-25.92668l-0.155359-25.800958c-0.0858-14.248972-9.502924-25.744672-21.033453-25.675242-11.531462 0.069436-20.8104 11.677713-20.7246 25.926686l0.155359 25.800958z"  /><path d="M772.672784 330.615479c0.0858 14.248972 9.502924 25.744672 21.034386 25.675236 11.530529-0.069431 20.809467-11.677708 20.723667-25.92668l-0.155359-25.800958c-0.0858-14.248972-9.502924-25.744672-21.033454-25.675241-11.531462 0.069436-20.8104 11.677713-20.7246 25.926685l0.15536 25.800958z m0.621432 103.202899c0.085805 14.249905 9.502924 25.744672 21.034386 25.675236 11.530529-0.069431 20.809472-11.676775 20.723667-25.92668l-0.155359-25.800958c-0.0858-14.248972-9.502924-25.744672-21.033454-25.675241-11.531462 0.069436-20.8104 11.677713-20.7246 25.926685l0.15536 25.800958z m0.621432 103.202899c0.085805 14.249905 9.502924 25.744672 21.034386 25.675236 11.530529-0.069431 20.809472-11.676775 20.723667-25.92668l-0.155354-25.800025c-0.085805-14.249905-9.502924-25.744672-21.033453-25.675241-11.531462 0.069436-20.810405 11.67678-20.7246 25.926685l0.155354 25.800025z m0.621437 103.203832c0.0858 14.248972 9.502924 25.744672 21.034386 25.675236 11.530529-0.069431 20.809467-11.677708 20.723668-25.92668l-0.15536-25.800958c-0.085805-14.249905-9.502924-25.744672-21.033453-25.675241-11.531462 0.069436-20.810405 11.67678-20.7246 25.926685l0.155359 25.800958z"  /></svg>