<svg xmlns="http://www.w3.org/2000/svg" width="64" height="64" viewBox="0 0 64 64">
  <metadata><?xpacket begin="﻿" id="W5M0MpCehiHzreSzNTczkc9d"?>
<x:xmpmeta xmlns:x="adobe:ns:meta/" x:xmptk="Adobe XMP Core 5.6-c140 79.160451, 2017/05/06-01:08:21        ">
   <rdf:RDF xmlns:rdf="http://www.w3.org/1999/02/22-rdf-syntax-ns#">
      <rdf:Description rdf:about=""/>
   </rdf:RDF>
</x:xmpmeta>
                                                                                                    
                                                                                                    
                                                                                                    
                                                                                                    
                                                                                                    
                                                                                                    
                                                                                                    
                                                                                                    
                                                                                                    
                                                                                                    
                                                                                                    
                                                                                                    
                                                                                                    
                                                                                                    
                                                                                                    
                                                                                                    
                                                                                                    
                                                                                                    
                                                                                                    
                                                                                                    
                           
<?xpacket end="w"?></metadata>
<defs>
    <style>
      .cls-1 {
        fill-rule: evenodd;
      }
    </style>
  </defs>
  <path id="形状_566" data-name="形状 566" class="cls-1" d="M3.376,3.249h7.175c-0.459,2.444.487,3.385,1.015,6.577,1.77,10.7,8.8,18.878,20.117,19.924v0.07c-12.732.212-20.833-6.342-24.619-15.047C5.573,11.343,2.354,8.122,3.376,3.249Zm15.716,0H25.7c-0.965,1.908-1.864,1.866-2.462,4.209-1.969,7.721,1.54,14.635,4.783,18.67,1.08,1.343,2.689,2.194,3.8,3.483a15.388,15.388,0,0,1-4.22-2.717c-5.181-3.938-8.039-9.145-9.355-17C17.713,6.7,18.794,5.795,19.092,3.249Zm14.631,0,9.5,0.07H43.078c-1.423,1.072-3.114-.26-4.5.8-4,3.039-9.489,11.134-8.089,19.157,0.413,2.368,1.24,4.337,1.688,6.34l-0.141-.07-1.547-2.786A31.728,31.728,0,0,1,28.729,21.6c-1.562-6.254.367-13.166,2.743-17.137C32.222,3.394,32.973,4.317,33.723,3.249ZM62,3.249V11.5c-1.69-.3-3.485-0.666-5.416-0.975a18.248,18.248,0,0,0-7.808.906c-6.583,2.005-11.8,6.024-14.42,11.912l-1.477,4.18-0.422,2.368a21.428,21.428,0,0,1,1.266-8.638A27.329,27.329,0,0,1,54,3.249C56.66,2.669,59.274,3.186,62,3.249ZM54.473,16.932A29.57,29.57,0,0,1,62,17.837q-0.035,3.135-.071,6.27a31.105,31.105,0,0,0-5.979-2.229c-7.96-1.992-15.473,1.289-19.766,4.6C34.858,27.5,33.957,29,32.668,30.029a10.189,10.189,0,0,1,1.618-2.508,25.215,25.215,0,0,1,13.505-9.544l4.642-.906ZM2,19.649c1.241,1.544,2.155,3.3,3.376,4.807,3.219,3.969,11.811,8.611,19.906,7.175,2.193-.389,4.075-1.131,5.979-1.533l-0.07.139L28.8,31.491a35.646,35.646,0,0,1-5.768,1.881C14.393,35.5,6.916,31.8,2,28.635V19.649Zm42.767,6.966C51.313,26.5,59.034,28.687,62,31.909Q61.965,36.4,61.93,40.9V40.757c-1.063-1.377-1.814-2.921-2.884-4.25-3.49-4.334-12.155-9.27-20.891-7.593A52.637,52.637,0,0,0,32.6,30.447c1.7-1.632,5.972-2.818,8.722-3.413Zm-12.943,3h0Zm0.352,0,0.07,0.139Zm-0.914.418h0Zm1.336,0,0.07,0.139Zm-1.266.279a0.243,0.243,0,0,1-.07.209Zm0.141,0.139v2.647c-0.582,3.614-1.029,6.19-2.321,8.847C25.332,49.791,14.93,62.379,2,59.857v-6.9c1.692,0.3,3.481-3.321,5.416-3.008a15.07,15.07,0,0,0,4.853-.279c7.3-1.415,12.147-4.527,15.615-9.683C29.527,37.55,31.4,34.3,31.472,30.447Zm0.985,0h0Zm-1.266.07c0.18,0.97-3.455,4.886-4.22,5.643C21.5,41.574,12.612,45.117,2,42.638q0.035-3.135.07-6.27a30.02,30.02,0,0,0,6.682,2.369C18.392,40.853,27.533,35.572,31.191,30.516Zm0.492,0.139,0.07,0.139ZM60.694,61H53.449c0.713-1.812-1.015-6-1.015-8.47A21.674,21.674,0,0,0,39.491,32.676l-4.5-1.533-2.673-.488C46.8,30.452,56.1,39.338,58.624,51,59.167,53.508,60.787,58.43,60.694,61ZM31.754,30.795a11.4,11.4,0,0,1,1.9,3.483,24.377,24.377,0,0,1-1.337,21.874c-0.609.987,0.872,4.093,0.031,4.847L23.2,60.93h0.141l1.97-1.115c0.938-.7-0.124-3.385.813-4.081C30.2,52.5,35,44.36,33.371,36.3A51.86,51.86,0,0,0,31.754,30.795Zm0.281,0,0.211,0.139Zm0.211,0.139c2.032,0.64,3.618,2.278,5.135,3.483,4.569,3.629,7.023,8.64,8.23,15.674a14.654,14.654,0,0,1,.141,4.249c-0.272,1.627,1.4,5.182,1.156,6.659H40.366l0.07-.209c1.1-1.115-.429-5.318.04-7.007,2.244-8.081-1.03-15.092-4.642-19.575C34.818,32.948,33.287,32.15,32.246,30.934Z"/>
</svg>
