<svg id="图层_1" data-name="图层 1" xmlns="http://www.w3.org/2000/svg" viewBox="0 0 56.74 56.49"><defs><style>.cls-1,.cls-2{fill:none;stroke:#000;stroke-miterlimit:10;}.cls-1{stroke-width:3px;}</style></defs><title>2.1.1</title><path d="M47.23,56.38c-.31,0-.61,0-.91,0a10.69,10.69,0,1,1,11.54-9.76h0a10.7,10.7,0,0,1-10.63,9.8Zm0-17.86a7.17,7.17,0,0,0-7.13,6.57,7.16,7.16,0,0,0,14.27,1.19h0a7.17,7.17,0,0,0-6.54-7.73Z" transform="translate(-3.68 -4.5)"/><path d="M58.66,61a1.77,1.77,0,0,1-1.35-.62l-5.69-6.73a1.77,1.77,0,0,1,2.7-2.28L60,58.09A1.77,1.77,0,0,1,58.66,61Z" transform="translate(-3.68 -4.5)"/><path class="cls-1" d="M5.18,22.36H47.76V11.47A5.48,5.48,0,0,0,42.29,6H10.65a5.48,5.48,0,0,0-5.47,5.47V49.31a5.48,5.48,0,0,0,5.47,5.47H31.82" transform="translate(-3.68 -4.5)"/><rect class="cls-2" x="7.94" y="37.94" width="11.61" height="1.03"/><rect class="cls-2" x="7.94" y="27.84" width="21.72" height="1.03"/><rect class="cls-2" x="22.79" y="9.97" width="16.74" height="1.03"/><circle cx="11.97" cy="9.97" r="2.52"/></svg>