<svg id="图层_1" data-name="图层 1" xmlns="http://www.w3.org/2000/svg" viewBox="0 0 58.65 54.63"><defs><style>.cls-1{stroke:#000;stroke-miterlimit:10;stroke-width:0.5px;}</style></defs><title>2.1.2</title><path d="M49.6,51.63c-.29,0-.57,0-.86,0a10.15,10.15,0,1,1,11-9.27h0a10.15,10.15,0,0,1-10.1,9.3Zm0-17A6.8,6.8,0,0,0,49,48.26a6.82,6.82,0,0,0,7.34-6.21h0a6.8,6.8,0,0,0-6.21-7.34A5.44,5.44,0,0,0,49.58,34.68Z" transform="translate(-3.48 -4.75)"/><path d="M60.45,56a1.7,1.7,0,0,1-1.28-.59L53.78,49a1.67,1.67,0,1,1,2.55-2.16l5.4,6.38a1.69,1.69,0,0,1-.19,2.37A1.71,1.71,0,0,1,60.45,56Z" transform="translate(-3.48 -4.75)"/><path d="M19,31.88,11.23,27.2a1.31,1.31,0,0,0-1.81.45,1.32,1.32,0,0,0,.45,1.82l7.81,4.69A1.33,1.33,0,0,0,19,31.88Zm8.33,27.44a1.21,1.21,0,0,0,1-.12,1.31,1.31,0,0,1-1,.12ZM19,31.88,11.23,27.2a1.31,1.31,0,0,0-1.81.45,1.32,1.32,0,0,0,.45,1.82l7.81,4.69A1.33,1.33,0,0,0,19,31.88Zm0,0L11.23,27.2a1.31,1.31,0,0,0-1.81.45,1.32,1.32,0,0,0,.45,1.82l7.81,4.69A1.33,1.33,0,0,0,19,31.88Zm0,0L11.23,27.2a1.31,1.31,0,0,0-1.81.45,1.32,1.32,0,0,0,.45,1.82l7.81,4.69A1.33,1.33,0,0,0,19,31.88Zm0,0L11.23,27.2a1.31,1.31,0,0,0-1.81.45,1.32,1.32,0,0,0,.45,1.82l7.81,4.69A1.33,1.33,0,0,0,19,31.88Zm0,0L11.23,27.2a1.31,1.31,0,0,0-1.81.45,1.32,1.32,0,0,0,.45,1.82l7.81,4.69A1.33,1.33,0,0,0,19,31.88Zm0,0" transform="translate(-3.48 -4.75)"/><path class="cls-1" d="M52.19,16.78,28.92,5.14a1.31,1.31,0,0,0-1.19,0L4.46,16.78a2.22,2.22,0,0,0-.73,2V43.56a1.36,1.36,0,0,0,.64,1.14S27.14,58.46,27.53,58.64a1.74,1.74,0,0,0,1.68.09l7.57-4.38A1.36,1.36,0,0,0,35.43,52L30.2,55v0l-.54.3V31.94L50.25,20.25,52.35,19a1.22,1.22,0,0,0,.56-.88A1.31,1.31,0,0,0,52.19,16.78ZM27,55.25,6.37,42.82V20.23L27,31.94Zm1.33-25.61L7.86,18,28.33,7.81,48.8,18Z" transform="translate(-3.48 -4.75)"/></svg>