<?xml version="1.0" standalone="no"?><!DOCTYPE svg PUBLIC "-//W3C//DTD SVG 1.1//EN" "http://www.w3.org/Graphics/SVG/1.1/DTD/svg11.dtd"><svg class="icon" width="64px" height="64.00px" viewBox="0 0 1024 1024" version="1.1" xmlns="http://www.w3.org/2000/svg"><path d="M325.704548 463.918935l-46.019103 45.954635m92.037183-91.91234l115.111714 114.861005 46.01808-45.955659L417.741731 372.066971l-46.019103 45.894259z m575.552432-68.905346l-276.240485-275.67869c-12.718673-12.659321-33.296337-12.659321-46.019103 0L72.441381 624.736621c-12.719696 12.658298-12.719696 33.172517 0 45.895283l276.271184 275.617291c12.722766 12.720719 33.361829 12.720719 46.082548 0l552.48097-551.234583c12.721743-12.720719 12.721743-33.299407-0.001023-45.958728z m-92.03616 45.957705l-460.44481 459.382618c-12.720719 12.658298-33.359782 12.658298-46.082548 0l-184.137811-183.765327c-12.720719-12.722766-12.720719-33.235962 0-45.895283l86.800925-86.863346 373.640816-372.583741c12.722766-12.719696 33.30043-12.719696 46.019103 0l184.204325 183.766351c12.718673 12.660344 12.718673 33.239032 0 45.958728z m-363.167277-96.964402L607.182314 412.911214l46.019103-45.957704-115.110691-114.863051 17.834181-17.895579-63.853284 63.854307z m17.835204-17.895579l-46.082548 45.89426m-51.256384 280.729729L297.456181 491.916593l-46.081525 45.957704 115.110691 114.862028-17.773805 17.895579 63.856353-63.854307z" fill="#8a8a8a" /></svg>