<?xml version="1.0" encoding="utf-8"?>
<!-- Generator: Adobe Illustrator 22.1.0, SVG Export Plug-In . SVG Version: 6.00 Build 0)  -->
<svg version="1.1" id="图层_1" xmlns="http://www.w3.org/2000/svg" xmlns:xlink="http://www.w3.org/1999/xlink" x="0px" y="0px"
	 viewBox="0 0 64 64" style="enable-background:new 0 0 64 64;" xml:space="preserve">
<path d="M53.3,18.3l1.8,11.1c-4.3-0.9-9.3-1.4-12.9-3.7C51.5,21.4,53.3,18.3,53.3,18.3z"/>
<path d="M23.8,27.5l-3.7,7.4l-7.4,1.8l1.8-11.1C17.5,26.8,20.6,27.2,23.8,27.5z"/>
<path d="M12.7,38.6l14.3-0.9l5.9,6.4c-10.5-3.9-22.1-1.8-22.1-1.8L12.7,38.6z"/>
<path d="M34.8,44.1C35.5,44.4,34.8,44.1,34.8,44.1l-5.5-9.2h-7.4l3.7-7.4c0,0,6.7,1.4,14.7-1.8c3.5,3.7,6,4.7,14.7,5.5v5.5l-5.5,1.8
	l-3.7,9.2C45.9,47.8,41.9,45.8,34.8,44.1z"/>
<path d="M60.6,42.3l-12.9,9.2l0,0c-0.7,0.1-1.1,0-1.8,0c-8.1-0.3-19.8-5.3-29.5-5.5c-4.9-0.1-11.1,1.8-11.1,1.8l7.4-33.2l3.7-1.8
	l1.8,1.8l-3.7,1.8L9,44.1c16.7-2.5,29.1,6.2,38.7,5.5c1.4-2.7,3.7-9.2,3.7-9.2h7.4l-3.7-24c-12.3,0.9-36.9-1.8-36.9-1.8l-1.8-1.8
	c0,0,36.9,2.7,40.5,1.8C57.5,18.9,60.6,42.3,60.6,42.3z"/>
<path d="M36.7,18.3c3.3,0.6,7.6-0.3,11.1,0c-2.2,1.7-4.8,4.5-7.4,5.5c-2.4-1.8-5.5-5-7.4-7.4C34.2,16.7,35.5,18.1,36.7,18.3z"/>
<path d="M27.5,20.1c1.2-1.3,2.7-2.6,3.7-3.7c2,2.8,4.7,5.3,7.4,7.4c-3.4,1.2-7.3,1.8-11.1,1.8c-4,0-7.3-0.4-11.1-1.8v-5.5
	c0.6-0.3,3.1-1.7,3.7-1.8c0.9,1.1,0.7,2.4,1.8,3.7l3.7,3.7L27.5,20.1z"/>
</svg>
