<svg id="图层_1" data-name="图层 1" xmlns="http://www.w3.org/2000/svg" viewBox="0 0 57.8 50.83"><title>3.1.6</title><path d="M51.88,56.9H5.39a2.24,2.24,0,0,1-2-1.33,2.26,2.26,0,0,1,.39-2.42L39.45,13.91a2.24,2.24,0,1,1,3.31,3L10.46,52.42H51.88a2.24,2.24,0,0,1,0,4.48Z" transform="translate(-3.15 -7)"/><path d="M44.09,16.16a2.7,2.7,0,0,1-.58-.05,4.56,4.56,0,1,1,4.69-4.55,4.45,4.45,0,0,1-1.6,3.8A4.19,4.19,0,0,1,44.09,16.16Zm-.18-1.69A2.57,2.57,0,0,0,45.67,14a3,3,0,0,0,.85-2.4,2.88,2.88,0,1,0-2.87,2.87A1.17,1.17,0,0,1,43.91,14.47Z" transform="translate(-3.15 -7)"/><path d="M56.83,57.83a2.19,2.19,0,0,1-.57-.06A4.55,4.55,0,1,1,61,53.22,4.46,4.46,0,0,1,59.35,57,4.27,4.27,0,0,1,56.83,57.83Zm-.18-1.69a2.55,2.55,0,0,0,1.77-.52,3,3,0,0,0,.85-2.4,2.88,2.88,0,1,0-2.88,2.88A.75.75,0,0,1,56.65,56.14Z" transform="translate(-3.15 -7)"/><path d="M35.07,50.63a.85.85,0,0,1-.23,0A1.11,1.11,0,0,1,34,49.28c2-9.59-5.33-11.78-5.64-11.86a1.12,1.12,0,0,1,.61-2.16c.1,0,9.65,2.87,7.22,14.47A1.12,1.12,0,0,1,35.07,50.63Z" transform="translate(-3.15 -7)"/></svg>