<?xml version="1.0" standalone="no"?><!DOCTYPE svg PUBLIC "-//W3C//DTD SVG 1.1//EN" "http://www.w3.org/Graphics/SVG/1.1/DTD/svg11.dtd"><svg class="icon" width="64px" height="64.00px" viewBox="0 0 1024 1024" version="1.1" xmlns="http://www.w3.org/2000/svg"><path d="M274.986423 532.107967c-11.389398-5.117554-25.767873-1.664919-32.011064 7.680936-10.06524 15.012925-15.96767 24.982998-15.96767 24.982998-5.638417 9.601682-0.738827 21.132296 10.972912 25.815969 3.329838 1.286296 6.848988 1.919722 10.292414 1.919722 8.741082 0 17.178241-4.02978 21.246907-10.92584 0.132006-0.217964 5.600555-9.42158 14.851243-23.251563C290.614355 548.983309 286.413684 537.25315 274.986423 532.107967z"  /><path d="M312.04955 440.897615c-6.414083 7.028067-13.035898 14.860453-19.657712 23.251563-7.378038 9.41237-5.183046 22.598694 4.919033 29.466102 4.049223 2.724041 8.760524 4.03899 13.376659 4.03899 7.018857 0 13.904685-2.970658 18.332531-8.589632 6.016017-7.615445 11.957333-14.690584 17.671475-20.962427 8.096399-8.901741 6.90527-22.163789-2.64934-29.684066C334.468143 430.889681 320.12753 432.033737 312.04955 440.897615z"  /><path d="M443.556677 397.185045c-13.242606-22.712281-28.264741-27.51875-38.519292-27.51875-2.857071 0-5.789866 0.378623-8.741082 1.087774-8.400321 2.061962-13.963013 12.675694-12.372795 23.724331 1.589195 11.021008 9.648754 18.267039 18.123776 16.232706 0.984421-0.265036 2.00568-0.387833 2.990101-0.387833 3.046383 0 7.794523 1.172709 13.81054 11.522428l1.627057 2.846838c3.02694 5.373381 7.718799 8.211009 12.486382 8.211009 3.217275 0 6.432503-1.305739 9.232269-3.963265 6.886851-6.678096 8.362458-19.430538 3.254114-28.455075L443.556677 397.185045z"  /><path d="M484.478691 473.296513c-5.145184-7.236821-16.780175-9.819646-25.900903-5.761214-9.194406 4.096295-12.429077 13.252839-7.265474 20.49887 8.325619 11.701506 16.535605 23.14821 25.351388 34.206056 3.651157 4.541433 9.838066 7.02909 16.138562 7.02909 3.462868 0 6.982018-0.766456 10.121522-2.326998 8.891508-4.446265 11.541871-13.734816 5.942339-20.763906C500.522086 495.725338 492.556671 484.657258 484.478691 473.296513z"  /><path d="M665.290757 500.521574c-7.756661-5.372358-18.807345-3.982708-24.708751 3.102664-9.611915 11.644201-19.088754 21.568225-28.03859 29.561269-6.961552 6.196119-7.113001 16.384156-0.301875 22.769586 3.443425 3.216251 8.020674 4.842285 12.599969 4.842285 4.447289 0 8.853645-1.51347 12.298094-4.558829 10.216689-9.119705 20.812001-20.244067 31.520901-33.156144C674.559864 515.997034 673.009556 505.904165 665.290757 500.521574z"  /><path d="M584.107783 577.900919c-12.789281 1.154289-24.747637-3.01773-37.46017-13.034874-9.705036-7.644097-23.401989-5.506411-30.591739 4.796236-7.188726 10.254551-5.184069 24.746614 4.502547 32.351825 18.84316 14.907525 38.801724 22.418592 59.291384 22.418592 2.706645 0 5.448082-0.13303 8.209986-0.406253 12.034081-1.144056 20.868283-12.401448 19.790742-25.152866C606.754572 586.111928 596.007811 576.623833 584.107783 577.900919z"  /><path d="M723.370547 436.914908c-11.350512-5.438872-25.731034-1.995447-32.124651 7.586792-5.051039 7.605212-10.329253 15.201214-15.533788 22.522969-6.715959 9.478885-3.101641 21.738094 8.079002 27.414373 3.803629 1.958608 7.984858 2.847861 12.109806 2.847861 8.020674 0 15.835663-3.414773 20.279882-9.657964 5.430686-7.680936 10.898211-15.608489 16.156982-23.50739C738.752886 454.509634 734.723106 442.315918 723.370547 436.914908z"  /><path d="M764.899382 284.322557c-3.877307-9.327436-14.510482-13.669324-23.743774-9.809413-9.251711 3.87833-13.621229 14.57802-9.761318 23.857361l12.107759 29.106922-28.984125 12.193717c-9.251711 3.88754-13.621229 14.576997-9.723455 23.876804 2.874467 6.980995 9.629311 11.218506 16.724917 11.218506 2.344395 0 4.728698-0.463558 6.961552-1.428535l29.021987-12.193717 12.107759 29.135574c2.914376 7.009647 9.649777 11.210319 16.762779 11.210319 2.346441 0 4.711302-0.454348 6.980995-1.390673 9.251711-3.897773 13.640672-14.576997 9.742898-23.895223l-12.089339-29.106922 28.966729-12.174274c9.231245-3.897773 13.621229-14.558577 9.742898-23.87578-3.879354-9.289574-14.512529-13.669324-23.743774-9.790994l-28.984125 12.174274L764.899382 284.322557z"  /><path d="M959.292768 752.827951 959.292768 177.476087c0-14.057157-18.010189-28.794813-31.954783-31.963992l-159.809729-31.963992c-6.583952-1.532913-25.824155-2.743484-31.974225 0l-223.738737 95.891977L320.013943 113.548102l-223.738737 95.891977c-11.80486 4.511757-31.973202 19.524682-31.973202 31.963992l0 575.352887c0 9.970072 15.022135 11.672854 23.384593 17.290805 8.362458 5.638417 31.103392 18.295692 40.562834 14.672164l191.764512-95.891977 159.829172 79.906911 0-63.927985-159.829172-79.906911-191.764512 63.927985L128.249431 241.404072l191.764512-63.927985 191.802374 95.891977c7.890714 3.216251 24.14184 3.481288 31.954783 0l223.75818-95.891977 127.854946 31.963992 0 511.414669-63.946404-15.981996 0 60.738339 95.901187 19.180851C965.706851 793.419438 959.292768 765.627465 959.292768 752.827951z"  /><path d="M520.002766 715.644073l275.7933 0 0 197.003839L520.002766 912.647913 520.002766 715.644073z"  /></svg>