<?xml version="1.0" standalone="no"?><!DOCTYPE svg PUBLIC "-//W3C//DTD SVG 1.1//EN" "http://www.w3.org/Graphics/SVG/1.1/DTD/svg11.dtd"><svg class="icon" width="64px" height="64.00px" viewBox="0 0 1024 1024" version="1.1" xmlns="http://www.w3.org/2000/svg"><path d="M884.1 492.1h-49.3c-2.6-43.6-13.9-85.6-33.1-124l42.5-24.6c9.6-5.5 12.8-17.8 7.3-27.3-5.5-9.6-17.8-12.8-27.3-7.3l-42.6 24.6c-11.8-17.7-25.5-34.4-40.9-49.8-15.4-15.4-32.1-29.1-49.8-40.9l24.6-42.6c5.5-9.6 2.2-21.8-7.3-27.3-9.6-5.5-21.8-2.2-27.3 7.3l-24.6 42.5c-38.3-19.1-80.3-30.4-124-33.1v-49.3c0-11-9-20-20-20s-20 9-20 20v49.3c-43.6 2.6-85.6 13.9-124 33.1l-24.6-42.5c-5.5-9.6-17.8-12.8-27.3-7.3-9.6 5.5-12.8 17.8-7.3 27.3l24.6 42.6c-17.7 11.8-34.4 25.5-49.8 40.9-15.4 15.4-29.1 32.1-40.9 49.8l-42.6-24.6c-9.6-5.5-21.8-2.2-27.3 7.3-5.5 9.6-2.2 21.8 7.3 27.3l42.5 24.6c-19.1 38.3-30.4 80.3-33.1 124h-49.3c-11 0-20 9-20 20s9 20 20 20H190c2.6 43.6 13.9 85.6 33.1 124l-42.5 24.6c-9.6 5.5-12.8 17.8-7.3 27.3 3.7 6.4 10.4 10 17.3 10 3.4 0 6.8-0.9 10-2.7l42.6-24.6c11.8 17.7 25.5 34.4 40.9 49.8 15.4 15.4 32.1 29.1 49.8 40.9L309.3 824c-5.5 9.6-2.2 21.8 7.3 27.3 3.1 1.8 6.6 2.7 10 2.7 6.9 0 13.6-3.6 17.3-10l24.6-42.5c38.3 19.1 80.3 30.4 124 33.1v49.3c0 11 9 20 20 20s20-9 20-20v-49.3c43.6-2.6 85.6-13.9 124-33.1l24.6 42.5c3.7 6.4 10.4 10 17.3 10 3.4 0 6.8-0.9 10-2.7 9.6-5.5 12.8-17.8 7.3-27.3L691 781.4c17.7-11.8 34.4-25.5 49.8-40.9 15.4-15.4 29.1-32.1 40.9-49.8l42.6 24.6c3.1 1.8 6.6 2.7 10 2.7 6.9 0 13.6-3.6 17.3-10 5.5-9.6 2.2-21.8-7.3-27.3L801.8 656c19.1-38.3 30.4-80.3 33.1-124h49.3c11 0 20-9 20-20-0.1-11-9.1-19.9-20.1-19.9zM766.9 635.9l-25.1-14.5c-9.6-5.5-21.8-2.2-27.3 7.3s-2.2 21.8 7.3 27.3l25 14.5c-20.3 29.9-46.1 55.7-76 76l-14.5-25c-5.5-9.6-17.8-12.8-27.3-7.3-9.6 5.5-12.8 17.8-7.3 27.3l14.5 25.1c-31.8 15.5-66.8 25.3-103.8 27.8v-29c0-11-9-20-20-20s-20 9-20 20v29c-37-2.6-72.1-12.3-103.8-27.8l14.5-25.1c5.5-9.6 2.2-21.8-7.3-27.3-9.6-5.5-21.8-2.2-27.3 7.3l-14.5 25c-29.9-20.3-55.7-46.1-76-76l25-14.5c9.6-5.5 12.8-17.8 7.3-27.3-5.5-9.6-17.8-12.8-27.3-7.3l-25.1 14.5c-15.5-31.8-25.3-66.8-27.8-103.8h29c11 0 20-9 20-20s-9-20-20-20h-29c2.6-37 12.3-72.1 27.8-103.8l25.1 14.5c3.1 1.8 6.6 2.7 10 2.7 6.9 0 13.6-3.6 17.3-10 5.5-9.6 2.2-21.8-7.3-27.3l-25-14.5c20.3-29.9 46.1-55.7 76-76l14.5 25c3.7 6.4 10.4 10 17.3 10 3.4 0 6.8-0.9 10-2.7 9.6-5.5 12.8-17.8 7.3-27.3l-14.5-25.1c31.8-15.5 66.8-25.3 103.8-27.8v29c0 11 9 20 20 20s20-9 20-20v-29c37 2.6 72.1 12.3 103.8 27.8l-14.5 25.1c-5.5 9.6-2.2 21.8 7.3 27.3 3.1 1.8 6.6 2.7 10 2.7 6.9 0 13.6-3.6 17.3-10l14.5-25c29.9 20.3 55.7 46.1 76 76l-25 14.5c-9.6 5.5-12.8 17.8-7.3 27.3 3.7 6.4 10.4 10 17.3 10 3.4 0 6.8-0.9 10-2.7l25.1-14.5c15.5 31.8 25.3 66.8 27.8 103.8h-29c-11 0-20 9-20 20s9 20 20 20h29c-2.6 37-12.3 72-27.8 103.8z" /></svg>