<?xml version="1.0" standalone="no"?><!DOCTYPE svg PUBLIC "-//W3C//DTD SVG 1.1//EN" "http://www.w3.org/Graphics/SVG/1.1/DTD/svg11.dtd"><svg class="icon" width="64px" height="64.00px" viewBox="0 0 1024 1024" version="1.1" xmlns="http://www.w3.org/2000/svg"><path d="M379.3 183.3c0-66 53.5-119.5 119.5-119.5s119.5 53.5 119.5 119.5-53.5 119.5-119.5 119.5-119.5-53.6-119.5-119.5z m253.5 104.9c0-66 53.5-119.5 119.5-119.5s119.5 53.5 119.5 119.5-53.5 119.5-119.5 119.5-119.5-53.5-119.5-119.5z m164.7 253.5c0-33 26.7-59.7 59.7-59.7s59.7 26.7 59.7 59.7-26.7 59.7-59.7 59.7-59.7-26.7-59.7-59.7z m-105 253.4c0-33 26.7-59.7 59.7-59.7s59.7 26.7 59.7 59.7-26.7 59.7-59.7 59.7-59.7-26.7-59.7-59.7z m-253.4 105c0-33 26.7-59.7 59.7-59.7s59.7 26.7 59.7 59.7-26.7 59.7-59.7 59.7-59.7-26.7-59.7-59.7z m-253.4-105c0-33 26.7-59.7 59.7-59.7s59.7 26.7 59.7 59.7-26.7 59.7-59.7 59.7-59.7-26.7-59.7-59.7z m-29.9-506.9c0-49.5 40.1-89.6 89.6-89.6s89.6 40.1 89.6 89.6c0 49.5-40.1 89.6-89.6 89.6s-89.6-40.1-89.6-89.6zM73.2 541.7c0-37.1 30.1-67.2 67.2-67.2s67.2 30.1 67.2 67.2-30.1 67.2-67.2 67.2-67.2-30.1-67.2-67.2z" fill="#1E315B" /></svg>