<?xml version="1.0" standalone="no"?><!DOCTYPE svg PUBLIC "-//W3C//DTD SVG 1.1//EN" "http://www.w3.org/Graphics/SVG/1.1/DTD/svg11.dtd"><svg class="icon" width="64px" height="64.00px" viewBox="0 0 1024 1024" version="1.1" xmlns="http://www.w3.org/2000/svg"><path d="M839.560143 442.432542a348.901672 348.901672 0 0 0-61.437737-146.749962 22.176867 22.176867 0 0 1 0-28.563158l91.725463-87.845185a22.176867 22.176867 0 0 1 32.41649 0 459.381812 459.381812 0 0 1 108.755572 255.90973 22.608009 22.608009 0 0 1-22.608009 24.305631h-127.968338a21.745725 21.745725 0 0 1-20.883441-17.057056z m-816.825486 18.754677h127.968338a21.314583 21.314583 0 0 0 20.883441-19.185819 306.676701 306.676701 0 0 1 251.248007-271.269164 20.479246 20.479246 0 0 0 17.488198-20.479245V22.284653a21.745725 21.745725 0 0 0-23.901435-22.176867A480.2922 480.2922 0 0 0 0.988932 437.312731a21.745725 21.745725 0 0 0 21.745725 23.874488z m118.159857 78.898988H36.800665A34.114112 34.114112 0 0 0 2.7135 576.787171C29.55209 845.927571 186.94587 994.321262 404.483961 1023.800597a34.114112 34.114112 0 0 0 37.536301-33.68297v-106.222613a34.545254 34.545254 0 0 0-27.72782-30.718868 334.835664 334.835664 0 0 1-240.1461-281.508786 34.114112 34.114112 0 0 0-33.251828-31.581153zM838.697858 108.432216a433.782755 433.782755 0 0 0-247.367728-108.32443 22.176867 22.176867 0 0 0-23.901435 21.314583v127.995284c0.107786 10.509087 7.895288 19.40139 18.323535 20.883441a335.671002 335.671002 0 0 1 143.327772 61.437737c7.976127 7.248575 20.182835 7.248575 28.158963 0l85.285279-90.458983a21.314583 21.314583 0 0 0-3.826386-32.847632z m-63.5665 331.44042a219.235712 219.235712 0 0 0-52.868789-96.414132 17.91934 17.91934 0 0 0-26.461341 0l-104.498044 95.551848c4.688669 7.275521 8.083913 22.176867 10.670764 22.176867h154.833875a17.91934 17.91934 0 0 0 18.323535-21.314583z m-334.808717-26.030199V261.999611a26.030199 26.030199 0 0 0-32.874579-24.736773 232.897525 232.897525 0 0 0-170.570557 194.067797 25.599057 25.599057 0 0 0 25.140968 29.856584h146.31882a88.303273 88.303273 0 0 0 31.985348-47.344782z m-31.581153 127.968338H264.147237a25.167915 25.167915 0 0 0-25.167915 29.425443c19.212766 99.809375 75.934887 188.947986 170.62445 215.840469a25.599057 25.599057 0 0 0 33.68297-23.901436v-172.753214c-19.185819-11.937244-28.9943-50.33583-34.545254-50.33583v1.724568z m578.80815-17.515144a23.443347 23.443347 0 0 1 23.443346 25.599057c-23.847542 280.242307-192.343229 447.87571-419.6898 473.905909a23.874489 23.874489 0 0 1-26.003253-23.470293v-145.025394c0-2.559906 48.611262-8.946197 72.485751-17.057056a101.075855 101.075855 0 0 1-37.940497-56.317925c-23.443347 6.413237-34.545254 7.679717-34.545254 9.835427V587.430989c17.892393-11.533049 29.856584-5.982095 37.105159-46.509444 1.8593-11.048014 11.398317-19.131927 22.60801-19.185819h154.833874c-2.991048 61.841932-2.559906 42.656113-7.679717 59.282026a151.438631 151.438631 0 0 1 55.428695 30.718868c9.269553-21.584047 14.20074-44.784876 14.524096-68.255169a23.443347 23.443347 0 0 1 23.012205-21.745725l122.417385 2.559905z m-175.717316 213.280564a92.964996 92.964996 0 1 0-92.5608 86.605651 91.267374 91.267374 0 0 0 92.5608-90.000895v3.395244zM680.414848 304.655723a280.242307 280.242307 0 0 0-118.132911-53.326877 9.808481 9.808481 0 0 0-11.101907 9.808481V409.58491l22.634956 9.808481 107.462146-100.240518a9.377339 9.377339 0 0 0-0.862284-14.49715z" fill="#333333" /></svg>