<?xml version="1.0" standalone="no"?><!DOCTYPE svg PUBLIC "-//W3C//DTD SVG 1.1//EN" "http://www.w3.org/Graphics/SVG/1.1/DTD/svg11.dtd"><svg class="icon" width="64px" height="64.00px" viewBox="0 0 1024 1024" version="1.1" xmlns="http://www.w3.org/2000/svg"><path d="M112.667547 280.296871c0 0 44.284599-21.601994 78.847789-21.601994 33.483602 0 95.049796 28.082592 110.171192 29.163203 14.040784 1.079588 82.0886-29.163203 110.171192-29.163203 29.163203 0 77.768201 27.003004 100.450806 29.163203 22.682605 2.160199 68.046792-27.003004 105.84977-29.163203 37.804001-2.160199 66.967204 29.163203 95.049796 29.163203 28.082592 0 75.608002-29.163203 120.973212-29.163203 44.283576-1.079588 69.127404 29.163203 90.729397 23.762193 2.159176 14.041808 0 63.726394 0 63.726394s-68.047816-32.404014-89.648786-31.323403c-21.601994 1.079588-77.768201 31.323403-106.931405 31.323403-29.16218 0-73.446779-19.442818-100.449783-19.442818s-81.007989 27.003004-109.090581 25.923416c-27.003004-1.080611-62.646805-24.842805-96.129384-24.842805s-77.768201 25.922393-109.090581 24.842805c-31.323403-1.080611-50.765197-27.003004-92.889597-24.842805-42.1244 2.160199-100.449783 28.082592-108.010993 24.842805C112.667547 329.981457 112.667547 280.296871 112.667547 280.296871L112.667547 280.296871zM112.667547 404.508847c0 0 44.284599-21.601994 78.847789-21.601994 33.483602 0 95.049796 28.082592 110.171192 29.163203 14.040784 1.080611 82.0886-29.163203 110.171192-29.163203 29.163203 0 77.768201 27.003004 100.450806 29.163203 22.682605 2.160199 68.046792-27.003004 105.84977-29.163203 37.804001-2.160199 66.967204 29.163203 95.049796 29.163203 28.082592 0 75.608002-28.082592 120.973212-29.163203 44.283576-1.080611 69.127404 29.163203 90.729397 23.762193 2.159176 14.041808 0 63.726394 0 63.726394s-68.047816-32.402991-89.648786-31.323403c-21.601994 1.080611-77.768201 31.323403-106.931405 31.323403-29.16218 0-73.446779-19.441794-100.449783-19.441794s-81.007989 27.003004-109.090581 25.922393c-27.003004-1.079588-62.646805-24.841781-96.129384-24.841781s-77.768201 25.922393-109.090581 24.841781c-31.323403-1.079588-50.765197-27.003004-92.889597-24.841781-42.1244 2.160199-100.449783 28.082592-108.010993 24.841781C112.667547 454.194456 112.667547 404.508847 112.667547 404.508847L112.667547 404.508847zM112.667547 528.721847c0 0 44.284599-21.601994 78.847789-21.601994 33.483602 0 95.049796 28.082592 110.171192 29.163203 14.040784 1.080611 82.0886-29.163203 110.171192-29.163203 29.163203 0 77.768201 27.003004 100.450806 29.163203s68.046792-27.003004 105.84977-29.163203c37.804001-2.160199 66.967204 29.163203 95.049796 29.163203 28.082592 0 75.608002-28.082592 120.973212-29.163203 44.283576-1.079588 69.127404 29.163203 90.729397 23.763217 2.159176 14.041808 0 63.72537 0 63.72537s-68.047816-32.402991-89.648786-31.322379c-21.601994 1.080611-77.768201 31.322379-106.931405 31.322379-29.16218 0-73.446779-19.441794-100.449783-19.441794s-81.007989 27.003004-109.090581 25.922393c-27.003004-1.079588-62.646805-24.841781-96.129384-24.841781s-77.768201 25.922393-109.090581 24.841781c-31.323403-1.079588-50.765197-27.003004-92.889597-24.841781-42.1244 2.160199-100.449783 28.082592-108.010993 24.841781C112.667547 578.407456 112.667547 528.721847 112.667547 528.721847L112.667547 528.721847zM112.667547 652.934846c0 0 44.284599-21.601994 78.847789-21.601994 33.483602 0 95.049796 28.082592 110.171192 29.163203 14.040784 1.080611 82.0886-29.163203 110.171192-29.163203 29.163203 0 77.768201 27.003004 100.450806 29.163203 22.682605 2.159176 68.046792-27.003004 105.84977-29.163203 37.804001-2.160199 66.967204 29.163203 95.049796 29.163203 28.082592 0 75.608002-28.082592 120.973212-29.163203 44.283576-1.080611 69.127404 29.163203 90.729397 23.763217 2.159176 14.041808 0 63.72537 0 63.72537s-68.047816-32.402991-89.648786-31.322379c-21.601994 1.080611-77.768201 31.322379-106.931405 31.322379-29.16218 0-73.446779-19.441794-100.449783-19.441794s-81.007989 27.003004-109.090581 25.922393c-27.003004-1.080611-62.646805-24.841781-96.129384-24.841781s-77.768201 25.922393-109.090581 24.841781-50.765197-27.003004-92.889597-24.841781c-42.1244 2.160199-100.449783 28.082592-108.010993 24.841781C112.667547 703.69902 112.667547 652.934846 112.667547 652.934846z" /></svg>