<?xml version="1.0" standalone="no"?><!DOCTYPE svg PUBLIC "-//W3C//DTD SVG 1.1//EN" "http://www.w3.org/Graphics/SVG/1.1/DTD/svg11.dtd"><svg class="icon" width="64px" height="64.00px" viewBox="0 0 1024 1024" version="1.1" xmlns="http://www.w3.org/2000/svg"><path d="M195.31264 856.7552h201.87136v-325.92896H195.31264v325.92896z m53.57056-281.93792h99.80416v237.39392H248.8832v-237.39392zM955.42272 34.048H217.30816c-29.32736 0-52.44416 23.68-52.44416 52.43904v69.36064H86.48704c-29.32224 0-52.43904 23.68-52.43904 52.43904v747.14624c0 29.32224 23.68 52.43392 52.43904 52.43392h737.5616c29.32224 0 58.74176-25.84064 58.74176-54.59968v-67.19488h72.64256c29.33248 0 52.44416-23.68 52.44416-52.43392V86.49216c0.55296-28.75904-23.12192-52.44416-52.4544-52.44416z m-139.83232 866.68288c0 19.17952-21.43744 40.60672-40.60672 40.60672h-634.368c-19.16928 0-40.6016-21.4272-40.6016-40.60672V258.47296c0.85504-25.10848 21.43232-40.6016 40.6016-40.6016h634.368c26.97728-0.47616 40.60672 21.4272 40.60672 40.6016v642.25792z m125.73696-117.27872c0 19.1744-21.42208 40.59648-40.59648 40.59648h-17.9456l-0.9472-616.97536c0-29.32224-28.47744-51.21536-57.23136-51.21536H232.52992v-14.09536c-1.02912-30.55616 14.47936-40.41216 34.96448-40.6016h633.23648c23.40352 0.18944 42.20416 18.98496 40.59648 40.6016v641.6896z m-746.01472-294.912h527.23712V314.29632H195.31264v174.24384z m47.93344-129.69472h430.7968v85.7088h-430.7968v-85.7088z m210.88768 497.90976h268.416v-325.92896H454.13376v325.92896z m47.93344-281.93792h171.97568v237.39392H502.0672v-237.39392z" fill="#999999" /></svg>