<svg id="图层_1" data-name="图层 1" xmlns="http://www.w3.org/2000/svg" viewBox="0 0 59 39.48"><defs><style>.cls-1{fill:none;stroke:#000;stroke-linecap:round;stroke-miterlimit:10;stroke-width:3px;}</style></defs><title>4.2.7</title><path class="cls-1" d="M4,42a28,28,0,0,1,56,0" transform="translate(-2.5 -12.5)"/><path d="M32,26a8.63,8.63,0,0,0-8.63,8.63,8.76,8.76,0,0,0,.2,1.86C24,40.1,32,52,32,52S40,40.1,40.4,36.49a8.76,8.76,0,0,0,.21-1.86A8.64,8.64,0,0,0,32,26Zm0,13.08a4.45,4.45,0,1,1,4.44-4.45A4.44,4.44,0,0,1,32,39.08Z" transform="translate(-2.5 -12.5)"/></svg>