<?xml version="1.0" standalone="no"?><!DOCTYPE svg PUBLIC "-//W3C//DTD SVG 1.1//EN" "http://www.w3.org/Graphics/SVG/1.1/DTD/svg11.dtd"><svg class="icon" width="64px" height="64.00px" viewBox="0 0 1024 1024" version="1.1" xmlns="http://www.w3.org/2000/svg"><path d="M512 512m-102.4 0a102.4 102.4 0 1 0 204.8 0 102.4 102.4 0 1 0-204.8 0Z"  /><path d="M998.4 486.4h-76.8c-12.8-204.8-179.2-371.2-384-384V25.6C537.6 12.8 524.8 0 512 0s-25.6 12.8-25.6 25.6v76.8c-204.8 12.8-371.2 179.2-384 384H25.6c-12.8 0-25.6 12.8-25.6 25.6s12.8 25.6 25.6 25.6h76.8c12.8 204.8 179.2 371.2 384 384v76.8c0 12.8 12.8 25.6 25.6 25.6s25.6-12.8 25.6-25.6v-76.8c204.8-12.8 371.2-179.2 384-384h76.8c12.8 0 25.6-12.8 25.6-25.6s-12.8-25.6-25.6-25.6z m-486.4 384c-198.4 0-358.4-160-358.4-358.4S313.6 153.6 512 153.6s358.4 160 358.4 358.4-160 358.4-358.4 358.4z"  /></svg>