<?xml version="1.0" standalone="no"?><!DOCTYPE svg PUBLIC "-//W3C//DTD SVG 1.1//EN" "http://www.w3.org/Graphics/SVG/1.1/DTD/svg11.dtd"><svg class="icon" width="64px" height="64.00px" viewBox="0 0 1024 1024" version="1.1" xmlns="http://www.w3.org/2000/svg"><path d="M440.266747 348.045881c11.93175 0 23.474644-1.651616 34.556027-4.421706l-48.490388-39.705304c-16.924461-13.82589-27.42256-33.410947-29.597085-55.158251-2.185782-21.747303 4.288676-43.033096 18.102287-59.885925 15.564487-19.063171 38.637995-29.996175 63.263859-29.996175 18.868743 0 37.261649 6.584975 51.803853 18.514679l51.52756 42.208311c0.413416-4.421706 0.683569-8.893554 0.683569-13.413498 0-78.341253-63.519686-141.883451-141.849682-141.883451-78.362742 0-141.871171 63.542198-141.871171 141.883451S361.904005 348.045881 440.266747 348.045881z"  /><path d="M762.210134 286.156322c-27.918863 0-54.273091 6.464225-77.940117 17.665335-14.932084 7.072069-28.758997 16.036231-41.126676 26.728758l-142.843312-117.000737c-6.501064-5.344728-14.371312-7.945973-22.196535-7.945973-10.121522 0-20.191878 4.374634-27.095102 12.830213-12.296047 14.968923-10.095939 37.058011 4.89652 49.304939l143.923924 117.8992c-7.484462 14.603603-13.168927 30.264281-16.511046 46.849004-1.772366 8.797363-2.710738 17.884322-3.15997 27.095102l86.385463-47.833425c15.575744-8.614192 33.155121-13.183254 50.916647-13.183254 38.237883 0 73.494874 20.777209 92.024903 54.260811 28.066219 50.699706 9.621125 114.790396-41.068348 142.855592l-75.5333 41.793872c21.397333 8.798387 44.784996 13.730723 69.326948 13.730723 100.794637 0 182.510754-81.718163 182.510754-182.536336C944.719864 367.874485 863.004771 286.156322 762.210134 286.156322z"  /><path d="M552.008714 662.09139l193.774285-107.304911c28.223808-15.601326 38.415938-51.126424 22.805402-79.362512-10.644431-19.24532-30.581506-30.131251-51.128471-30.131251-9.582239 0-19.278065 2.356674-28.234041 7.312546L497.104243 558.963615c-11.067057-12.221346-23.340591-23.313985-36.716226-33.07121-39.631626-28.915563-88.304162-46.192042-141.143601-46.192042-132.527362 0-239.966327 107.450221-239.966327 239.989863 0 132.566248 107.438964 240.005212 239.966327 240.005212 132.552945 0 240.017492-107.438964 240.017492-240.005212 0-2.684132-0.329505-5.306866-0.413416-7.980765C558.287721 694.627411 555.94435 678.057013 552.008714 662.09139zM319.572898 919.710772c-110.391203 0-199.884446-89.493244-199.884446-199.884446s89.493244-199.886493 199.884446-199.886493 199.88547 89.49529 199.88547 199.886493S429.9641 919.710772 319.572898 919.710772z"  /><path d="M319.572898 578.660212c-51.829436 0-93.843318 42.013883-93.843318 93.842295 0 6.936993 0.802272 13.668301 2.224668 20.180622 4.677533 39.267329 91.63093 168.32159 91.63093 168.32159s86.895069-129.126916 91.597161-168.32159c1.433652-6.500041 2.236947-13.242606 2.236947-20.180622C413.418262 620.673072 371.40438 578.660212 319.572898 578.660212zM319.572898 720.761628c-26.657126 0-48.257074-21.603017-48.257074-48.25912 0-26.643823 21.599947-48.25912 48.257074-48.25912 26.643823 0 48.25912 21.615297 48.25912 48.25912C367.832018 699.15861 346.216721 720.761628 319.572898 720.761628z"  /></svg>