<?xml version="1.0" standalone="no"?><!DOCTYPE svg PUBLIC "-//W3C//DTD SVG 1.1//EN" "http://www.w3.org/Graphics/SVG/1.1/DTD/svg11.dtd"><svg class="icon" width="64px" height="64.00px" viewBox="0 0 1024 1024" version="1.1" xmlns="http://www.w3.org/2000/svg"><path d="M471.97082 256.622682 471.97082 494.993674l248.184499 0L471.97082 256.622682z"  /><path d="M527.519973 48.173163c-246.920716 0-447.107037 200.187345-447.107037 447.118294 0 246.944252 200.186322 447.108061 447.107037 447.108061 246.930949 0 447.107037-200.162786 447.107037-447.108061C974.625988 248.359484 774.449899 48.173163 527.519973 48.173163zM791.332405 547.195593 471.97082 547.195593c0 0 0 256.727059 0 258.539334 0 15.712867-12.571317 28.450982-28.28316 28.450982-15.711843 0-28.449959-12.738116-28.449959-28.450982 0-1.834788 0-591.053474 0-591.214133 0-20.307512 16.58063-36.770462 36.887119-36.770462 10.743692 0 19.764136 5.248537 27.131941 11.95631 0.391926 0.350994 323.257312 305.506019 323.257312 305.506019 9.210779 9.586332 15.522532 17.203824 15.628956 25.00858C818.399877 538.513864 805.95545 547.195593 791.332405 547.195593z"  /></svg>