<?xml version="1.0" standalone="no"?><!DOCTYPE svg PUBLIC "-//W3C//DTD SVG 1.1//EN" "http://www.w3.org/Graphics/SVG/1.1/DTD/svg11.dtd"><svg class="icon" width="64px" height="64.00px" viewBox="0 0 1024 1024" version="1.1" xmlns="http://www.w3.org/2000/svg"><path d="M479.25676 189.706643c-7.367805-6.707772-16.388249-11.95631-27.131941-11.95631-20.306488 0-36.887119 16.46295-36.887119 36.770462 0 0.160659 0 589.379345 0 591.214133 0 15.712867 12.738116 28.450982 28.449959 28.450982s28.28316-12.738116 28.28316-28.450982c0-1.812275 0-258.539334 0-258.539334l319.361585 0c14.623046 0 27.067472-8.68173 26.810622-26.974351-0.106424-7.804756-6.418176-15.422248-15.628956-25.00858C802.514071 495.212662 479.648686 190.057637 479.25676 189.706643z"  /><path d="M499.090481 62.394049c-247.112074 0-447.434495 200.322421-447.434495 447.437565 0 247.106957 200.323445 447.442682 447.434495 447.442682 247.114121 0 447.436542-200.335724 447.436542-447.442682C946.527023 262.71647 746.204601 62.394049 499.090481 62.394049zM499.090481 912.525116c-222.394113 0-402.693502-180.294272-402.693502-402.693502 0-222.407416 180.299389-402.693502 402.693502-402.693502 222.399229 0 402.697595 180.286086 402.697595 402.693502C901.788076 732.228797 721.48971 912.525116 499.090481 912.525116z"  /></svg>