<svg id="图层_1" data-name="图层 1" xmlns="http://www.w3.org/2000/svg" viewBox="0 0 59.04 47.48"><title>4.2.6</title><path d="M29.58,15.6A2,2,0,0,0,28.21,15a1.87,1.87,0,0,0-1.87,1.87v30a1.44,1.44,0,1,0,2.87,0V33.71H45.39a1.26,1.26,0,0,0,1.36-1.36c0-.4-.33-.79-.79-1.27Z" transform="translate(-2.67 -8.13)"/><path d="M32.19,8.12c-16.3,0-29.52,10.63-29.52,23.74S15.89,55.6,32.19,55.6,61.71,45,61.71,31.86,48.5,8.12,32.19,8.12Zm0,45.11c-14.67,0-26.56-9.57-26.56-21.37S17.52,10.5,32.19,10.5s26.57,9.56,26.57,21.36S46.87,53.23,32.19,53.23Z" transform="translate(-2.67 -8.13)"/></svg>