<?xml version="1.0" standalone="no"?><!DOCTYPE svg PUBLIC "-//W3C//DTD SVG 1.1//EN" "http://www.w3.org/Graphics/SVG/1.1/DTD/svg11.dtd"><svg class="icon" width="64px" height="64.00px" viewBox="0 0 1024 1024" version="1.1" xmlns="http://www.w3.org/2000/svg"><path d="M706.56 810.666667H308.224c-17.749333 0-32.085333-14.336-32.085333-32.085334 0-84.309333 39.594667-207.189333 112.981333-266.581333-73.386667-59.392-112.981333-182.613333-112.981333-266.581333 0-17.749333 14.336-32.085333 32.085333-32.085334H706.56c17.749333 0 32.085333 14.336 32.085333 32.085334 0 83.626667-33.450667 207.189333-104.789333 266.581333 70.997333 59.392 104.789333 182.954667 104.789333 266.581333 0 17.749333-14.336 32.085333-32.085333 32.085334z m-364.202667-64.170667h330.410667c-9.216-91.136-54.954667-189.781333-114.346667-203.434667-14.677333-3.413333-24.917333-16.384-24.917333-31.402666s10.24-27.989333 24.917333-31.402667c59.392-13.312 105.472-111.957333 114.346667-203.434667h-330.410667c10.581333 88.064 61.44 189.44 123.221334 203.434667 14.677333 3.413333 24.917333 16.384 24.917333 31.402667s-10.24 27.989333-24.917333 31.402666c-61.781333 14.336-112.64 115.370667-123.221334 203.434667z m240.64-61.44c0-17.749333-14.336-32.085333-32.085333-32.085333h-83.968c-17.749333 0-32.085333 14.336-32.085333 32.085333s14.336 32.085333 32.085333 32.085333h83.968c17.749333 0 32.085333-14.677333 32.085333-32.085333zM512 1024C229.717333 1024 0 794.282667 0 512S229.717333 0 512 0s512 229.717333 512 512-229.717333 512-512 512z m0-959.829333C265.216 64.170667 64.170667 264.874667 64.170667 512S265.216 959.829333 512 959.829333 959.829333 758.784 959.829333 512 758.784 64.170667 512 64.170667z"  /></svg>