<?xml version="1.0" standalone="no"?><!DOCTYPE svg PUBLIC "-//W3C//DTD SVG 1.1//EN" "http://www.w3.org/Graphics/SVG/1.1/DTD/svg11.dtd"><svg class="icon" width="64px" height="64.00px" viewBox="0 0 1024 1024" version="1.1" xmlns="http://www.w3.org/2000/svg"><path d="M377.6 179.2c-25.6 0-44.8 19.2-44.8 44.8s19.2 44.8 44.8 44.8h486.4c25.6 0 44.8-19.2 44.8-44.8s-19.2-44.8-44.8-44.8H377.6zM377.6 556.8h486.4c25.6 0 44.8-19.2 44.8-44.8s-19.2-44.8-44.8-44.8H377.6c-25.6 0-44.8 19.2-44.8 44.8s19.2 44.8 44.8 44.8zM377.6 838.4h486.4c25.6 0 44.8-19.2 44.8-44.8s-19.2-44.8-44.8-44.8H377.6c-25.6 0-44.8 19.2-44.8 44.8s19.2 44.8 44.8 44.8zM198.4 326.4h6.4c57.6 0 102.4-44.8 102.4-102.4 0-57.6-44.8-102.4-102.4-102.4h-6.4c-57.6 0-102.4 44.8-102.4 102.4 0 57.6 44.8 102.4 102.4 102.4z m0-140.8h6.4c19.2 0 38.4 19.2 38.4 38.4s-19.2 38.4-38.4 38.4h-6.4c-19.2 0-38.4-19.2-38.4-38.4s19.2-38.4 38.4-38.4zM198.4 614.4h6.4c57.6 0 102.4-44.8 102.4-102.4s-44.8-102.4-102.4-102.4h-6.4c-57.6 0-102.4 44.8-102.4 102.4s44.8 102.4 102.4 102.4z m0-140.8h6.4c19.2 0 38.4 19.2 38.4 38.4s-19.2 38.4-38.4 38.4h-6.4c-19.2 0-38.4-19.2-38.4-38.4s19.2-38.4 38.4-38.4zM198.4 896h6.4c57.6 0 102.4-44.8 102.4-102.4 0-57.6-44.8-102.4-102.4-102.4h-6.4c-57.6 0-102.4 44.8-102.4 102.4 0 57.6 44.8 102.4 102.4 102.4z m0-140.8h6.4c19.2 0 38.4 19.2 38.4 38.4s-19.2 38.4-38.4 38.4h-6.4c-19.2 0-38.4-19.2-38.4-38.4s19.2-38.4 38.4-38.4z"  /></svg>