<?xml version="1.0" standalone="no"?><!DOCTYPE svg PUBLIC "-//W3C//DTD SVG 1.1//EN" "http://www.w3.org/Graphics/SVG/1.1/DTD/svg11.dtd"><svg class="icon" width="64px" height="64.00px" viewBox="0 0 1024 1024" version="1.1" xmlns="http://www.w3.org/2000/svg"><path d="M512 1024C230.4 1024 0 793.6 0 512S230.4 0 512 0s512 230.4 512 512-230.4 512-512 512z m230.4-742.4c-12.8-12.8-35.2-12.8-48 0L512 464l-182.4-182.4c-12.8-12.8-35.2-12.8-48 0-12.8 12.8-12.8 35.2 0 48l182.4 182.4-182.4 182.4c-12.8 12.8-12.8 35.2 0 48 12.8 12.8 35.2 12.8 48 0l182.4-182.4 182.4 182.4c12.8 12.8 35.2 12.8 48 0 12.8-12.8 12.8-35.2 0-48L560 512l182.4-182.4c12.8-16 12.8-35.2 0-48z m0 0"  /></svg>