<?xml version="1.0" standalone="no"?><!DOCTYPE svg PUBLIC "-//W3C//DTD SVG 1.1//EN" "http://www.w3.org/Graphics/SVG/1.1/DTD/svg11.dtd"><svg class="icon" width="64px" height="64.00px" viewBox="0 0 1024 1024" version="1.1" xmlns="http://www.w3.org/2000/svg"><path d="M106.8 779.8l76.6-679.2 50.2 7.3L157 787.1l-50.2-7.3z m0 0"  /><path d="M725.1 505.8l-2.6 2.6v190.7h195.9c-0.1-105.7-87.7-193.3-193.3-193.3z m38 152.7V549c54.8 11.4 98.1 54.8 109.5 109.5H763.1z m0 0M662.5 477.4l-45.8-376.3-54.1 7.7 45.8 376.3 54.1-7.7z m0 0"  /><path d="M797.5 734.1c0.2 2.6 0.2 5.3 0.2 8 0 72.1-58.5 130.6-130.6 130.6s-130.6-58.5-130.6-130.6S595 611.5 667.1 611.5c7 0 13.9 0.6 20.6 1.6v-54.6c-6.8-0.8-13.7-1.1-20.6-1.1-102 0-184.7 82.7-184.7 184.7s82.7 184.7 184.7 184.7 184.7-82.7 184.7-184.7c0-2.7-0.1-5.3-0.2-8h-54.1zM550.4 340.1l25.4-30.2-63.8-53.6h-0.1l-53.6 63.8 30.2 25.4 10.3-12.3 20.3 234.4 39.3-3.4-20.3-234.4zM240.9 585.6L211 611.5l54.7 62.9h0.1l62.9-54.6-25.8-29.8-12.2 10.5 16.7-234.7-39.4-2.7-16.6 234.6zM420.8 779.6h-53.4l53-121.6c17.2-39.5 17.7-84.4 1.3-124.3l-83-202.1c-13.8-33.6-15.7-70.9-5.4-105.8l34.1-115.1h53.4l-33.7 111.9c-10.5 35-8.7 72.5 5.1 106.3l83.3 203.7c16.2 39.7 15.8 84.2-1.2 123.6l-53.5 123.4z"  /></svg>