<svg id="图层_1" data-name="图层 1" xmlns="http://www.w3.org/2000/svg" viewBox="0 0 45.98 55.24"><title>垂直净距分析</title><rect x="30.11" y="2.55" width="3.89" height="45.98" transform="translate(-2.55 53.34) rotate(-90)"/><rect x="25.07" y="14.32" width="13.97" height="4.58" transform="translate(6.38 44.41) rotate(-90)"/><path d="M28.08,11.83H36A1.59,1.59,0,0,0,37.2,9.17l-4-4.39a1.59,1.59,0,0,0-2.36,0l-4,4.39A1.59,1.59,0,0,0,28.08,11.83Z" transform="translate(-9.06 -4.26)"/><rect x="30.11" y="16.33" width="3.89" height="45.98" transform="translate(62.31 3.01) rotate(90)"/><rect x="25.07" y="44.86" width="13.97" height="4.58" transform="translate(70.14 10.84) rotate(90)"/><path d="M36,51.92H28.08a1.59,1.59,0,0,0-1.18,2.66l4,4.4a1.6,1.6,0,0,0,2.36,0l4-4.4A1.59,1.59,0,0,0,36,51.92Z" transform="translate(-9.06 -4.26)"/></svg>