<svg id="图层_1" data-name="图层 1" xmlns="http://www.w3.org/2000/svg" viewBox="0 0 61.83 43.88"><title>挖方分析</title><path d="M1.18,27.35c-.45-2.14.73-3.73,2.27-5.06a.19.19,0,0,1,.07-.06.53.53,0,0,1,.75.16l1.47,2.24a.42.42,0,0,1,.09.24L5.3,25l.53-.08A3.62,3.62,0,0,0,7,27.26a6.26,6.26,0,0,0,2.71,1.1.54.54,0,0,1,.33.19.56.56,0,0,1-.09.77l-.34-.43.34.43a5.86,5.86,0,0,1-6.21,1.12,4.38,4.38,0,0,1-1.64-1.26,4.16,4.16,0,0,1-.91-1.83Z" transform="translate(-1.09 -10.06)"/><path d="M58.78,42.42s0,0-.06-.07a6.8,6.8,0,0,0-4.81-2H29.08A6.75,6.75,0,0,0,24.2,51.84a.15.15,0,0,0,.07.1,6.79,6.79,0,0,0,4.81,2H53.91A6.84,6.84,0,0,0,58.62,52l.1-.1a6.85,6.85,0,0,0,2-4.81A6.73,6.73,0,0,0,58.78,42.42ZM57.3,50l-.07.07a4,4,0,0,1-2.79,1.14H28.54A4,4,0,0,1,25.68,50a.07.07,0,0,1-.07-.07,4,4,0,0,1-1.14-2.79,4,4,0,0,1,1.21-2.86,4,4,0,0,1,2.86-1.18h25.9a4,4,0,0,1,2.86,1.18l.07.06a4.07,4.07,0,0,1,1.14,2.8A4,4,0,0,1,57.3,50Z" transform="translate(-1.09 -10.06)"/><path d="M52.23,44.71a2.42,2.42,0,1,1,0,4.84,2.42,2.42,0,1,1,0-4.84Zm0,0" transform="translate(-1.09 -10.06)"/><path d="M45.06,44.71a2.42,2.42,0,1,1-2.42,2.42,2.44,2.44,0,0,1,2.42-2.42Zm0,0" transform="translate(-1.09 -10.06)"/><path d="M37.92,44.71a2.42,2.42,0,1,1,0,4.84,2.42,2.42,0,0,1,0-4.84Zm0,0" transform="translate(-1.09 -10.06)"/><path d="M30.76,44.71a2.42,2.42,0,1,1-2.42,2.42,2.42,2.42,0,0,1,2.42-2.42Zm0,0" transform="translate(-1.09 -10.06)"/><path d="M62.59,26.69c-.65-3-2.26-5.36-4.94-5.36H52.26c0-1.35,0-2.74,0-4.13,0-1.91.07-3.81,0-5.68a1.45,1.45,0,0,0-1.48-1.42h-.07c-2.75-.07-6.42,0-9.75,0H36.7a1.4,1.4,0,0,0-1.29.8C33.5,14,31,18.3,28.92,22c-.46.77-.87,1.52-1.29,2.26-1-1.32-2-2.84-3.14-4.36-1.64-2.32-3.32-4.62-4.45-6.17-1.29-1.71-2.58-2.48-4-2.35s-2.58,1-3.93,2.55L4.54,21.4c.1,2.07,3,4.15,3.69,4.07,1.41-.17,6.13-7.39,7.85-5.81,1.08,1,9.48,16.46,9.48,16.46a5.74,5.74,0,0,0,2.22,1.65c9.92.16,20,0,29.87,0,2.62,0,4.26-1.43,4.91-4.52a15.45,15.45,0,0,0,.35-3.3A17.16,17.16,0,0,0,62.59,26.69Zm-27.8-5.36,3.52-6.23a1.48,1.48,0,0,1,1.33-.87h6.55a1.46,1.46,0,0,1,1.45,1.45V22a1.45,1.45,0,0,1-1.45,1.46H36.05a1.5,1.5,0,0,1-.71-.2A1.44,1.44,0,0,1,34.79,21.33ZM56.71,33.55h-25a2.27,2.27,0,0,1,0-4.54H56.71a2.27,2.27,0,0,1,0,4.54Z" transform="translate(-1.09 -10.06)"/></svg>