<svg id="图层_1" data-name="图层 1" xmlns="http://www.w3.org/2000/svg" viewBox="0 0 44.34 59.25"><defs><style>.cls-1{fill:none;stroke:#000;stroke-linecap:round;stroke-linejoin:round;stroke-width:3px;}</style></defs><title>横断面分析</title><path class="cls-1" d="M27.71,37.58,11.24,52.67a7.58,7.58,0,0,0,7.58,7.58H45a7.58,7.58,0,0,0,7.58-7.58V32.92l-18,18" transform="translate(-9.74 -2.5)"/><path class="cls-1" d="M37.62,30.32l15-12.95V11.3A7.45,7.45,0,0,0,45,4H18.82a7.44,7.44,0,0,0-7.58,7.3v19L28.49,13.71" transform="translate(-9.74 -2.5)"/><polyline class="cls-1" points="13.32 34.38 20.22 32.9 18.17 38.95"/><polyline class="cls-1" points="33.08 27.5 26.17 28.98 28.23 22.93"/></svg>