<svg id="图层_1" data-name="图层 1" xmlns="http://www.w3.org/2000/svg" viewBox="0 0 50.1 54.75"><title>水平净距分析</title><rect x="29.04" width="3.53" height="54.75"/><rect x="32.56" y="25.3" width="12.67" height="4.16"/><path d="M50.75,28.77V36a1.44,1.44,0,0,0,2.41,1.07l4-3.6a1.46,1.46,0,0,0,0-2.15l-4-3.6A1.44,1.44,0,0,0,50.75,28.77Z" transform="translate(-7.52 -5)"/><rect x="24.06" y="5" width="3.53" height="54.75" transform="translate(44.12 59.75) rotate(-180)"/><rect x="12.39" y="30.3" width="12.67" height="4.16" transform="translate(29.93 59.75) rotate(180)"/><path d="M14.39,36V28.77A1.44,1.44,0,0,0,12,27.7L8,31.3a1.44,1.44,0,0,0,0,2.15l4,3.6A1.44,1.44,0,0,0,14.39,36Z" transform="translate(-7.52 -5)"/></svg>