<svg id="图层_1" data-name="图层 1" xmlns="http://www.w3.org/2000/svg" viewBox="0 0 57.48 41.43"><title>流向分析</title><path d="M10,19.19a14.3,14.3,0,0,1,6-3.08c4.85-1.21,9.92-.05,15.07,3.45a24.42,24.42,0,0,0,13.67,4.59h.14a21.85,21.85,0,0,0,9-2,.72.72,0,0,1,1,.63l.33,1.36s.14.89.74.87,1-.91,1-.91l3.82-7.42a.71.71,0,0,0-.59-1.09l-8.72-.31a.73.73,0,0,0-.45,1.33l1,.7A.73.73,0,0,1,52,18.59c-3.87,1.7-10.57,3-18.56-2.44A25.67,25.67,0,0,0,23,11.8a19.57,19.57,0,0,0-8.31.47,19.11,19.11,0,0,0-7.5,3.94,2.06,2.06,0,1,0,2.85,3Z" transform="translate(-3.5 -11.56)"/><path d="M55.51,30.39c-.39.34-9.71,8.14-22.13-.31A25.71,25.71,0,0,0,22.9,25.73a19.52,19.52,0,0,0-8.3.47,19.06,19.06,0,0,0-7.51,3.94,2.07,2.07,0,0,0,1.39,3.55A2.06,2.06,0,0,0,10,33.12a14.41,14.41,0,0,1,5.94-3C20.72,28.86,26,30,31.06,33.49a24.39,24.39,0,0,0,13.66,4.59h.14a22.15,22.15,0,0,0,13.36-4.57,2.07,2.07,0,0,0-2.71-3.12Z" transform="translate(-3.5 -11.56)"/><path d="M55.44,44.44" transform="translate(-3.5 -11.56)"/><path d="M54.47,45.35a14.38,14.38,0,0,1-6,3.09c-4.85,1.21-9.92.05-15.07-3.46a24.53,24.53,0,0,0-13.67-4.59h-.14a22,22,0,0,0-9,2,.72.72,0,0,1-1-.62l-.33-1.37s-.14-.88-.74-.87-1,.91-1,.91L3.6,47.85a.72.72,0,0,0,.6,1.09l8.72.3a.73.73,0,0,0,.45-1.32l-1-.7A.73.73,0,0,1,12.47,46c3.88-1.7,10.58-3,18.57,2.45a25.75,25.75,0,0,0,10.47,4.35,19.84,19.84,0,0,0,8.3-.47,19.51,19.51,0,0,0,7.51-3.94,2.07,2.07,0,0,0-2.85-3Z" transform="translate(-3.5 -11.56)"/></svg>