<?xml version="1.0" standalone="no"?><!DOCTYPE svg PUBLIC "-//W3C//DTD SVG 1.1//EN" "http://www.w3.org/Graphics/SVG/1.1/DTD/svg11.dtd"><svg class="icon" width="64px" height="64.00px" viewBox="0 0 1024 1024" version="1.1" xmlns="http://www.w3.org/2000/svg"><path d="M524.060669 834.562487l145.944793-41.671075L565.763129 688.654372 524.060669 834.562487zM725.795332 409.072793 463.771138 409.072793l-18.716014 93.576235 187.160139 0L453.562217 720.993918l50.324168 0L796.519945 425.992137C775.291611 415.175791 751.257257 409.072793 725.795332 409.072793zM351.475054 533.842471l83.182853-124.768655L226.701287 409.073816c-86.147492 0-155.966441 69.817112-155.966441 155.961074 0 86.143962 69.819973 155.960051 155.966441 155.960051l199.637823 0 112.29506-187.152471L351.475054 533.842471zM871.298039 621.296265l-87.14321 88.405469C824.051079 693.594895 855.753381 661.473313 871.298039 621.296265zM576.181836 678.236092l104.24131 104.237039 229.320035-229.310639L805.501871 448.924429 576.181836 678.236092zM953.869953 473.29856l-65.188299-65.155952c-10.784043-10.783601-28.848184-10.17371-40.393597 1.309832-0.373522 0.37453-0.733741 0.756223-1.084749 1.144056l-0.029677-0.029676-31.254075 27.941376 104.24131 104.238063 31.254075-27.941376-0.02763-0.027629c0.386826-0.350994 0.768534-0.712221 1.142057-1.086751C964.045103 502.175237 964.655019 484.111836 953.869953 473.29856z" /></svg>