<svg id="图层_1" data-name="图层 1" xmlns="http://www.w3.org/2000/svg" viewBox="0 0 57.14 50.28"><title>管线寿命预警</title><path d="M50.22,57.12H13a9.89,9.89,0,0,1-8.6-4.79,9.17,9.17,0,0,1,0-9.58L23,11.63a10.12,10.12,0,0,1,17.2,0L58.82,42.75a9.19,9.19,0,0,1,0,9.58A9.89,9.89,0,0,1,50.22,57.12ZM31.6,10.92a5.69,5.69,0,0,0-4.93,2.75L8,44.79a5.28,5.28,0,0,0,0,5.5A5.68,5.68,0,0,0,13,53H50.22a5.66,5.66,0,0,0,4.93-2.75,5.26,5.26,0,0,0,0-5.49L36.53,13.67A5.68,5.68,0,0,0,31.6,10.92Z" transform="translate(-3.03 -6.84)"/><path d="M34.3,36.51a2.7,2.7,0,0,1-5.4,0V23.93a2.7,2.7,0,1,1,5.4,0Z" transform="translate(-3.03 -6.84)"/><path d="M34.3,44.93a2.7,2.7,0,1,0-2.7,2.7,2.7,2.7,0,0,0,2.7-2.7Z" transform="translate(-3.03 -6.84)"/></svg>