<?xml version="1.0" standalone="no"?><!DOCTYPE svg PUBLIC "-//W3C//DTD SVG 1.1//EN" "http://www.w3.org/Graphics/SVG/1.1/DTD/svg11.dtd"><svg class="icon" width="64px" height="64.00px" viewBox="0 0 1024 1024" version="1.1" xmlns="http://www.w3.org/2000/svg"><path d="M96.277252 64.303538l0 895.392924 831.442426 0 0-895.392924L96.277252 64.303538zM895.736243 927.731446 128.262734 927.731446 128.262734 96.278787l767.473509 0L895.736243 927.731446z"  /><path d="M416.065556 128.262222l447.705672 0 0 31.975249L416.065556 160.237471 416.065556 128.262222z"  /><path d="M416.065556 863.761506l447.705672 0 0 31.984459L416.065556 895.745964 416.065556 863.761506z"  /><path d="M671.904385 511.989767 671.904385 352.105337 767.837294 352.105337 639.937322 160.237471 512.000512 352.105337 607.935468 352.105337 607.935468 511.989767 607.935468 671.89364 512.000512 671.89364 639.937322 863.761506 767.837294 671.89364 671.904385 671.89364Z"  /><path d="M192.232674 160.237471l63.930031 0 0 63.958684-63.930031 0L192.232674 160.237471z"  /><path d="M288.166607 256.161171l63.948451 0 0 63.968917L288.166607 320.130088 288.166607 256.161171z"  /><path d="M192.232674 352.105337l63.930031 0 0 63.959707-63.930031 0L192.232674 352.105337z"  /><path d="M288.166607 448.039269l63.948451 0 0 63.950498L288.166607 511.989767 288.166607 448.039269z"  /><path d="M192.232674 543.984459l63.930031 0 0 63.948451-63.930031 0L192.232674 543.984459z"  /><path d="M288.166607 639.918391l63.948451 0 0 63.958684L288.166607 703.877075 288.166607 639.918391z"  /><path d="M192.232674 735.862557l63.930031 0 0 63.949474-63.930031 0L192.232674 735.862557z"  /><path d="M288.166607 831.797513l63.948451 0 0 63.948451L288.166607 895.745964 288.166607 831.797513z"  /></svg>