<?xml version="1.0" standalone="no"?><!DOCTYPE svg PUBLIC "-//W3C//DTD SVG 1.1//EN" "http://www.w3.org/Graphics/SVG/1.1/DTD/svg11.dtd"><svg class="icon" width="64px" height="64.00px" viewBox="0 0 1024 1024" version="1.1" xmlns="http://www.w3.org/2000/svg"><path d="M208.203414 575.955614l31.978319 0 0 31.978319-31.978319 0 0-31.978319Z"  /><path d="M208.203414 511.989767l31.978319 0 0 31.987528-31.978319 0 0-31.987528Z"  /><path d="M208.203414 448.044386l31.978319 0 0 31.969109-31.978319 0 0-31.969109Z"  /><path d="M208.203414 384.088772l31.978319 0 0 31.977295-31.978319 0 0-31.977295Z"  /><path d="M208.203414 639.910205l31.978319 0 0 31.978319-31.978319 0 0-31.978319Z"  /><path d="M384.080074 208.203926l31.978319 0 0 31.977295-31.978319 0 0-31.977295Z"  /><path d="M448.034664 208.203926l31.995715 0 0 31.977295-31.995715 0 0-31.977295Z"  /><path d="M512.008698 208.203926l31.977295 0 0 31.977295-31.977295 0 0-31.977295Z"  /><path d="M639.918903 208.203926l31.977295 0 0 31.977295-31.977295 0 0-31.977295Z"  /><path d="M575.964312 208.203926l31.976272 0 0 31.977295-31.976272 0 0-31.977295Z"  /><path d="M815.795563 705.198164 815.795563 318.791603c45.37135-7.612375 79.94375-47.064922 79.94375-94.598518 0-52.981678-42.950208-95.932909-95.932909-95.932909-52.999075 0-95.931886 42.951231-95.931886 95.932909 0 20.722974 6.568602 39.910988 17.739013 55.595202l-154.023956 154.017816c-15.683191-11.169387-34.867112-17.739013-55.580876-17.739013-20.693298 0-39.84959 6.544043-55.517431 17.672498L302.560432 279.532461c8.138354-11.504008 13.802354-24.87862 16.23066-39.352263l33.311687 0 0-31.977295-33.311687 0c-7.612375-45.370327-47.064922-79.944773-94.599542-79.944773-52.999075 0-95.931886 42.951231-95.931886 95.932909 0 47.535643 34.561144 86.989213 79.94375 94.599542l0 33.311687 31.978319 0 0-33.31271c14.670118-2.462075 28.211529-8.248871 39.819914-16.565281l153.835667 154.122193c-11.193947 15.692401-17.778922 34.898835-17.778922 55.642275 0 20.727067 6.568602 39.918151 17.739013 55.603389l-154.017816 154.011676c-15.682167-11.17041-34.868135-17.740036-55.588039-17.740036-52.999075 0-95.931886 42.958394-95.931886 95.941096 0 52.974515 42.932812 95.934956 95.931886 95.934956 47.53462 0 86.98819-34.582633 94.600565-79.94989l386.414747 0c7.610328 45.367257 47.049572 79.94989 94.598518 79.94989 52.982702 0 95.932909-42.960441 95.932909-95.934956C895.739313 752.272295 861.166913 712.812585 815.795563 705.198164zM192.214255 224.192062c0-17.661242 14.3181-31.977295 31.978319-31.977295 17.662265 0 31.978319 14.316054 31.978319 31.977295 0 17.652032-14.316054 31.977295-31.978319 31.977295C206.532355 256.169357 192.214255 241.845117 192.214255 224.192062zM799.806403 192.214766c17.661242 0 31.978319 14.316054 31.978319 31.977295 0 17.652032-14.317077 31.977295-31.978319 31.977295-17.660218 0-31.977295-14.325263-31.977295-31.977295C767.829108 206.53082 782.146185 192.214766 799.806403 192.214766zM512.008698 480.013495c17.643845 0 31.977295 14.325263 31.977295 31.976272 0 17.671475-14.33345 31.987528-31.977295 31.987528-17.661242 0-31.978319-14.316054-31.978319-31.987528C480.030379 494.338758 494.347456 480.013495 512.008698 480.013495zM456.405309 590.200036c15.683191 11.166317 34.872229 17.733896 55.603389 17.733896 20.673855 0 39.824007-6.545066 55.491849-17.675568l20.72502 20.763906 22.635533-22.638603-20.703531-20.74037c11.19497-15.69547 17.784038-34.903951 17.784038-55.653531 0-20.715811-6.571672-39.898709-17.742083-55.57883l154.021909-154.016793c11.55722 8.229428 25.019837 13.953803 39.596833 16.398482l0 386.405537c-14.671141 2.460028-28.210505 8.246825-39.817867 16.563234l-13.011338-13.034874-22.638603 22.642696 13.077853 13.103436c-8.132214 11.501962-13.792121 24.873504-16.219403 39.341007L318.790068 783.813662c-2.446725-14.575973-8.172123-28.040636-16.403598-39.59888L456.405309 590.200036zM224.19155 831.78421c-17.660218 0-31.977295-14.316054-31.977295-31.978319 0-17.660218 14.317077-31.976272 31.977295-31.976272 17.662265 0 31.978319 14.316054 31.978319 31.976272C256.169869 817.468157 241.853815 831.78421 224.19155 831.78421zM799.806403 831.78421c-17.660218 0-31.977295-14.316054-31.977295-31.978319 0-17.660218 14.317077-31.976272 31.977295-31.976272 17.661242 0 31.978319 14.316054 31.978319 31.976272C831.784722 817.468157 817.467645 831.78421 799.806403 831.78421z"  /><path d="M683.063539 660.716067 658.783553 636.393101 636.145973 659.031705 660.423913 683.35467Z"  /></svg>