<?xml version="1.0" standalone="no"?><!DOCTYPE svg PUBLIC "-//W3C//DTD SVG 1.1//EN" "http://www.w3.org/Graphics/SVG/1.1/DTD/svg11.dtd"><svg class="icon" width="64px" height="64.00px" viewBox="0 0 1024 1024" version="1.1" xmlns="http://www.w3.org/2000/svg"><path d="M555.099 448.937v197.089H358.01V448.937h197.089m28.875-28.875H329.135v254.839h254.838V420.062h0.001z"  /><path d="M671.953 586.602l-29.388 13.953V360.153H402.164l16.072-29.009 253.204 0.134z"  /><path d="M418.235 331.14l20.417 20.417-88.95 88.951-20.418-20.417zM644.023 336.964l20.417 20.418-88.95 88.951-20.418-20.417zM583.655 674.901l-20.418-20.418 88.952-88.952 19.764 21.071z"  /><path d="M752.812 500.849m-27.001 0a27.001 27.001 0 1 0 54.002 0 27.001 27.001 0 1 0-54.002 0Z"  /><path d="M267.163 501.099m-27.001 0a27.001 27.001 0 1 0 54.002 0 27.001 27.001 0 1 0-54.002 0Z"  /><path d="M613.418 486.688h160.604v28.875H613.418zM568.366 486.74h30.73v28.875h-30.73zM515.703 486.74h30.73v28.875h-30.73zM473.455 486.74h30.73v28.875h-30.73zM429.209 486.74h30.73v28.875h-30.73zM386.492 486.74h30.73v28.875h-30.73zM344.752 486.74h30.73v28.875h-30.73zM246.31 487.615h87.73v28.875h-87.73z"  /></svg>