<?xml version="1.0" standalone="no"?>
<!DOCTYPE svg PUBLIC "-//W3C//DTD SVG 1.1//EN" "http://www.w3.org/Graphics/SVG/1.1/DTD/svg11.dtd" >
<svg>
<metadata>
Created by FontForge 20090914 at Fri Sep 28 05:07:48 2018
 By www-data
Copyright (c) 2018, pcboby
</metadata>
<defs>
<font id="Untitled1" horiz-adv-x="1000" >
  <font-face 
    font-family="Untitled1"
    font-weight="400"
    font-stretch="normal"
    units-per-em="1000"
    panose-1="2 0 5 9 0 0 0 0 0 0"
    ascent="800"
    descent="-200"
    x-height="571"
    cap-height="800"
    bbox="-0.00292969 -201.001 1457 917"
    underline-thickness="50"
    underline-position="-100"
    unicode-range="U+0008-U+E884"
  />
<missing-glyph 
d="M33 0v666h265v-666h-265zM66 33h199v600h-199v-600z" />
    <glyph glyph-name=".notdef" unicode="&#xa5;" 
d="M33 0v666h265v-666h-265zM66 33h199v600h-199v-600z" />
    <glyph glyph-name=".notdef" unicode="&#xe01e;" 
d="M33 0v666h265v-666h-265zM66 33h199v600h-199v-600z" />
    <glyph glyph-name=".notdef" unicode="&#x25ca;" 
d="M33 0v666h265v-666h-265zM66 33h199v600h-199v-600z" />
    <glyph glyph-name=".notdef" unicode="&#x2260;" 
d="M33 0v666h265v-666h-265zM66 33h199v600h-199v-600z" />
    <glyph glyph-name=".notdef" unicode="&#x2248;" 
d="M33 0v666h265v-666h-265zM66 33h199v600h-199v-600z" />
    <glyph glyph-name=".notdef" unicode="&#x222b;" 
d="M33 0v666h265v-666h-265zM66 33h199v600h-199v-600z" />
    <glyph glyph-name=".notdef" unicode="&#x221e;" 
d="M33 0v666h265v-666h-265zM66 33h199v600h-199v-600z" />
    <glyph glyph-name=".notdef" unicode="&#x221a;" 
d="M33 0v666h265v-666h-265zM66 33h199v600h-199v-600z" />
    <glyph glyph-name=".notdef" unicode="&#x2211;" 
d="M33 0v666h265v-666h-265zM66 33h199v600h-199v-600z" />
    <glyph glyph-name=".notdef" unicode="&#x220f;" 
d="M33 0v666h265v-666h-265zM66 33h199v600h-199v-600z" />
    <glyph glyph-name=".notdef" unicode="&#x2202;" 
d="M33 0v666h265v-666h-265zM66 33h199v600h-199v-600z" />
    <glyph glyph-name=".notdef" unicode="&#x2122;" 
d="M33 0v666h265v-666h-265zM66 33h199v600h-199v-600z" />
    <glyph glyph-name=".notdef" unicode="&#x20ac;" 
d="M33 0v666h265v-666h-265zM66 33h199v600h-199v-600z" />
    <glyph glyph-name=".notdef" unicode="&#x2044;" 
d="M33 0v666h265v-666h-265zM66 33h199v600h-199v-600z" />
    <glyph glyph-name=".notdef" unicode="&#x2030;" 
d="M33 0v666h265v-666h-265zM66 33h199v600h-199v-600z" />
    <glyph glyph-name=".notdef" unicode="&#x2026;" 
d="M33 0v666h265v-666h-265zM66 33h199v600h-199v-600z" />
    <glyph glyph-name=".notdef" unicode="&#x3c0;" 
d="M33 0v666h265v-666h-265zM66 33h199v600h-199v-600z" />
    <glyph glyph-name=".notdef" unicode="&#x3a9;" 
d="M33 0v666h265v-666h-265zM66 33h199v600h-199v-600z" />
    <glyph glyph-name=".notdef" unicode="&#x394;" 
d="M33 0v666h265v-666h-265zM66 33h199v600h-199v-600z" />
    <glyph glyph-name=".notdef" unicode="&#x192;" 
d="M33 0v666h265v-666h-265zM66 33h199v600h-199v-600z" />
    <glyph glyph-name=".notdef" unicode="&#x178;" 
d="M33 0v666h265v-666h-265zM66 33h199v600h-199v-600z" />
    <glyph glyph-name=".notdef" unicode="&#x131;" 
d="M33 0v666h265v-666h-265zM66 33h199v600h-199v-600z" />
    <glyph glyph-name=".notdef" unicode="&#xff;" 
d="M33 0v666h265v-666h-265zM66 33h199v600h-199v-600z" />
    <glyph glyph-name=".null" horiz-adv-x="0" 
 />
    <glyph glyph-name=".null" horiz-adv-x="0" 
 />
    <glyph glyph-name=".null" horiz-adv-x="0" 
 />
    <glyph glyph-name="nonmarkingreturn" unicode="&#x9;" 
 />
    <glyph glyph-name="nonmarkingreturn" unicode="&#xd;" 
 />
    <glyph glyph-name="one" unicode="1" 
d="M939 626h0.999023c16.667 0 30.834 -6 42.501 -18s17.5 -26 17.5 -42v-2v-489c0 -16 -6 -29.667 -18 -41s-26 -17 -42 -17h-1h-132h-1c-16 0 -29.833 5.66699 -41.5 17s-17.834 25 -18.501 41v492c0.666992 16 6.83398 29.833 18.501 41.5s25.5 17.5 41.5 17.5h1h132z
M951.999 146l0.000976562 349.999c-0.666992 16 -6.83398 29.667 -18.501 41s-25.5 17 -41.5 17h-1h-34h-1c-10.667 0 -20.5 -2.5 -29.5 -7.5s-16.333 -12 -22 -21s-8.5 -18.833 -8.5 -29.5v-350c0 -10 2.83301 -19.5 8.5 -28.5s13 -16.167 22 -21.5s18.833 -8 29.5 -8h1h34
h1c4.66699 0 9.66699 0.666992 15 2s10.166 3.33301 14.499 6s8.33301 5.83398 12 9.50098s6.83398 7.5 9.50098 11.5s4.66699 8.5 6 13.5s2.33301 10.167 3 15.5zM436 15.999l-0.99707 -0.000976562c-16.667 0 -30.834 5.83301 -42.501 17.5s-17.5 25.834 -17.5 42.501v1
v665c0 16 6 29.667 18 41s26 17 42 17h1h130h1c10.667 0 20.667 -2.66699 30 -8s16.666 -12.5 21.999 -21.5s8 -18.5 8 -28.5v-668c0 -16 -5.83301 -29.667 -17.5 -41s-25.834 -17 -42.501 -17h-1h-130zM423.003 674.998v-531c0 -16 6 -29.833 18 -41.5s26 -17.5 42 -17.5h1
h34h1c16 0 29.833 5.83301 41.5 17.5s17.834 25.5 18.501 41.5v531c-0.666992 16 -6.83398 29.667 -18.501 41s-25.5 17 -41.5 17h-1h-34h-1c-16 0 -30 -5.66699 -42 -17s-18 -25 -18 -41zM64.0029 15.998c-16.667 0 -31 5.83301 -43 17.5s-18 25.834 -18 42.501v1v261
c0.666992 16 6.83398 29.833 18.501 41.5s25.834 17.5 42.501 17.5h136h1c10.667 0 20.667 -2.66699 30 -8s16.666 -12.5 21.999 -21.5s8 -18.833 8 -29.5v-261v-1c0 -16.667 -5.83301 -30.834 -17.5 -42.501s-25.834 -17.5 -42.501 -17.5h-4h-133zM52.0029 266.998
l0.00390625 -123c0.666992 -8 2.66699 -15.667 6 -23s7.66602 -13.5 12.999 -18.5s11.666 -9.16699 18.999 -12.5s14.666 -5 21.999 -5h1h34h1c16 0 30 5.83301 42 17.5s18 25.5 18 41.5v123c0 16 -6 29.667 -18 41s-26 17 -42 17h-1h-34h-1
c-16 0 -29.833 -5.66699 -41.5 -17s-17.834 -25 -18.501 -41zM0.00683594 -58.002h997v-88h-997v88z" />
    <glyph glyph-name="two" unicode="2" 
d="M637 272l217.003 -23.999l146 -429l-356 112l-305 -105l-339 111l156 369l200 -50c-84.667 110 -127 211.667 -127 305c0 30.667 4.66699 58.667 14 84s21.666 46 36.999 62s32.333 30.167 51 42.5s37.167 21.5 55.5 27.5s35.166 10.833 50.499 14.5
s27.666 6.16699 36.999 7.5l15 1c0 -0.666992 3 -0.666992 9 0s14.333 0.166992 25 -1.5s22.667 -3.16699 36 -4.5s27.5 -4.83301 42.5 -10.5s30 -11.834 45 -18.501s29.167 -16.167 42.5 -28.5s25 -26 35 -41s17.833 -33.5 23.5 -55.5s8.16699 -46.333 7.5 -73
c-2.66699 -94.667 -42 -193 -118 -295zM383.003 223.001l-28 -362l274 95l-15 286l-38 -42c-14.667 -16 -29.667 -31.333 -45 -46l-42 -39c-38 33.333 -73.333 69.333 -106 108zM503.003 643.001c-23.333 0 -43.166 -8.16699 -59.499 -24.5s-24.5 -35.833 -24.5 -58.5
c0 -15.333 3.83301 -29.333 11.5 -42s17.834 -22.667 30.501 -30s26.334 -11 41.001 -11c23.333 0 43.166 8 59.499 24s24.5 35.667 24.5 59c0 14.667 -3.83301 28.5 -11.5 41.5s-17.834 23.167 -30.501 30.5s-26.334 11 -41.001 11zM172.003 273.001l-134 -319l288 -94
l29 367zM657.003 -43.999l299 -93l-123 359l-191 21z" />
    <glyph glyph-name="three" unicode="3" 
d="M454 240c-27.333 0 -50.833 9.83301 -70.5 29.5s-29.5 43.167 -29.5 70.5s9.83301 50.833 29.5 70.5s43.167 29.5 70.5 29.5s50.833 -9.83301 70.5 -29.5s29.5 -43.167 29.5 -70.5s-9.83301 -50.833 -29.5 -70.5s-43.167 -29.5 -70.5 -29.5zM902 13
c15.333 -15.333 23 -34 23 -56s-7.66699 -40.667 -23 -56s-33.833 -23 -55.5 -23s-40.5 7.66699 -56.5 23l-123 125c-64 -43.333 -135 -65 -213 -65c-51.333 0 -100.5 10 -147.5 30s-87.333 46.833 -121 80.5s-60.5 74 -80.5 121s-30 96.167 -30 147.5s10 100.5 30 147.5
s46.833 87.333 80.5 121s74 60.5 121 80.5s96.167 30 147.5 30c68.667 0 132.167 -16.833 190.5 -50.5s104.333 -79.667 138 -138s50.5 -121.833 50.5 -190.5c0 -72 -19 -138.667 -57 -200zM146 292c10.667 -66.667 40.167 -124.167 88.5 -172.5s105.833 -77.5 172.5 -87.5
l47 93l47 -93c66.667 10 124.167 39.167 172.5 87.5s77.833 105.833 88.5 172.5l-96 48l96 48c-10.667 66.667 -40 124 -88 172s-105.667 77.333 -173 88l-47 -95l-48 95c-66.667 -10.667 -124 -40 -172 -88s-77.333 -105.333 -88 -172l96 -48z" />
    <glyph glyph-name="four" unicode="4" 
d="M523 279c-36 -35.333 -54.8311 -78.1709 -56.498 -128.504s14.5 -94.166 48.5 -131.499l-130 -142c-6 -7.33301 -14 -11.166 -24 -11.499s-18.667 2.83398 -26 9.50098l-206 187c-7.33301 6.66699 -11 15 -11 25s3 18.333 9 25l525 578c6 6.66699 14 10.167 24 10.5
s18.667 -2.5 26 -8.5l206 -188c7.33301 -6 11.166 -14 11.499 -24s-2.83398 -18.667 -9.50098 -26l-141 -156c-36.667 27.333 -78.5 39.333 -125.5 36s-87.167 -21.666 -120.5 -54.999zM625.002 630.995c-5.33301 -7.33301 -5.33301 -13.666 0 -18.999l48 -43
c7.33301 -7.33301 13.666 -7.33301 18.999 0c7.33301 7.33301 7.33301 13.666 0 18.999l-48 43c-7.33301 7.33301 -13.666 7.33301 -18.999 0zM538.002 532.995c-8 -7.33301 -8 -13.332 0 -17.999l47 -44c8 -7.33301 14.333 -7.33301 19 0
c7.33301 7.33301 7.33301 13.666 0 18.999l-48 43c-7.33301 8 -13.333 8 -18 0zM250.002 82.9961c5.33301 5.33301 5.33301 11.666 0 18.999l-48 44c-7.33301 7.33301 -13.666 7.33301 -18.999 0c-7.33301 -7.33301 -7.33301 -13.666 0 -18.999l48 -44
c7.33301 -7.33301 13.666 -7.33301 18.999 0zM338.002 178.996c6 6.66699 6.00098 13 0.000976562 19l-48 44c-8 7.33301 -14.333 7.33301 -19 0c-7.33301 -8 -7.33301 -14.333 0 -19l48 -44c7.33301 -7.33301 13.666 -7.33301 18.999 0zM427.503 276.996
c5 7.33301 4.83203 13.667 -0.500977 19l-48 44c-7.33301 7.33301 -13.666 7.33301 -18.999 0c-7.33301 -8 -7.33301 -14.333 0 -19l48 -44c8 -7.33301 14.5 -7.33301 19.5 0zM448.002 434.997c-5.33301 -4.66699 -5.33203 -10.666 0.000976562 -17.999l48 -44
c7.33301 -7.33301 13.666 -7.33301 18.999 0c7.33301 7.33301 7.33301 13.666 0 18.999l-48 43c-8 8 -14.333 8 -19 0zM858.003 -29.002c3.33301 -3.33301 5.00195 -7.66602 5.00195 -12.999s-1.66699 -10 -5 -14c-2 -4 -6 -6 -12 -6c-4 0 -8.33301 2 -13 6l-87 87
c-30 -22.667 -63.833 -33 -101.5 -31s-69.834 16.667 -96.501 44l-6 6c-26.667 30 -39.334 64.833 -38.001 104.5s16 73.5 44 101.5c26 26 57.5 40.5 94.5 43.5s70.167 -6.5 99.5 -28.5c4 -2.66699 9.33301 -7.66699 16 -15c27.333 -26.667 42 -58.834 44 -96.501
s-8.33301 -71.5 -31 -101.5zM731.005 70.998c22 22 33 48.501 33 79.501s-11 57.833 -33 80.5c-2 1.33301 -4.66699 3.5 -8 6.5s-6 5.16699 -8 6.5c-19.333 12 -40.333 18 -63 18c-31.333 0 -57.833 -10.833 -79.5 -32.5s-32.5 -48.167 -32.5 -79.5c2 -27.333 11 -51 27 -71
c1.33301 -2.66699 3.33301 -5.33398 6 -8.00098c22 -22 48.333 -33 79 -33s57 11 79 33z" />
    <glyph glyph-name="five" unicode="5" 
d="M875 71h-750c-11.333 0 -21.166 4 -29.499 12s-12.5 17.667 -12.5 29v459c0 11.333 4.16699 21 12.5 29s18.166 12 29.499 12h167v42c0 11.333 4 21.166 12 29.499s17.667 12.5 29 12.5h334c11.333 0 21 -4.16699 29 -12.5s12 -18.166 12 -29.499v-42h167
c11.333 0 21.166 -4 29.499 -12s12.5 -17.667 12.5 -29v-459c0 -11.333 -4.16699 -21 -12.5 -29s-18.166 -12 -29.499 -12zM833 529h-666v-375h666v375zM417 210v270l260 -135zM333 -12h334c11.333 -0.666992 21 -5 29 -13s12 -17.667 12 -29s-4 -21.166 -12 -29.499
s-17.667 -12.5 -29 -12.5h-334c-11.333 0 -21 4.16699 -29 12.5s-12 18.166 -12 29.499s4 21 12 29s17.667 12.333 29 13z" />
    <glyph glyph-name="A" unicode="A" 
d="M107 383v-306l266 -153v306zM36 36v471l408 -236v-471zM585 230v-306l265 153v306zM513 271l408 236v-471l-408 -236v471zM744 567l-267 150l-263 -155l266 -151zM476 800l410 -232l-405 -239l-410 232z" />
    <glyph glyph-name="B" unicode="B" 
d="M306 615l505.001 -1.00195l-1 -510c-0.666992 -30 -7.33398 -59 -20.001 -87s-29.5 -52 -50.5 -72s-45.667 -36.167 -74 -48.5s-57.5 -18.833 -87.5 -19.5l-503 1l2 502c1.33301 62.667 24.5 117.334 69.5 164.001s98.167 70.334 159.5 71.001zM713.001 103.998
l0.998047 414.001l-408 1c-37.333 0 -68.666 -13.833 -93.999 -41.5s-38.333 -60.834 -39 -99.501l-1 -403l408 -1c24.667 0.666992 47 6.66699 67 18s35.833 26.833 47.5 46.5s17.834 41.5 18.501 65.5zM872.999 715.999h42v-43v-496h-42v496h-496v43h496zM294.999 155.999
h297v-60h-297v60zM294.999 274.999h297v-59h-297v59zM294.999 395.999h297v-60h-297v60z" />
    <glyph glyph-name="C" unicode="C" 
d="M688 530h-52l-115 -460h53v-112h-262v112h51l115 460h-52v112h262v-112z" />
    <glyph glyph-name="D" unicode="D" 
d="M53 749l111.999 -0.000976562c-1.33301 -16.667 -1.66602 -27.5 -0.999023 -32.5s3.16699 -15 7.5 -30s7.5 -28.5 9.5 -40.5c14 -86 48.333 -157.333 103 -214s125 -89 211 -97v-1c-94.667 -1.33301 -174.5 19.5 -239.5 62.5s-113.5 100.5 -145.5 172.5
c-3.33301 8 -12.333 24.5 -27 49.5s-24.5 47.333 -29.5 67s-5.16699 40.834 -0.5 63.501zM297.999 748.999l103.994 0.00195312c-4 -6.66699 -10.667 -15.834 -20 -27.501s-15.666 -24.5 -18.999 -38.5c-14 -54 -12.667 -106.5 4 -157.5s40.334 -95.5 71.001 -133.5
c4.66699 -6 10.667 -12.167 18 -18.5s14.833 -12.5 22.5 -18.5s13.834 -12 18.501 -18c-24 10.667 -46 25 -66 43c-40 30.667 -71.667 67.167 -95 109.5s-40.333 94.166 -51 155.499c-2 10.667 -2.66699 21.334 -2 32.001s1.83398 18.667 3.50098 24
s3.83398 12.666 6.50098 21.999s4.33398 18 5.00098 26zM526.993 749.001l147.998 -1.00293h-2c-7.33301 -5.33301 -19 -7.33301 -35 -6s-27.667 -0.666992 -35 -6c-22.667 -17.333 -44.5 -40.666 -65.5 -69.999s-38.167 -65.166 -51.5 -107.499
s-16.666 -83.166 -9.99902 -122.499c2.66699 -13.333 7.33398 -31.166 14.001 -53.499s11 -37.5 13 -45.5l-2 1l-25 44c-11.333 26 -20.333 52.667 -27 80c-4.66699 19.333 -7.5 39.333 -8.5 60s-0.333008 40.5 2 59.5s6 37.667 11 56s10.667 35.166 17 50.499
s13.5 29.333 21.5 42c4 6 9.83301 9.33301 17.5 10s13.5 3.66699 17.5 9zM968.991 748.998l0.00195312 -129l-26 5c-10.667 2 -21 3.83301 -31 5.5s-19.333 3.5 -28 5.5c-9.33301 0.666992 -19 1 -29 1c-32 0 -63 -5.33301 -93 -16
c-52.667 -16 -98.334 -39.667 -137.001 -71s-68 -69.666 -88 -114.999l-23 -65l-7 -37v20c0 39.333 6.66699 77.666 20 114.999c21.333 64 63 123.333 125 178s126 89 192 103c12 2.66699 24.667 4.16699 38 4.5s29.166 -0.166992 47.499 -1.5s31.5 -2.33301 39.5 -3z
M850.993 534.998h4c38.667 0 76.667 -4.66699 114 -14c-0.666992 -32.667 -1 -65.334 -1 -98.001c-30 15.333 -61.333 27 -94 35c-32 6.66699 -62.333 9.66699 -91 9s-56.834 -5.33398 -84.501 -14.001s-52.334 -18.5 -74.001 -29.5s-41.5 -23.5 -59.5 -37.5
c-5.33301 -4 -11.166 -9.5 -17.499 -16.5l-19 -21.5c-6.33301 -7.33301 -12.5 -13 -18.5 -17c6.66699 14 15.334 27 26.001 39c14 20 33 40.333 57 61s49.667 38.834 77 54.501s53 26.834 77 33.501l72 14zM30.9932 492.998c6.66699 -8 15.499 -20.499 26.499 -37.499
s19.833 -29.5 26.5 -37.5c28.667 -35.333 73 -65.5 133 -90.5s119.333 -32.167 178 -21.5c12.667 2 29.334 6 50.001 12s35 10 43 12l-1 -2l-37 -20c-29.333 -12.667 -59.333 -22.334 -90 -29.001c-103.333 -26 -213 -1.33301 -329 74v140zM698.992 383.999
c52.667 1.33301 105.167 -5.99805 157.5 -21.998s89.833 -36.333 112.5 -61c-0.666992 -46.667 -1 -93.334 -1 -140.001v2c-5.33301 6.66699 -12.833 17.667 -22.5 33s-17.167 26.666 -22.5 33.999c-31.333 38.667 -77.833 71 -139.5 97s-124.167 33 -187.5 21
c-29.333 -6 -58.333 -14 -87 -24c21.333 20.667 67 38.667 137 54zM502.992 337.001l1 -2zM508.992 331.001l1 -2zM489.992 326.001c0 -1.33301 -0.666992 -2.33301 -2 -3zM491.992 324.001l0.00390625 -41.002c-10.667 -63.333 -22.667 -109.333 -36 -138
c-13.333 -26.667 -29.333 -53.5 -48 -80.5s-41.834 -54.5 -69.501 -82.5s-56.834 -51.833 -87.501 -71.5s-65.334 -34.167 -104.001 -43.5s-77.334 -10 -116.001 -2v108c8.66699 -2 22.334 5.66699 41.001 23s33.334 25.333 44.001 24c8 -1.33301 16 -2 24 -2
c17.333 0 34.666 2 51.999 6c56.667 10.667 104.667 28.334 144 53.001s72.666 57.334 99.999 98.001c36 54 54.667 103.667 56 149zM486.996 322.999c1.33301 -6.66699 -6.33203 -20.168 -22.999 -40.501s-31 -36.166 -43 -47.499c-46 -46 -102.833 -79 -170.5 -99
s-140.834 -20.667 -219.501 -2l1 98c33.333 -16.667 68.333 -29 105 -37c69.333 -15.333 137 -9 203 19s115 64.333 147 109zM494.998 320.998l1 -2zM947.998 -153.002h-112.999c2.66699 5.33301 3.33398 14.333 2.00098 27s-3.33301 24.5 -6 35.5
s-5.33398 23.333 -8.00098 37s-4 24.5 -4 32.5c0 61.333 -19.667 122.333 -59 183s-87 103 -143 127l-70 24l-42 8c109.333 1.33301 200 -27.5 272 -86.5s118.333 -136.167 139 -231.5c1.33301 -7.33301 4.16602 -19 8.49902 -35l11.5 -43
c3.33301 -12.667 6.33301 -26.5 9 -41.5s3.66699 -27.167 3 -36.5zM495.999 318.998c13.333 -16.667 23.334 -35.001 30.001 -55.001c5.33301 -12.667 10.333 -28 15 -46s8.5 -36.167 11.5 -54.5s4.5 -34.833 4.5 -49.5c0 -28 -5.16699 -60.833 -15.5 -98.5
s-22.5 -68.5 -36.5 -92.5c-3.33301 -5.33301 -2.83301 -18.666 1.5 -39.999s3.83301 -33.333 -1.5 -36l-143 1h3l30 17c5.33301 4 7.66602 14.833 6.99902 32.5s1.33301 28.167 6 31.5c36.667 29.333 67.667 72.833 93 130.5s32 115.5 20 173.5
c-6.66699 29.333 -15 58 -25 86zM501 318.997l3 -2zM504 316.997c7.33301 -2.66699 14.998 -6.33203 22.998 -10.999s14.5 -8.83398 19.5 -12.501s11.667 -9.16699 20 -16.5s14.166 -12.333 17.499 -15c66.667 -52.667 109.667 -134.334 129 -245.001
c2 -13.333 3 -26.666 3 -39.999c0 -8.66699 -0.333008 -17.334 -1 -26.001c-1.33301 -8.66699 1.66699 -26.334 9 -53.001s10.333 -43.667 9 -51h-102l1 3c5.33301 8.66699 7.33301 18.834 6 30.501l-5 43c-2 17 -2.33301 29.167 -1 36.5c16 57.333 16.333 112.333 1 165
s-39.666 99.667 -72.999 141c-5.33301 6.66699 -14.666 15.334 -27.999 26.001s-22.666 19 -27.999 25z" />
    <glyph glyph-name="F" unicode="F" 
d="M500 775c62.667 0 123 -12.5 181 -37.5s108 -58.667 150 -101s75.5 -92.833 100.5 -151.5s37.5 -120.334 37.5 -185.001s-12.5 -126.334 -37.5 -185.001s-58.5 -109.167 -100.5 -151.5s-92 -76 -150 -101s-118.333 -37.5 -181 -37.5s-123 12.5 -181 37.5
s-108 58.667 -150 101s-75.5 92.833 -100.5 151.5s-37.5 120.334 -37.5 185.001s12.5 126.334 37.5 185.001s58.5 109.167 100.5 151.5s92 76 150 101s118.333 37.5 181 37.5zM500 -106c55.333 0 107.666 10.668 156.999 32.001s91.833 50.166 127.5 86.499
s63.834 79.5 84.501 129.5s31 102.667 31 158c0 74 -17.5 142.167 -52.5 204.5s-83.167 111.5 -144.5 147.5s-129 54 -203 54c-72 0 -138.667 -18 -200 -54s-110 -85.333 -146 -148s-54 -130.667 -54 -204c0 -74 17.5 -142.167 52.5 -204.5s83.167 -111.5 144.5 -147.5
s129 -54 203 -54zM281 219.001c16 0 29.667 -5.83203 41 -17.499s18.666 -26.834 21.999 -45.501c0 -12 -3.16699 -22.833 -9.5 -32.5s-14.166 -17 -23.499 -22s-19.333 -7.5 -30 -7.5c-18 0 -32.833 6.33301 -44.5 19s-17.5 27 -17.5 43c0 18 6.33301 33 19 45s27 18 43 18
zM300 538.002c22 0 41 -8.16699 57 -24.5s24 -35.5 24 -57.5s-8 -41 -24 -57s-35 -24 -57 -24s-41 8 -57 24s-24 35 -24 57s8 41.167 24 57.5s35 24.5 57 24.5zM681 262.002c28 0 51.667 -9.5 71 -28.5s29 -42.667 29 -71s-9.66699 -52.166 -29 -71.499s-43 -29 -71 -29
s-51.667 9.66699 -71 29s-29 43.166 -29 71.499s9.66699 52 29 71s43 28.5 71 28.5zM681 381.002c-16 0 -30.334 6 -43.001 18s-19 27 -19 45s6.33301 32.833 19 44.5s27 17.5 43 17.5c18 0 33 -6.33301 45 -19s18 -27 18 -43c0 -12 -3.16699 -22.833 -9.5 -32.5
s-14.166 -17.167 -23.499 -22.5s-19.333 -8 -30 -8z" />
    <glyph glyph-name="G" unicode="G" 
d="M835 737c18.667 0 35.834 -4.5 51.501 -13.5s28 -21.333 37 -37s13.5 -32.834 13.5 -51.501c0 -28 -10 -52 -30 -72s-44 -30 -72 -30c-18.667 0 -35.834 4.5 -51.501 13.5s-28 21.333 -37 37s-13.5 32.834 -13.5 51.501c0 28 10 52 30 72s44 30 72 30zM165 737
c28 0 52.001 -9.99902 72.001 -29.999s30 -44 30 -72c0 -18.667 -4.5 -35.834 -13.5 -51.501s-21.333 -28 -37 -37s-32.834 -13.5 -51.501 -13.5c-28 0 -52 10 -72 30s-30 44 -30 72s10 52 30 72s44 30 72 30zM821.001 450.001v27c0 7.33301 2 13.666 6 18.999s9 8 15 8
s11.167 -2.66699 15.5 -8s6.5 -11.666 6.5 -18.999v-27c0 -4.66699 -1 -9.16699 -3 -13.5s-4.66699 -7.66602 -8 -9.99902s-7 -3.5 -11 -3.5c-6 0 -11 2.66699 -15 8s-6 11.666 -6 18.999zM821.001 342.001v27c0 7.33301 2 13.666 6 18.999s9 8 15 8
s11.167 -2.66699 15.5 -8s6.5 -11.666 6.5 -18.999v-27c0 -7.33301 -2.16699 -13.666 -6.5 -18.999s-9.5 -8 -15.5 -8s-11 2.66699 -15 8s-6 11.666 -6 18.999zM821.001 234.001l0.000976562 27.001c0 7.33301 2 13.666 6 18.999s9 8 15 8s11.167 -2.66699 15.5 -8
s6.5 -11.666 6.5 -18.999v-27c0 -7.33301 -2.16699 -13.666 -6.5 -18.999s-9.5 -8 -15.5 -8c-2.66699 0 -5.33398 0.666992 -8.00098 2s-5 3.16602 -7 5.49902s-3.5 5.16602 -4.5 8.49902s-1.5 7 -1.5 11zM821.002 126.002v27c0 7.33301 2 13.666 6 18.999s9 8 15 8
s11.167 -2.66699 15.5 -8s6.5 -11.666 6.5 -18.999v-27c0 -7.33301 -2.16699 -13.666 -6.5 -18.999s-9.5 -8 -15.5 -8s-11 2.66699 -15 8s-6 11.666 -6 18.999zM136.002 450.002v26.999c0 7.33301 2 13.666 6 18.999s9 8 15 8c3.33301 0 6.33301 -0.666992 9 -2
s5 -3.16602 7 -5.49902s3.5 -5.16602 4.5 -8.49902s1.5 -7 1.5 -11v-27c0 -4.66699 -1 -9.16699 -3 -13.5s-4.66699 -7.66602 -8 -9.99902s-7 -3.5 -11 -3.5c-6 0 -11 2.66699 -15 8s-6 11.666 -6 18.999zM136.002 342.001v27c0 3.33301 0.5 6.66602 1.5 9.99902
s2.5 6.33301 4.5 9s4.33301 4.66699 7 6s5.5 2 8.5 2s5.83301 -0.666992 8.5 -2s5 -3.33301 7 -6s3.5 -5.66699 4.5 -9s1.5 -6.66602 1.5 -9.99902v-27c0 -7.33301 -2 -13.666 -6 -18.999s-9 -8 -15 -8s-11.167 2.66699 -15.5 8s-6.5 11.666 -6.5 18.999zM136.002 234.001
v27c0 4.66699 1 9.16699 3 13.5s4.66699 7.66602 8 9.99902s7 3.5 11 3.5c6 0 11 -2.66699 15 -8s6 -11.666 6 -18.999v-27c0 -4.66699 -0.833008 -9.16699 -2.5 -13.5s-4.16699 -7.66602 -7.5 -9.99902s-7 -3.5 -11 -3.5c-6 0 -11.167 2.66699 -15.5 8
s-6.5 11.666 -6.5 18.999zM136.002 126.001v27c0 4.66699 1 9.16699 3 13.5s4.66699 7.66602 8 9.99902s7 3.5 11 3.5c6 0 11 -2.66699 15 -8s6 -11.666 6 -18.999v-27c0 -7.33301 -2 -13.666 -6 -18.999s-9 -8 -15 -8s-11.167 2.66699 -15.5 8s-6.5 11.666 -6.5 18.999z
M284.002 476.001l-21 20c-4 4 -6.16699 9.16699 -6.5 15.5s1.66699 11.5 6 15.5s9.5 6.16699 15.5 6.5s11.333 -1.83398 16 -6.50098l20 -20c4.66699 -4 7 -9.16699 7 -15.5s-2.16699 -11.5 -6.5 -15.5s-9.5 -6.16699 -15.5 -6.5s-11 1.83398 -15 6.50098zM367.002 394.001
l-21 20c-4 4.66699 -6 10 -6 16s2 11.167 6 15.5s9 6.5 15 6.5s11.333 -2 16 -6l21 -21c4 -4 6 -9 6 -15s-2 -11.167 -6 -15.5s-9.16699 -6.5 -15.5 -6.5s-11.5 2 -15.5 6zM450.002 312.001l-21 21c-4 4 -6 9 -6 15s2 11.167 6 15.5s9.16699 6.5 15.5 6.5s11.5 -2 15.5 -6
l21 -20c4 -4.66699 6 -10 6 -16s-2 -11.167 -6 -15.5s-9 -6.5 -15 -6.5s-11.333 2 -16 6zM533.002 231.001l-20.001 19.999c-4.66699 4 -7 9.16699 -7 15.5s2 11.5 6 15.5c2.66699 2.66699 6 4.5 10 5.5s7.83301 1 11.5 0s6.83398 -2.83301 9.50098 -5.5l21 -20
c4 -4 6.16699 -9.16699 6.5 -15.5s-1.66699 -11.5 -6 -15.5s-9.5 -6.16699 -15.5 -6.5s-11.333 1.83398 -16 6.50098zM616.001 149l-20 20c-4.66699 4.66699 -7 10 -7 16s2.16699 11.167 6.5 15.5s9.5 6.5 15.5 6.5s11 -2 15 -6l21 -21c4.66699 -4 7 -9 7 -15
s-2.16699 -11.167 -6.5 -15.5s-9.5 -6.5 -15.5 -6.5s-11.333 2 -16 6zM700.001 67l-21 21c-4.66699 4 -7 9 -7 15s2.16699 11.167 6.5 15.5s9.5 6.5 15.5 6.5s11.333 -2 16 -6l20 -20c4.66699 -4.66699 7 -10 7 -16s-2.16699 -11.167 -6.5 -15.5s-9.5 -6.5 -15.5 -6.5
s-11 2 -15 6z" />
    <glyph glyph-name="H" unicode="H" 
d="M55 656.5c0 24.333 8.66992 45.1689 26.0029 62.502s38.166 26 62.499 26s45.166 -8.66699 62.499 -26s26 -38.333 26 -63c0 -16 -3.83301 -30.833 -11.5 -44.5s-18.334 -24.334 -32.001 -32.001s-28.5 -11.5 -44.5 -11.5c-24.667 0 -45.667 8.66699 -63 26
s-26 38.166 -26 62.499zM638.003 656.503c0 16.333 4 31.1641 12 44.4971s18.833 24 32.5 32s28.5 12 44.5 12c24.667 0 45.667 -8.66699 63 -26s26 -38.166 26 -62.499s-8.66699 -45.166 -26 -62.499s-38.333 -26 -63 -26c-16 0 -30.833 3.83301 -44.5 11.5
s-24.5 18.334 -32.5 32.001s-12 28.667 -12 45zM55.0029 73.001c0 24.667 8.66797 45.666 26.001 62.999s38.166 26 62.499 26s45.166 -8.66699 62.499 -26s26 -38.333 26 -63c0 -10 -1.5 -19.5 -4.5 -28.5s-7.16699 -17.167 -12.5 -24.5s-11.666 -13.666 -18.999 -18.999
s-15.5 -9.5 -24.5 -12.5s-18.167 -4.5 -27.5 -4.5c-24.667 0 -45.667 8.66699 -63 26s-26 38.333 -26 63zM638.004 73c0 12 2.5 23.5 7.5 34.5s11.333 20.333 19 28s17 14 28 19s22.5 7.5 34.5 7.5c16 0 30.833 -4 44.5 -12s24.5 -18.833 32.5 -32.5s12 -28.5 12 -44.5
c0 -24.667 -8.66699 -45.667 -26 -63s-38.333 -26 -63 -26s-45.667 8.66699 -63 26s-26 38.333 -26 63zM305.004 644h-24c-6 0 -11.333 1.83301 -16 5.5s-7 8.16699 -7 13.5s2.33301 9.83301 7 13.5s10 5.5 16 5.5h24c4 0 7.83301 -0.833008 11.5 -2.5s6.5 -4 8.5 -7
s3 -6.16699 3 -9.5c0 -5.33301 -2.16699 -9.83301 -6.5 -13.5s-9.83301 -5.5 -16.5 -5.5zM399.004 644h-24c-6 0 -11.333 1.83301 -16 5.5s-7 8.16699 -7 13.5s2.33301 9.83301 7 13.5s10 5.5 16 5.5h24c6.66699 0 12.167 -1.83301 16.5 -5.5s6.5 -8.16699 6.5 -13.5
s-2.16699 -9.83301 -6.5 -13.5s-9.83301 -5.5 -16.5 -5.5zM493.004 644h-24c-6 0 -11.333 1.83301 -16 5.5s-7 8.16699 -7 13.5s2.33301 9.83301 7 13.5s10 5.5 16 5.5h24c6.66699 0 12.167 -1.83301 16.5 -5.5s6.5 -8.16699 6.5 -13.5s-2.16699 -9.83301 -6.5 -13.5
s-9.83301 -5.5 -16.5 -5.5zM587.004 644h-23c-6.66699 0 -12.334 1.83301 -17.001 5.5s-7 8.16699 -7 13.5s2.33301 9.83301 7 13.5s10.334 5.5 17.001 5.5h23c6.66699 0 12.334 -1.83301 17.001 -5.5s7 -8.16699 7 -13.5s-2.33301 -9.83301 -7 -13.5
s-10.334 -5.5 -17.001 -5.5zM305.004 47h-24c-6 0 -11.333 1.83301 -16 5.5s-7 8.16699 -7 13.5s2.33301 9.83301 7 13.5s10 5.5 16 5.5h24c4 0 7.83301 -0.833008 11.5 -2.5s6.5 -4 8.5 -7s3 -6.16699 3 -9.5c0 -5.33301 -2.16699 -9.83301 -6.5 -13.5
s-9.83301 -5.5 -16.5 -5.5zM399.004 47h-24c-6 0 -11.333 1.83301 -16 5.5s-7 8.16699 -7 13.5s2.33301 9.83301 7 13.5s10 5.5 16 5.5h24c6.66699 0 12.167 -1.83301 16.5 -5.5s6.5 -8.16699 6.5 -13.5c0 -3.33301 -1 -6.33301 -3 -9s-4.83301 -5 -8.5 -7s-7.5 -3 -11.5 -3
zM493.004 47h-24c-4 0 -7.83301 1 -11.5 3s-6.5 4.33301 -8.5 7s-3 5.66699 -3 9c0 5.33301 2.33301 9.83301 7 13.5s10 5.5 16 5.5h24c6.66699 0 12.167 -1.83301 16.5 -5.5s6.5 -8 6.5 -13s-2.16699 -9.5 -6.5 -13.5s-9.83301 -6 -16.5 -6zM587.004 48h-23
c-6.66699 0 -12.334 1.83301 -17.001 5.5s-7 8 -7 13s2.33301 9.33301 7 13s10.334 5.5 17.001 5.5h23c6.66699 0 12.334 -1.83301 17.001 -5.5s7 -8 7 -13s-2.33301 -9.33301 -7 -13s-10.334 -5.5 -17.001 -5.5zM122.004 492l-0.000976562 22.999
c0 2.66699 0.166992 5.16699 0.5 7.5s1.16602 4.5 2.49902 6.5s2.83301 3.83301 4.5 5.5s3.33398 2.83398 5.00098 3.50098s3.83398 1 6.50098 1c4.66699 0 9 -2.33301 13 -7s6 -10 6 -16v-24c0 -6.66699 -1.83301 -12.334 -5.5 -17.001s-8.16699 -7 -13.5 -7
s-9.83301 2.33301 -13.5 7s-5.5 10.334 -5.5 17.001zM122.003 397.999v23.001c0 3.33301 0.5 6.5 1.5 9.5s2.33301 5.5 4 7.5s3.66699 3.66699 6 5s4.83301 2 7.5 2c5.33301 0 9.83301 -2.33301 13.5 -7s5.5 -10.334 5.5 -17.001v-23
c0 -6.66699 -1.83301 -12.334 -5.5 -17.001s-8 -7 -13 -7s-9.5 2.33301 -13.5 7s-6 10.334 -6 17.001zM123.003 304v23c0 6.66699 1.83301 12.334 5.5 17.001s8.16699 7 13.5 7s9.83301 -2.33301 13.5 -7s5.5 -10.334 5.5 -17.001v-23
c0 -6.66699 -1.83301 -12.334 -5.5 -17.001s-8.16699 -7 -13.5 -7s-9.83301 2.33301 -13.5 7s-5.5 10.334 -5.5 17.001zM123.003 210l0.000976562 22.998c0 6.66699 1.83301 12.334 5.5 17.001s8.16699 7 13.5 7s9.83301 -2.33301 13.5 -7s5.5 -10.334 5.5 -17.001l1 -23
c0 -4.66699 -0.833008 -8.66699 -2.5 -12s-4 -6.16602 -7 -8.49902s-6.16699 -3.5 -9.5 -3.5c-5.33301 0 -9.83301 2.33301 -13.5 7s-5.83398 10.334 -6.50098 17.001zM704.004 498.998l0.00292969 23c0 4.66699 0.833008 8.66699 2.5 12s4 6.16602 7 8.49902
s6.16699 3.5 9.5 3.5c5.33301 0 9.83301 -2.33301 13.5 -7s5.5 -10.334 5.5 -17.001v-23c0 -4.66699 -0.833008 -8.66699 -2.5 -12s-3.83398 -6.16602 -6.50098 -8.49902s-5.83398 -3.5 -9.50098 -3.5s-6.83398 1 -9.50098 3s-5 4.83301 -7 8.5s-3 7.83398 -3 12.501z
M705.007 404.998l0.000976562 23.001c0 6.66699 1.83301 12.334 5.5 17.001s8.16699 7 13.5 7s9.83301 -2.33301 13.5 -7s5.5 -10.334 5.5 -17.001v-23c0 -6.66699 -1.83301 -12.334 -5.5 -17.001s-8.16699 -7 -13.5 -7c-1.33301 0 -2.83301 0.333008 -4.5 1
s-3.33398 1.5 -5.00098 2.5s-3 2.16699 -4 3.5s-2 2.83301 -3 4.5s-1.66699 3.5 -2 5.5s-0.5 4.33301 -0.5 7zM705.008 309.999l0.000976562 24.001c0 6.66699 1.83301 12.334 5.5 17.001s8.16699 7 13.5 7s9.83301 -2.33301 13.5 -7s5.5 -10.334 5.5 -17.001l1 -23
c0 -6.66699 -1.83301 -12.334 -5.5 -17.001s-8.16699 -7 -13.5 -7s-9.83301 2.33301 -13.5 7s-5.83398 10 -6.50098 16zM706.009 216v24.0039c0 6.66699 1.83301 12.167 5.5 16.5s8.16699 6.66602 13.5 6.99902s9.83301 -1.83398 13.5 -6.50098s5.5 -10.334 5.5 -17.001v-23
c0 -6.66699 -1.83301 -12.334 -5.5 -17.001s-8.16699 -7 -13.5 -7s-9.83301 2.33301 -13.5 7s-5.5 10 -5.5 16z" />
    <glyph glyph-name="J" unicode="J" 
d="M936 149c8 -5.33301 11.666 -10.4971 10.999 -15.4971s-5.66699 -8.83301 -15 -11.5c-62.667 -15.333 -116 -32.333 -160 -51l99 -147c4.66699 -7.33301 6.16699 -15.166 4.5 -23.499s-5.83398 -14.833 -12.501 -19.5l-34 -23
c-6.66699 -4.66699 -14.167 -6.33398 -22.5 -5.00098s-14.833 5.66602 -19.5 12.999l-99 148c-10 -10.667 -20.667 -22.834 -32 -36.501l-31 -38.5l-26 -35l-19 -26l-7 -10c-5.33301 -8 -10.666 -11.333 -15.999 -10s-9 6.66602 -11 15.999l-99 534
c-1.33301 10 0.333984 16.667 5.00098 20s11 2.33301 19 -3zM393.999 -25.9971c14 -4.66699 21 -14.6709 21 -30.0039c0 -8 -3 -15 -9 -21s-13.333 -9 -22 -9h-4c-1.33301 0 -3 0.333008 -5 1c-88 20.667 -161.667 65.667 -221 135
c-68.667 80.667 -102.334 174.334 -101.001 281.001c0.666992 56.667 12 111 34 163c22 50.667 52.333 95.167 91 133.5s83 67.833 133 88.5c52 21.333 106.167 31.833 162.5 31.5s110.166 -11.833 161.499 -34.5c49.333 -22 93 -52.667 131 -92s67 -84.333 87 -135
c16.667 -41.333 26.667 -84.333 30 -129v-4v-1c0 -5.33301 -1.16699 -10.166 -3.5 -14.499s-5.66602 -8 -9.99902 -11s-9.16602 -4.5 -14.499 -4.5h-3h-2h-1c-1.33301 0 -3.33301 0.333008 -6 1c-12 4 -19 12.333 -21 25v5v1c-4.66699 60 -23 115.333 -55 166
s-74 90.834 -126 120.501s-108.333 44.834 -169 45.501c-64 0.666992 -123.333 -14.833 -178 -46.5s-98.167 -75 -130.5 -130s-48.833 -114.833 -49.5 -179.5c-0.666992 -84.667 24.833 -160.167 76.5 -226.5s117.5 -108.833 197.5 -127.5z" />
    <glyph glyph-name="K" unicode="K" 
d="M409 6c12 0 22.168 -4.16504 30.501 -12.498s12.5 -18.333 12.5 -30s-4.16699 -21.5 -12.5 -29.5s-18.5 -12 -30.5 -12h-273c-36.667 0 -68.167 13 -94.5 39s-39.5 57.333 -39.5 94v547c0 37.333 13.167 69 39.5 95s57.833 39 94.5 39h547c24 0 46.333 -6 67 -18
s37 -28.167 49 -48.5s18 -42.833 18 -67.5v-152c0 -11.333 -4.16699 -21.166 -12.5 -29.499s-18.333 -12.5 -30 -12.5s-21.667 4.16699 -30 12.5s-12.5 18.166 -12.5 29.499v152c0 9.33301 -2.16699 17.666 -6.5 24.999s-10.333 13.166 -18 17.499s-15.834 6.5 -24.501 6.5
h-547c-13.333 0 -24.833 -4.66699 -34.5 -14s-14.5 -21 -14.5 -35v-547c0 -13.333 4.83301 -24.833 14.5 -34.5s21.167 -14.5 34.5 -14.5h273zM227.001 554.002h365c11.333 0 21.166 -4.16699 29.499 -12.5s12.5 -18.333 12.5 -30s-4.16699 -21.667 -12.5 -30
s-18.166 -12.5 -29.499 -12.5h-365c-11.333 0 -21.166 4.16699 -29.499 12.5s-12.5 18.333 -12.5 30s4.16699 21.667 12.5 30s18.166 12.5 29.499 12.5zM985.001 -62.998c8.66699 -8.66699 13 -19.001 13 -31.001s-4.33301 -22.333 -13 -31s-19 -13 -31 -13
s-22.333 4.33301 -31 13l-85 85c-38 -25.333 -79.333 -38 -124 -38c-40.667 0 -78.334 10 -113.001 30s-62 47.167 -82 81.5s-30 71.833 -30 112.5s10 78.334 30 113.001s47.333 62 82 82s72.334 30 113.001 30c62 0 114.833 -22 158.5 -66s65.5 -97 65.5 -159
c0 -44.667 -12.667 -86 -38 -124zM714.001 287.001c-25.333 0 -48.833 -6.33301 -70.5 -19s-38.834 -29.834 -51.501 -51.501s-19 -45.167 -19 -70.5c0 -38.667 13.833 -71.667 41.5 -99s60.834 -41 99.501 -41s71.667 13.667 99 41s41 60.333 41 99
s-13.667 71.834 -41 99.501s-60.333 41.5 -99 41.5zM409.001 371.001c12 0 22.167 -4.16699 30.5 -12.5s12.5 -18.333 12.5 -30s-4.16699 -21.5 -12.5 -29.5s-18.5 -12 -30.5 -12h-182c-11.333 0 -21.166 4 -29.499 12s-12.5 17.833 -12.5 29.5s4.16699 21.667 12.5 30
s18.166 12.5 29.499 12.5h182zM349.001 104.001l-121.998 0.000976562c-11.333 0 -21.166 4.16699 -29.499 12.5s-12.5 18.333 -12.5 30s4.16699 21.667 12.5 30s18.166 12.5 29.499 12.5h122c11.333 0 21.166 -4.16699 29.499 -12.5s12.5 -18.5 12.5 -30.5
c0 -7.33301 -1.83301 -14.333 -5.5 -21s-8.83398 -11.834 -15.501 -15.501s-13.667 -5.5 -21 -5.5z" />
    <glyph glyph-name="M" unicode="M" 
d="M771 -118l-15.999 -0.00195312c-48 4 -89 24.333 -123 61s-51 79 -51 127c0 52.667 18.5 97.334 55.5 134.001s81.667 55 134 55s97 -18.333 134 -55s55.5 -81.334 55.5 -134.001c0 -5.33301 -0.333008 -10.666 -1 -15.999
c-2.66699 -31.333 -12.834 -60.166 -30.501 -86.499s-40.5 -47.333 -68.5 -63s-57.667 -23.5 -89 -23.5v1zM771.001 197.998c-32 0 -60.333 -11.333 -85 -34s-38.334 -50.334 -41.001 -83.001c-0.666992 -2.66699 -1 -5.66699 -1 -9c0 -35.333 12.5 -65.333 37.5 -90
s54.833 -37 89.5 -37c32 0 60.333 11.333 85 34s38.334 49.667 41.001 81c0.666992 4 1 7.66699 1 11c0 32 -11.333 60.333 -34 85s-50 38.334 -82 41.001zM973.001 -200.002c-9.33301 0 -17.333 3.66797 -24 11.001l-100 119c-4.66699 5.33301 -7 11.666 -7 18.999
c0 8.66699 3.16699 16 9.5 22s13.833 9 22.5 9s16 -3.33301 22 -10l101 -119c4.66699 -5.33301 7 -12 7 -20c0 -8.66699 -3 -16 -9 -22s-13.333 -9 -22 -9zM27.001 483.999h753v193c0 26.667 -9.5 49.334 -28.5 68.001s-41.833 28 -68.5 28h-560
c-26.667 0 -49.334 -9.33301 -68.001 -28s-28 -41.334 -28 -68.001v-670c0 -26.667 9.33301 -49.5 28 -68.5s41.334 -28.5 68.001 -28.5h375zM141.001 109.999v18h205v-18h-205zM141.001 288.999v18h384v-18h-384zM403.001 604.999v19h297v-19h-297zM167.001 623.499
c0 12.333 4.33301 22.833 13 31.5s19.167 13 31.5 13s23 -4.33301 32 -13s13.5 -19.167 13.5 -31.5s-4.5 -22.833 -13.5 -31.5s-19.667 -13 -32 -13s-22.833 4.33301 -31.5 13s-13 19.167 -13 31.5z" />
    <glyph glyph-name="N" unicode="N" 
d="M844 -58l-15.998 -0.00195312c-22.667 2 -44.5 8.33301 -65.5 19s-39 24.334 -54 41.001s-27 35.834 -36 57.501s-13.5 44.167 -13.5 67.5c0 51.333 18.167 95.166 54.5 131.499s80.166 54.5 131.499 54.5s95 -18.167 131 -54.5s54 -80.166 54 -131.499v-5v-5.5v-4.5
c-2.66699 -31.333 -12.667 -60 -30 -86s-39.833 -46.667 -67.5 -62s-56.834 -23 -87.501 -23zM844.002 252.998l-5.00195 0.000976562c-34.667 0 -64.167 -12.167 -88.5 -36.5s-36.5 -53.833 -36.5 -88.5c0 -32.667 11.667 -61.167 35 -85.5s51.333 -37.166 84 -38.499
c3.33301 -0.666992 6.66602 -1 9.99902 -1c20.667 0 40.334 5.16699 59.001 15.5s33.834 24.166 45.501 41.499s18.5 36.333 20.5 57v11c0 31.333 -11.167 59.166 -33.5 83.499s-49.166 37.833 -80.499 40.5h-10v1zM1043 -138.001c-9.33301 0 -17.333 3.66797 -24 11.001
l-98 117c-5.33301 6 -8 12.667 -8 20c0 8 3 15 9 21s13.333 9 22 9c9.33301 0 17 -3.33301 23 -10l99 -117c5.33301 -6 8 -12.667 8 -20c0 -4 -1.16699 -8.33301 -3.5 -13s-4.83301 -8.33398 -7.5 -11.001c-6 -4.66699 -12.667 -7 -20 -7zM284 303c6 -4.66699 9 -11 9 -19
c0 -6.66699 -2.33301 -12.334 -7 -17.001s-10.334 -7 -17.001 -7c-3.33301 0 -6.33301 0.666992 -9 2l-143 86c-8 4.66699 -12 11.334 -12 20.001c0 4.66699 1.33301 9 4 13c4.66699 8 11.334 12 20.001 12c4.66699 0 9 -1.33301 13 -4zM437 -199c2 -0.666992 4 -1 6 -1
c4 0 8 1 12 3c-3.33301 -2 -7.33301 -3 -12 -3c-2 0 -4 0.333008 -6 1zM284 303l-142 86c-4 2.66699 -8.33301 4 -13 4c-8.66699 0 -15.334 -4 -20.001 -12c-2.66699 -4 -4 -8.33301 -4 -13c0 -8.66699 4 -15.334 12 -20.001l143 -86c2.66699 -1.33301 5.66699 -2 9 -2
c6.66699 0 12.334 2.33301 17.001 7s7 10.334 7 17.001c0 8 -3 14.333 -9 19zM284 303c6 -4.66699 9 -11 9 -19c0 -6.66699 -2.33301 -12.334 -7 -17.001s-10.334 -7 -17.001 -7c-3.33301 0 -6.33301 0.666992 -9 2l-143 86c-8 4.66699 -12 11.334 -12 20.001
c0 4.66699 1.33301 9 4 13c4.66699 8 11.334 12 20.001 12c4.66699 0 9 -1.33301 13 -4zM284 303l-142 86c-4 2.66699 -8.33301 4 -13 4c-8.66699 0 -15.334 -4 -20.001 -12c-2.66699 -4 -4 -8.33301 -4 -13c0 -8.66699 4 -15.334 12 -20.001l143 -86
c2.66699 -1.33301 5.66699 -2 9 -2c6.66699 0 12.334 2.33301 17.001 7s7 10.334 7 17.001c0 8 -3 14.333 -9 19zM284 303c6 -4.66699 9 -11 9 -19c0 -6.66699 -2.33301 -12.334 -7 -17.001s-10.334 -7 -17.001 -7c-3.33301 0 -6.33301 0.666992 -9 2l-143 86
c-8 4.66699 -12 11.334 -12 20.001c0 4.66699 1.33301 9 4 13c4.66699 8 11.334 12 20.001 12c4.66699 0 9 -1.33301 13 -4zM284 303l-142 86c-4 2.66699 -8.33301 4 -13 4c-8.66699 0 -15.334 -4 -20.001 -12c-2.66699 -4 -4 -8.33301 -4 -13
c0 -8.66699 4 -15.334 12 -20.001l143 -86c2.66699 -1.33301 5.66699 -2 9 -2c6.66699 0 12.334 2.33301 17.001 7s7 10.334 7 17.001c0 8 -3 14.333 -9 19zM892 580c8.66699 -4.66699 13.001 -11.999 13.001 -21.999v-3c-1.33301 -6.66699 -4.66602 -12 -9.99902 -16
l-39 -23l-377 -214v-427l10 5l96 55c3.33301 1.33301 6.66602 2 9.99902 2c7.33301 0 13.333 -2.33301 18 -7s7 -10.334 7 -17.001c0 -9.33301 -3.33301 -16.333 -10 -21l-139 -80c-4.66699 -2 -9.33398 -3 -14.001 -3c-6 0 -11.667 1.66699 -17 5
c-2 0.666992 -38 22 -108 64l-208 125.5l-108 65.5c-7.33301 4.66699 -11 11.667 -11 21v453c-0.666992 2 -1 4 -1 6c0 12.667 4.66699 23 14 31l426 213c3.33301 1.33301 7 2 11 2s7.66699 -0.666992 11 -2zM431.001 -123.999v426l-378 215v-414zM455.001 344.001l375 213
l-375 187l-375 -187z" />
    <glyph glyph-name="P" unicode="P" 
d="M318 347l-45 -45zM363 392l45 45l112 -112l-45 -45zM925 459c6 -6 9 -13.332 9 -21.999s-3 -16.334 -9 -23.001l-539 -538c-6.66699 -6 -14.334 -9 -23.001 -9s-16 3 -22 9l-270 269c-2.66699 2.66699 -4.83398 5.5 -6.50098 8.5s-2.66699 6.16699 -3 9.5
s-0.333008 6.5 0 9.5s1.33301 6 3 9s3.83398 5.83301 6.50098 8.5l539 538c6.66699 6.66699 14.334 10 23.001 10s16 -3.33301 22 -10zM835 414.001c6.66699 6.66699 10 14.333 10 23s-3.33301 16 -10 22l-180 180c-6 6 -13.333 9 -22 9s-16.334 -3 -23.001 -9l-365 -364
l-84 -85c-6.66699 -6 -10 -13.5 -10 -22.5s3.33301 -16.5 10 -22.5l180 -179c6 -6.66699 13.333 -10 22 -10s16.334 3.33301 23.001 10zM481 509l62 62l-18 -17l113 -112l-45 -45zM498 526l-45 -44zM403 207l-62 -62l17 18l-113 112l45 45z" />
    <glyph glyph-name="Q" unicode="Q" 
d="M191 -37v319h197v-319h-197zM243 239v-232h98v232h-98zM933 767c14.667 0 27 -5 37 -15s14.667 -22 14 -36v-730c0 -14 -5 -26 -15 -36s-22 -15 -36 -15h-71v-66c0 -14 -6 -26.333 -18 -37s-25 -16 -39 -16h-721c-14 0 -26 5 -36 15s-15 22 -15 36v730c0 14 5 26 15 36
s22 15 36 15h77v68c0 14 5 26 15 36s22 15 36 15h721zM796 -80l0.00195312 628c0 10 -3.5 19.167 -10.5 27.5s-16.5 12.166 -28.5 11.499h-620c-10 0 -19 -3.66699 -27 -11s-12 -16.666 -12 -27.999v-628c0 -9.33301 4.16699 -18.166 12.5 -26.499
s17.166 -12.5 26.499 -12.5h620c9.33301 0 18.166 4.16699 26.499 12.5s12.5 17.166 12.5 26.499zM919.002 35l-0.000976562 626.999c0.666992 10 -2.83301 19 -10.5 27s-17.167 12 -28.5 12h-619c-23.333 0 -34.666 -13 -33.999 -39v-14h578
c14.667 0 27.667 -4.83301 39 -14.5s17 -21.5 17 -35.5l1 -603h18c4 0 8.5 1.16699 13.5 3.5s9.33301 5.5 13 9.5s6.66699 8.33301 9 13s3.5 9.33398 3.5 14.001zM191.001 322.999v170h515v-170h-515zM238.001 449.999v-84h420v84h-420zM443.001 -37.001v319h263v-319h-263z
M490.001 238.999v-232h168v232h-168z" />
    <glyph glyph-name="S" unicode="S" 
d="M902 572l-578 -578l-228 228l579 578zM645 714l-29 -29l143 -142l29 28zM558 627l-28 -29l85 -85l29 29zM472 540l-29 -29l85 -85l29 29zM385 453l-29 -28l85 -86l29 29zM298 367l-29 -29l86 -85l29 28zM212 280l-29 -29l142 -142l29 29zM739 -84v47h161v-162h-161v47
h-480v-40h-161v161h161v-53h480zM207 -139v55h-54v-55h54zM793 -91v-55h54v55h-54z" />
    <glyph glyph-name="T" unicode="T" 
d="M487 798c2.66699 -2.66699 3.66699 -4.33203 3 -4.99902s-3 1.66602 -7 6.99902zM919 579.002l-48.999 0.000976562v-98v-1v-2v-412h49c8 0 15 -2.83301 21 -8.5s9 -12.834 9 -21.501v-155c0 -8 -3 -14.833 -9 -20.5s-13 -8.5 -21 -8.5h-157
c-8 0 -14.833 2.83301 -20.5 8.5s-8.5 12.5 -8.5 20.5v49h-517v-49c0 -8 -2.83301 -14.833 -8.5 -20.5s-12.834 -8.5 -21.501 -8.5h-156h-1c-8 0 -14.833 2.83301 -20.5 8.5s-8.5 12.5 -8.5 20.5v156c-0 8 2.83301 14.833 8.5 20.5s12.5 8.5 20.5 8.5h1h48v513h-48h-1
c-8 0 -14.833 2.83301 -20.5 8.5s-8.5 12.5 -8.5 20.5v155c-0 8.66699 2.83301 15.834 8.5 21.501s12.5 8.5 20.5 8.5h1h156c8.66699 0 15.834 -2.83301 21.501 -8.5s8.5 -12.834 8.5 -21.501v-48h412h4h5h96v48c0 8.66699 2.83301 15.834 8.5 21.501s12.5 8.5 20.5 8.5h157
c8 0 15 -2.83301 21 -8.5s9 -12.834 9 -21.501v-155c0 -8 -2.83301 -14.833 -8.5 -20.5s-12.834 -8.5 -21.501 -8.5zM138.001 372.003v-135.001l422 419h-135l-282 -280c-2 -1.33301 -3.66699 -2.66602 -5 -3.99902zM186.001 579.002h-48v-125l203 202h-125v-48
c0 -8 -2.83301 -14.833 -8.5 -20.5s-12.5 -8.5 -20.5 -8.5h-1zM138.001 154.002v-88h36l559 554v36h-89zM811.001 277.002v132l-424 -421h135c1.33301 2.66699 3 5 5 7zM762.001 66.002l49 -0.000976562v128l-207 -206h129v48c0 8.66699 2.83301 15.834 8.5 21.501
s12.5 8.5 20.5 8.5zM811.001 492.001v87h-36l-559 -555v-36h87z" />
    <glyph glyph-name="U" unicode="U" 
d="M0 743c0 15.333 5.66699 28.666 17 39.999s24.666 17 39.999 17h863c15.333 0 28.666 -5.66699 39.999 -17s17 -24.666 17 -39.999v-863c0 -15.333 -5.66699 -28.666 -17 -39.999s-24.666 -17 -39.999 -17h-863c-15.333 0 -28.666 5.66699 -39.999 17
s-17 24.666 -17 39.999v863zM879 -107c7.33301 0 13.833 2.83301 19.5 8.5s8.5 12.167 8.5 19.5v781c0 7.33301 -2.83301 13.833 -8.5 19.5s-12.167 8.5 -19.5 8.5h-781c-7.33301 0 -13.833 -2.83301 -19.5 -8.5s-8.5 -12.167 -8.5 -19.5v-781
c0 -7.33301 2.83301 -13.833 8.5 -19.5s12.167 -8.5 19.5 -8.5h781zM419 346v140h-135l201 200l200 -200h-127v-140h-139zM685 137l-200 -200l-201 200h135v140h139v-140h127z" />
    <glyph glyph-name="V" unicode="V" 
d="M268.5 280.5c5.66699 -2.33301 9.33203 -6.00195 10.999 -11.002s1.16699 -9.83301 -1.5 -14.5l-15 -23c-4 -7.33301 -11 -11 -21 -11c-3.33301 0 -6.66602 0.666992 -9.99902 2c-5.33301 2.66699 -9 6.33398 -11 11.001s-1.66699 9.33398 1 14.001
c3.33301 6.66699 8.33301 15 15 25c3.33301 4.66699 8 7.66699 14 9s11.833 0.833008 17.5 -1.5zM304.998 368.998c4 4.66699 9 7.16797 15 7.50098s11.333 -1.33398 16 -5.00098s7.16699 -8.33398 7.5 -14.001s-1.16699 -10.5 -4.5 -14.5c-6 -6 -12 -13 -18 -21
c-4 -5.33301 -10 -8 -18 -8c-4.66699 0 -9 1.33301 -13 4c-4.66699 3.33301 -7.5 7.83301 -8.5 13.5s0.5 10.834 4.5 15.501c6 8 12.333 15.333 19 22zM432.998 411.999l2.00391 -2.99805c6 -10.667 5 -20 -3 -28c-2.66699 -2.66699 -5.66699 -4 -9 -4
c-5.33301 0 -9.33301 2.66699 -12 8l-2 3c-4.66699 7.33301 -9 11 -13 11h-3c-2.66699 -0.666992 -5.33398 -0.5 -8.00098 0.5s-4.83398 2.83301 -6.50098 5.5s-2.83398 6 -3.50098 10c-0.666992 5.33301 0.166016 10.166 2.49902 14.499s5.5 7.16602 9.5 8.49902
c2.66699 0.666992 5.66699 1 9 1c14 0 26.333 -9 37 -27zM473.002 338.001c10 -14 18.001 -24.666 24.001 -31.999c2.66699 -3.33301 3.5 -7 2.5 -11s-3.83301 -7.33301 -8.5 -10c-2.66699 -1.33301 -6 -2 -10 -2c-6.66699 0 -12 2.33301 -16 7l-24 33
c-2.66699 4 -3.33398 7.83301 -2.00098 11.5s4.33301 6.5 9 8.5c10.667 5.33301 19 3.66602 25 -5.00098zM650.003 311.002c3.33301 -2.66699 5.33398 -6.16602 6.00098 -10.499s-0.333008 -8.16602 -3 -11.499c-10.667 -12.667 -21 -23.334 -31 -32.001
c-3.33301 -3.33301 -7.33301 -5 -12 -5s-8.66699 1.66699 -12 5s-5 7.16602 -5 11.499s1.66699 7.83301 5 10.5c9.33301 8 18.666 17.667 27.999 29c6.66699 8.66699 14.667 9.66699 24 3zM570.004 236.003c6 0.666992 11.3369 -1 16.0039 -5s7.16699 -9.16699 7.5 -15.5
s-1.33398 -12 -5.00098 -17s-8.5 -7.5 -14.5 -7.5c-2.66699 -0.666992 -5.33398 -1 -8.00098 -1c-20 0 -39.333 7.33301 -58 22c-4.66699 4 -7.33398 9 -8.00098 15s0.666016 11.5 3.99902 16.5s8 8 14 9s11.333 -0.5 16 -4.5c12 -9.33301 24 -13.333 36 -12z
M706.508 373.003c5.66699 -2.66699 9.33301 -6.49902 11 -11.499s0.833984 -9.83301 -2.49902 -14.5c-4.66699 -7.33301 -10 -15 -16 -23c-4 -6.66699 -10.333 -10 -19 -10c-4.66699 0 -8.66699 1 -12 3c-5.33301 2.66699 -8.83301 6.66699 -10.5 12
s-0.833984 10.333 2.49902 15l15 22c3.33301 4.66699 8 7.66699 14 9s11.833 0.666016 17.5 -2.00098zM747.007 522.004l12.0039 -27.998l28 12c2 0.666992 3.83301 1 5.5 1s3.5 -0.166992 5.5 -0.5s3.66699 -1 5 -2s2.66602 -2.16699 3.99902 -3.5s2.33301 -3 3 -5
c2 -4.66699 2.16699 -9.16699 0.5 -13.5s-4.83398 -7.5 -9.50098 -9.5l-29 -12l12 -28c2 -4.66699 2.16699 -9.33398 0.5 -14.001s-4.83398 -8 -9.50098 -10c-2.66699 -0.666992 -5 -1 -7 -1c-8 0 -13.333 3.66699 -16 11l-12 28l-29 -12c-2 -0.666992 -4 -1 -6 -1
c-8 0 -13.667 3.66699 -17 11c-0.666992 3.33301 -0.833984 6.5 -0.500977 9.5s1.33301 5.66699 3 8s4.16699 4.16602 7.5 5.49902l28 12l-12 29c-2 4 -2 8.33301 0 13s5.33301 8 10 10s9.16699 2 13.5 0s7.5 -5.33301 9.5 -10zM937.011 65.0059l-0.00390625 -6.00293v-7
c0 -1.33301 -0.166992 -3.66602 -0.5 -6.99902s-1.16602 -5.5 -2.49902 -6.5s-3.16602 -2.5 -5.49902 -4.5s-5.33301 -2.66699 -9 -2s-8.16699 1.33398 -13.5 2.00098l-94 18v60l62 -16v499l-124 32l-219 -94c-10 -4.66699 -20.333 -4.66699 -31 0l-187 94l-188 -63v-499
l188 62l156 -78v-62l-156 78l-188 -94c-7.33301 -2.66699 -20.333 2.33301 -39 15c-2 0.666992 -5.16699 1.83398 -9.5 3.50098s-7.66602 3.5 -9.99902 5.5s-3.5 4.33301 -3.5 7v562c0 6 3.5 12.167 10.5 18.5s13.833 10.5 20.5 12.5l219 94l187 -94l218 94
c7.33301 3.33301 18 3.33301 32 0l156 -31c4.66699 -1.33301 9.33398 -3.5 14.001 -6.5s8.66699 -6.83301 12 -11.5s5 -9 5 -13v-562zM508.007 101.003h269v-192h-269v192z" />
    <glyph glyph-name="W" unicode="W" 
d="M833 514l28.001 -173.001c-8 1.33301 -24.667 4.33301 -50 9s-44.333 8.5 -57 11.5s-28.334 7.83301 -47.001 14.5s-34.667 14 -48 22c27.333 12.667 52 25.334 74 38.001s38.833 23.5 50.5 32.5s21.5 17 29.5 24s13.333 12.5 16 16.5zM372.001 369.999l-58 -115
l-116 -28l29 173c34.667 -14 83 -24 145 -30zM198.001 196.999l224 14l92 -100c-22 8 -45.5 14.833 -70.5 20.5s-48.333 9.5 -70 11.5s-43 3.5 -64 4.5s-39.833 1 -56.5 0s-31.5 -2.16699 -44.5 -3.5l-29.5 -3l-10 -2zM544.001 110.999l-85.999 144h-116l58 115
c1.33301 0 3.33301 -0.333008 6 -1s8.5 -1.33398 17.5 -2.00098s18.167 -1.16699 27.5 -1.5s21.166 0 35.499 1s28.666 2.5 42.999 4.5s30.333 5.33301 48 10s35.167 10.334 52.5 17.001c14 -14.667 27.167 -26.5 39.5 -35.5s27.333 -17 45 -24s37.5 -12.333 59.5 -16
s50.333 -7.16699 85 -10.5v-85l-86 -29l-57 -143c0 -0.666992 -2.16699 0 -6.5 2s-11.666 5 -21.999 9l-35 13c-13 4.66699 -29.167 10 -48.5 16s-39.333 11.333 -60 16zM947.002 138.999l-201.998 -144.002h-28c-34.667 1.33301 -80 9 -136 23l-172.5 41.5
c-59 13.667 -109.833 20.834 -152.5 21.501c-22.667 0.666992 -48.334 -1.33301 -77.001 -6s-52 -9.33398 -70 -14.001l-26 -8l115 519l58 28l28 -28l-57 -28l-86 -433c59.333 9.33301 120.333 9.83301 183 1.5s116.167 -19.666 160.5 -33.999s90.833 -27.5 139.5 -39.5
s89 -16.667 121 -14c3.33301 6 6.83301 13.167 10.5 21.5l11 25.5l11 27l10 26.5l8 22c2.33301 6.33301 4.16602 11.5 5.49902 15.5l2 6h116l-58 375c-56.667 -4 -133.167 -3.66699 -229.5 1s-178.166 10.334 -245.499 17.001l-102 10l-28 28c8 -0.666992 19 -1.5 33 -2.5
s41.333 -2.83301 82 -5.5l117.5 -7.5l127 -7.5c47 -2.66699 88.333 -4.66699 124 -6s67.667 -2 96 -2s46.166 1 53.499 3zM573.004 513.997c14.667 -3.33301 43.332 -3.83398 85.999 -1.50098s72 2.83301 88 1.5l-21.5 -17.5l-23 -20
c-7 -6.33301 -14.5 -12.666 -22.5 -18.999s-16.167 -12 -24.5 -17s-16.5 -9.16699 -24.5 -12.5c-39.333 30 -77.666 68.667 -114.999 116c4.66699 -1.33301 10.667 -4.33301 18 -9l21.5 -13.5c7 -4.33301 12.833 -6.83301 17.5 -7.5zM430.002 485.996
c6 6.66699 15.832 16.5 29.499 29.5s23.167 22.5 28.5 28.5c14.667 -20.667 31.834 -40.667 51.501 -60s40.834 -38 63.501 -56c-53.333 -18.667 -111 -28 -173 -28c-64.667 0 -122.667 9.33301 -174 28v86c37.333 18.667 56.666 28 57.999 28
c4.66699 -5.33301 9 -14.5 13 -27.5s9 -23.167 15 -30.5l58 -57z" />
    <glyph glyph-name="X" unicode="X" 
d="M959 -182h-915.001c-5.33301 0 -10.5 1.33301 -15.5 4s-9.66699 6 -14 10s-7.5 8 -9.5 12c-2.66699 6 -4 12 -4 18c0 11.333 3.66699 21.333 11 30l702 772c8.66699 11.333 20.334 17 35.001 17c12 0 22.333 -4.33301 31 -13s13 -19 13 -31
c0 -12.667 -4.66699 -23.334 -14 -32.001l-635 -699h815c12 0 22.333 -4.16699 31 -12.5s13 -18.666 13 -30.999s-4.33301 -22.833 -13 -31.5s-19 -13 -31 -13zM805.499 620l-1.5 0.000976562c-3.33301 0 -6.66602 0.333008 -9.99902 1c-24 0.666992 -44.5 9.66699 -61.5 27
s-25.5 38 -25.5 62c0 25.333 8.66699 46.666 26 63.999s38.666 26 63.999 26c16 0 30.833 -4 44.5 -12s24.5 -18.833 32.5 -32.5s12 -28.834 12 -45.501c0.666992 -2 1 -4.33301 1 -7c0 -11.333 -3.16699 -23.666 -9.5 -36.999s-13.833 -23.333 -22.5 -30
c-14.667 -10.667 -31 -16 -49 -16h-0.5zM801.999 653.001h5c10.667 0 20.667 3 30 9c11.333 12 17 26 17 42c0 2 -0.333008 4 -1 6c0 15.333 -5.5 28.5 -16.5 39.5s-24.333 16.5 -40 16.5s-29 -5.5 -40 -16.5s-16.5 -24.333 -16.5 -40s5.5 -29 16.5 -40
s24.5 -16.5 40.5 -16.5h2.5h2.5zM1056 -199.999l-1.00195 0.000976562c-3.33301 0 -6.66602 0.333008 -9.99902 1c-24 1.33301 -44.333 10.666 -61 27.999s-25 38 -25 62c0 24.667 8.83301 45.667 26.5 63s38.834 26 63.501 26s45.667 -8.66699 63 -26s26 -38.333 26 -63v-6
c0 -12 -3.16699 -24.667 -9.5 -38s-13.833 -23.666 -22.5 -30.999c-4 -2.66699 -9 -5.33398 -15 -8.00098s-12 -4.66699 -18 -6s-11.667 -2 -17 -2zM1053 -166.998h1.5h2.5c11.333 0 21.333 3.33301 30 10c11.333 12 17 26 17 42v6c0 7.33301 -1.5 14.5 -4.5 21.5
s-7 13 -12 18s-11 9 -18 12s-14.5 4.5 -22.5 4.5c-15.333 0 -28.5 -5.5 -39.5 -16.5s-16.5 -24.333 -16.5 -40s5.5 -29 16.5 -40s24.167 -16.5 39.5 -16.5h1c1.33301 0 3 -0.333008 5 -1zM627.997 -57.998c-0.666992 -0.666992 -1.33203 -1 -1.99902 -1
s-1.66699 0.333008 -3 1c-4.66699 0.666992 -8.66699 3.16699 -12 7.5s-5 8.83301 -5 13.5c0 2 0.333008 3.66699 1 5c4 20.667 6.16699 40 6.5 58s-1 33.833 -4 47.5s-7.16699 26.5 -12.5 38.5s-11.333 22.167 -18 30.5s-13.834 16 -21.501 23s-14.667 12.5 -21 16.5
s-12.833 7.66699 -19.5 11s-11.5 5.5 -14.5 6.5s-5.16699 1.83301 -6.5 2.5c-4.66699 0.666992 -8.5 3.16699 -11.5 7.5s-4.5 8.83301 -4.5 13.5c0 6 2.16699 11.167 6.5 15.5s9.5 6.5 15.5 6.5c2 0 4 -0.333008 6 -1c2 0 8.66699 -2.5 20 -7.5s26.166 -14 44.499 -27
s34.5 -30.167 48.5 -51.5s24.833 -48.5 32.5 -81.5s6.5 -72.167 -3.5 -117.5c-0.666992 -4.66699 -3.16699 -8.66699 -7.5 -12s-9.16602 -5 -14.499 -5z" />
    <glyph glyph-name="Y" unicode="Y" 
d="M730 92c128 -25.333 192 -65.334 192 -120.001c0 -28.667 -19 -53.667 -57 -75s-88.667 -37.666 -152 -48.999s-134.333 -17 -213 -17s-149.667 5.66699 -213 17s-114 27.666 -152 48.999s-57 46.333 -57 75c0 27.333 15.5 50.666 46.5 69.999s75.5 35 133.5 47
c8.66699 2.66699 16.667 1.5 24 -3.5s11.333 -11.5 12 -19.5c2 -8.66699 0.666992 -16.834 -4 -24.501s-11.334 -12.167 -20.001 -13.5c-25.333 -5.33301 -48.166 -11.666 -68.499 -18.999s-35.5 -14.333 -45.5 -21s-15 -12 -15 -16c0 -3.33301 6 -9 18 -17
c18.667 -12 43.667 -22.667 75 -32c70.667 -20.667 160 -31 268 -31c106 0 195 10.333 267 31c31.333 9.33301 56.333 20 75 32c11.333 8.66699 17 14.334 17 17.001c0 4.66699 -5.5 10.5 -16.5 17.5s-27.667 14.333 -50 22s-47.5 14.167 -75.5 19.5
c-8.66699 2 -15.5 6.33301 -20.5 13s-6.66699 14.334 -5 23.001s6 15.5 13 20.5s14.833 6.5 23.5 4.5zM263 332.999h1.00098c-30.667 46.667 -46 98 -46 154c0 78 27.5 144.5 82.5 199.5s121.5 82.5 199.5 82.5s144.5 -27.5 199.5 -82.5s82.5 -121.5 82.5 -199.5
c0 -56 -15.333 -107.333 -46 -154h1l-212 -338c-5.33301 -10 -13.833 -15 -25.5 -15s-19.834 5 -24.501 15zM500.001 614.999c-35.333 0 -65.5 -12.498 -90.5 -37.498s-37.5 -55.167 -37.5 -90.5c0 -23.333 5.66699 -44.833 17 -64.5s26.833 -35.334 46.5 -47.001
s41.167 -17.5 64.5 -17.5c35.333 0 65.5 12.667 90.5 38s37.5 55.666 37.5 90.999s-12.5 65.5 -37.5 90.5s-55.167 37.5 -90.5 37.5z" />
    <glyph glyph-name="Z" unicode="Z" 
d="M689 109h-414v414h448v-414h-34zM689 144v184l-215 -184h215zM689 351v114l-354 -321h112l-11 13l241 207zM309 489v-150l180 150h-180zM309 316v-149l354 322h-147l11 -14l-207 -172zM930 -11l-138 -87v69h-655v587h-69l86 138l86 -138h-69v-552h621v69z" />
    <glyph glyph-name="bracketleft" unicode="[" 
d="M1006 380c-30 0 -56.833 -10.5 -80.5 -31.5s-37.5 -46.167 -41.5 -75.5h122c4.66699 0 8.66699 -1.66699 12 -5s5 -7.33301 5 -12v-238c0 -4.66699 -1.66699 -8.66699 -5 -12s-7.33301 -5 -12 -5h-777c-4.66699 0 -8.66699 1.66699 -12 5s-5 7.33301 -5 12v581
c0 4.66699 1.66699 8.66699 5 12s7.33301 5 12 5h777c4.66699 0 8.66699 -1.66699 12 -5s5 -7.33301 5 -12v-202c0 -4.66699 -1.66699 -8.66699 -5 -12s-7.33301 -5 -12 -5zM969 579v-21h21v21h-21zM246 579v-21h21v21h-21zM246 524l0.000976562 -191.999h56v124
c0 4.66699 1.66699 8.66699 5 12s7.33301 5 12 5c39.333 0 74.166 -13.833 104.499 -41.5s47.5 -60.834 51.5 -99.501h261v250h-436v-41c0 -4.66699 -1.66699 -8.66699 -5 -12s-7.33301 -5 -12 -5h-37zM267.001 36.001v22h-21v-22h21zM737.001 34.001l-1 41h-123
c-4.66699 0 -8.66699 1.66699 -12 5s-5 7.33301 -5 12v1c0 19.333 5 40.5 15 63.5s22.333 40.833 37 53.5c10 9.33301 23.667 17.833 41 25.5s33 12.5 47 14.5v48h-277h-1c-4 0 -7.66699 1.66699 -11 5s-5 7.33301 -5 12c0 29.333 -10.333 56 -31 80s-45.667 38.333 -75 43
v-123c0 -4.66699 -1.66699 -8.66699 -5 -12s-7.33301 -5 -12 -5h-73v-206h37c4.66699 0 8.66699 -1.66699 12 -5s5 -7.33301 5 -12v-41h437zM990.001 36.001v22h-21v-22h21zM849.001 256.001c0 39.333 13.6689 74.1709 41.002 104.504s60.333 47.833 99 52.5v112h-37
c-4.66699 0 -8.66699 1.66699 -12 5s-5 7.33301 -5 12v40h-165v-350c0 -2.66699 -0.833008 -5.33398 -2.5 -8.00098s-3.83398 -4.83398 -6.50098 -6.50098s-5.33398 -2.5 -8.00098 -2.5c-29.333 0 -56 -10.333 -80 -31s-38 -45.334 -42 -74.001h122
c4.66699 0 8.66699 -1.83301 12 -5.5s5 -7.83398 5 -12.501v-58h165v40c0 4.66699 1.66699 8.66699 5 12s7.33301 5 12 5h37v148h-123c-4.66699 0 -8.66699 1.66699 -12 5s-5 7.33301 -5 12zM226.003 -143.994c4.66699 0 8.83398 -1.66602 12.501 -4.99902
s5.5 -7.5 5.5 -12.5s-1.83301 -9.16699 -5.5 -12.5s-7.83398 -5 -12.501 -5h-188c-4.66699 0 -8.66699 1.66699 -12 5s-5 7.66602 -5 12.999v923c0 4.66699 1.66699 8.66699 5 12s7.33301 5 12 5h770c4.66699 0 8.66699 -1.66699 12 -5s5 -7.5 5 -12.5
s-1.66699 -9.16699 -5 -12.5s-7.33301 -5 -12 -5h-751v-888h169zM226.003 -199.993l-188 0.00488281c-10 0 -18.833 3.83301 -26.5 11.5s-11.5 16.5 -11.5 26.5v1v922v1c0 10 3.83301 18.833 11.5 26.5s16.5 11.5 26.5 11.5h770c10 -0.666992 18.5 -4.83398 25.5 -12.501
s10.5 -16.334 10.5 -26.001s-3.5 -18.334 -10.5 -26.001s-15.5 -11.834 -25.5 -12.501h-731v-846h149c10.667 0 19.834 -3.83301 27.501 -11.5s11.5 -16.834 11.5 -27.501s-3.83301 -19.667 -11.5 -27s-16.834 -11 -27.501 -11zM1194 779.012
c4.66699 0 8.83398 -1.66797 12.501 -5.00098s5.5 -7.66602 5.5 -12.999v-923c0 -4.66699 -1.83301 -8.66699 -5.5 -12s-7.83398 -5 -12.501 -5h-788c-4.66699 0 -8.83398 1.66699 -12.501 5s-5.5 7.5 -5.5 12.5s1.83301 9.16699 5.5 12.5s7.83398 5 12.501 5h771v888h-208
c-5.33301 0 -9.66602 1.66699 -12.999 5s-5 7.5 -5 12.5s1.66699 9.16699 5 12.5s7.66602 5 12.999 5h225zM1194 -199.989l-788 -0.00195312c-10.667 0 -19.834 3.83301 -27.501 11.5s-11.5 16.834 -11.5 27.501s3.83301 19.667 11.5 27s16.834 11 27.501 11h749v846h-186
c-10 0.666992 -18.5 4.83398 -25.5 12.501s-10.5 16.5 -10.5 26.5c0 6 1.5 12 4.5 18s7.33301 10.667 13 14s11.834 5.33301 18.501 6h225c6.66699 0 13 -1.66699 19 -5s10.667 -8 14 -14s5.33301 -12.333 6 -19v-923c0 -7.33301 -1.83301 -14 -5.5 -20
s-8.33398 -10.667 -14.001 -14s-12.167 -5 -19.5 -5z" />
    <glyph glyph-name="backslash" unicode="\" 
d="M191 260c2 -12 4.33301 -23.667 7 -35l-39 -9c-3.33301 13.333 -6 27 -8 41l22 3h-78c-11.333 0 -20.833 3.83301 -28.5 11.5s-11.5 17.167 -11.5 28.5s3.83301 20.833 11.5 28.5s17.167 11.5 28.5 11.5h56v1v1l17 -2h57c10.667 0 20 -3.83301 28 -11.5
s12 -17.167 12 -28.5c0 -7.33301 -1.83301 -14 -5.5 -20s-8.5 -10.833 -14.5 -14.5s-12.667 -5.5 -20 -5.5h-34zM224 155l-34.999 -19.001c-6.66699 12.667 -12.334 25.667 -17.001 39l37 14c4.66699 -11.333 9.66699 -22.666 15 -33.999zM337.001 -11.001l19 35
c10.667 -5.33301 22 -10.333 34 -15l-14 -38c-13.333 5.33301 -26.333 11.333 -39 18zM209.001 409.999c-4.66699 -12 -8.33301 -23.999 -11 -35.999l-39 10c3.33301 13.333 7.33301 26.666 12 39.999zM355.002 575c-11.333 -5.33301 -22 -11.667 -32 -19l-23 33
c12 8 24 15.333 36 22zM224.002 443.999l-35 19c6.66699 12.667 14 24.667 22 36l33 -22c-7.33301 -10.667 -14 -21.667 -20 -33zM425.002 601.999c-12 -2.66699 -23.999 -6.33203 -35.999 -10.999l-14 37c13.333 5.33301 26.666 9.66602 39.999 12.999zM540.003 -27.999
l2.00098 -21h-1h-1v-56c0 -11.333 -3.83301 -20.833 -11.5 -28.5s-17.167 -11.5 -28.5 -11.5s-20.833 3.83301 -28.5 11.5s-11.5 17.167 -11.5 28.5v74l-2 -18c-14 2 -28 4.66699 -42 8l10 39c11.333 -2.66699 22.666 -5 33.999 -7v34c0 10.667 3.83301 20 11.5 28
s17.167 12 28.5 12s20.833 -4 28.5 -12s11.5 -17.333 11.5 -28v-53zM775.004 445.001l35.999 19.001c6.66699 -12.667 12.334 -25.667 17.001 -39l-37 -14c-4.66699 11.333 -10 22.666 -16 33.999zM776.003 155.002l35 -18.001c-6.66699 -12.667 -14 -25 -22 -37l-33 23
c7.33301 10.667 14 21.334 20 32.001zM791.003 190.001c4.66699 11.333 8.33203 23.333 10.999 36l39 -10c-3.33301 -14 -7.66602 -27.667 -12.999 -41zM645.001 24.001c10.667 6 21.333 12.667 32 20l23 -33c-12 -8 -24.333 -15.333 -37 -22zM542 649.001
c14 -2 27.999 -4.66699 41.999 -8l-10 -39c-11.333 2.66699 -22.666 5 -33.999 7v-34c0 -10.667 -3.83301 -20 -11.5 -28s-17.167 -12 -28.5 -12s-20.833 4 -28.5 12s-11.5 17.333 -11.5 28v50l-3 24h3v56c0 7.33301 1.83301 14 5.5 20s8.5 10.833 14.5 14.5
s12.667 5.5 20 5.5c11.333 0 20.833 -3.83301 28.5 -11.5s11.5 -17.167 11.5 -28.5v-72zM574.999 -1.99902c12 2.66699 23.667 6.33203 35 10.999l15 -37c-13.333 -5.33301 -27 -9.66602 -41 -12.999zM623.999 628.999c13.333 -5.33301 26.333 -11.333 39 -18l-19 -35
c-10.667 6 -22 11 -34 15zM276.999 465.999l-92 92c-7.33301 8 -11 17.5 -11 28.5s3.83301 20.333 11.5 28s17 11.5 28 11.5s20.5 -3.66699 28.5 -11l92 -92c7.33301 -8 11 -17.5 11 -28.5s-3.83301 -20.333 -11.5 -28s-17 -11.5 -28 -11.5s-20.5 3.66699 -28.5 11z
M333.499 133.499c7.66699 -7.66699 11.5 -17.001 11.5 -28.001s-3.66699 -20.5 -11 -28.5l-24 -24l13 -9l-22 -33c-6.66699 4.66699 -13 9.33398 -19 14.001l-40 -40c-8 -7.33301 -17.5 -11 -28.5 -11s-20.333 3.83301 -28 11.5s-11.5 17 -11.5 28s3.66699 20.5 11 28.5
l40 40l-14 18l33 23l9 -13l24 24c8 7.33301 17.5 11 28.5 11s20.333 -3.83301 28 -11.5zM722.999 133.998l92 -92c7.33301 -8 11 -17.5 11 -28.5s-3.83301 -20.333 -11.5 -28s-17 -11.5 -28 -11.5s-20.5 3.66699 -28.5 11l-92 92c-7.33301 8 -11 17.5 -11 28.5
s3.83301 20.333 11.5 28s17 11.5 28 11.5s20.5 -3.66699 28.5 -11zM904.999 339.998c11.333 0 20.833 -3.83301 28.5 -11.5s11.5 -17.167 11.5 -28.5s-3.83301 -20.833 -11.5 -28.5s-17.167 -11.5 -28.5 -11.5h-56v-1v-1l-20 2h-54c-10.667 0 -20 3.83301 -28 11.5
s-12 17.167 -12 28.5s4 20.833 12 28.5s17.333 11.5 28 11.5h34c-2 12 -4.33301 23.667 -7 35l39 10c3.33301 -14 6 -28 8 -42l-25 -3h81zM666.499 466.498c-7.66699 7.66699 -11.499 17 -11.499 28s3.66699 20.5 11 28.5l24 24
c-4.66699 3.33301 -9.33398 6.33301 -14.001 9l23 33c6.66699 -4 13 -8.66699 19 -14l40 40c8 7.33301 17.5 11 28.5 11s20.333 -3.83301 28 -11.5s11.5 -17 11.5 -28s-3.66699 -20.5 -11 -28.5l-40 -40l14 -18l-33 -23l-9 13l-24 -24c-8 -7.33301 -17.5 -11 -28.5 -11
s-20.333 3.83301 -28 11.5z" />
    <glyph glyph-name="bracketright" unicode="]" 
d="M110 526c28.667 14 54.3369 21.0029 77.0039 21.0029c9.33301 0 21.833 -2.16699 37.5 -6.5s30.334 -9 44.001 -14s22.5 -7.5 26.5 -7.5c3.33301 -0.666992 19.5 3.83301 48.5 13.5s48.5 14.5 58.5 14.5c10.667 0 28.167 -4.5 52.5 -13.5s39.5 -13.833 45.5 -14.5
c7.33301 -0.666992 23.333 3.66602 48 12.999s43.334 14.333 56.001 15c13.333 1.33301 30.166 -3 50.499 -13s34.166 -15 41.499 -15s17.833 2.33301 31.5 7s28.5 9.33398 44.5 14.001s30.333 7 43 7c15.333 0.666992 32.333 -3.33301 51 -12s31 -12.334 37 -11.001v-62
c-4.66699 2 -10.834 4.83301 -18.501 8.5s-19.5 8.33398 -35.5 14.001s-27 8.5 -33 8.5c-6 -0.666992 -22.333 -6 -49 -16s-45.334 -15 -56.001 -15c-9.33301 0 -25.833 3.16699 -49.5 9.5s-39.834 9.5 -48.501 9.5c-8 0 -25.333 -4.33301 -52 -13s-44.667 -12.667 -54 -12
c-8 0 -22.833 4 -44.5 12s-38.167 12 -49.5 12c-10.667 0 -28.5 -4.16699 -53.5 -12.5s-42.833 -12.166 -53.5 -11.499c-8.66699 0 -22.167 4.16699 -40.5 12.5s-34.833 12.166 -49.5 11.499c-12 -0.666992 -26.333 -3.33398 -43 -8.00098s-30.834 -8.83398 -42.501 -12.501
s-18.5 -4.83398 -20.5 -3.50098v70zM110.003 405.003c28.667 14 54.334 21.0039 77.001 21.0039c9.33301 0 21.833 -2.33301 37.5 -7s30.334 -9.33398 44.001 -14.001s22.5 -7 26.5 -7c3.33301 -0.666992 19.5 3.83301 48.5 13.5s48.5 14.5 58.5 14.5
c10.667 0 28.167 -4.66699 52.5 -14s39.5 -14 45.5 -14c7.33301 -0.666992 23.333 3.66602 48 12.999s43.334 14.333 56.001 15c13.333 0.666992 30.166 -3.83301 50.499 -13.5s34.333 -14.5 42 -14.5s25.334 4.5 53.001 13.5s49.5 13.833 65.5 14.5
c15.333 0.666992 32.333 -3.5 51 -12.5s31 -12.5 37 -10.5v-62c-4.66699 2 -10.834 4.83301 -18.501 8.5s-19.5 8.33398 -35.5 14.001s-27 8.16699 -33 7.5c-6 0 -15.667 -2.66699 -29 -8s-27.333 -10.333 -42 -15s-26 -7 -34 -7c-9.33301 0 -25.833 3.16699 -49.5 9.5
s-39.834 9.5 -48.501 9.5c-8 0 -25.333 -4.33301 -52 -13s-44.667 -13 -54 -13c-8 0.666992 -22.833 5 -44.5 13s-38.167 12 -49.5 12c-10.667 0 -28.5 -4.16699 -53.5 -12.5s-42.833 -12.5 -53.5 -12.5c-8.66699 0.666992 -22.167 5.16699 -40.5 13.5
s-34.833 12.166 -49.5 11.499c-12 -0.666992 -26.333 -3.33398 -43 -8.00098s-30.834 -8.83398 -42.501 -12.501s-18.5 -5.16699 -20.5 -4.5v71zM110.003 284.007c28.667 14 54.3379 21.002 77.0049 21.002c9.33301 0 21.833 -2.33301 37.5 -7
s30.334 -9.33398 44.001 -14.001s22.5 -7.33398 26.5 -8.00098c3.33301 0 19.5 4.83301 48.5 14.5s48.5 14.5 58.5 14.5c10.667 0 28.167 -4.66699 52.5 -14s39.5 -14.333 45.5 -15s15 1.33301 27 6s25.167 9.5 39.5 14.5s26.833 7.83301 37.5 8.5
c13.333 0.666992 30.166 -4 50.499 -14s34.166 -15 41.499 -15c6 0 14 1.5 24 4.5s19.667 6.16699 29 9.5s20.166 6.5 32.499 9.5s23.5 4.83301 33.5 5.5c15.333 0 32.333 -4.33301 51 -13s31 -12 37 -10v-63c-4.66699 2.66699 -10.834 5.66699 -18.501 9
s-19.5 7.83301 -35.5 13.5s-27 8.5 -33 8.5c-6 -0.666992 -15.667 -3.5 -29 -8.5l-42 -15c-14.667 -5 -26 -7.5 -34 -7.5c-9.33301 0 -25.833 3.16699 -49.5 9.5s-39.834 9.5 -48.501 9.5c-8 0 -25.333 -4.33301 -52 -13s-44.667 -12.667 -54 -12c-8 0 -22.833 4 -44.5 12
s-38.167 12 -49.5 12c-10.667 0 -28.5 -4.16699 -53.5 -12.5s-42.833 -12.166 -53.5 -11.499c-8.66699 0 -22.167 4.16699 -40.5 12.5s-34.833 12.166 -49.5 11.499c-12 -0.666992 -26.333 -3.16699 -43 -7.5s-30.834 -8.33301 -42.501 -12s-18.5 -5.16699 -20.5 -4.5v71z
M110.007 162.009c28.667 14 54.335 21.0059 77.002 21.0059c9.33301 0 21.833 -2.16699 37.5 -6.5s30.334 -9 44.001 -14s22.5 -7.5 26.5 -7.5c3.33301 0 19.5 4.66699 48.5 14s48.5 14 58.5 14c8 0 18.667 -2.16699 32 -6.5s26.333 -8.83301 39 -13.5
s21.667 -7.33398 27 -8.00098s12.333 0.333008 21 3s17.167 5.83398 25.5 9.50098s17.833 7.16699 28.5 10.5s20.334 5 29.001 5c13.333 1.33301 30.166 -3 50.499 -13s34.333 -15 42 -15s25.334 4.66699 53.001 14s49.5 14 65.5 14c15.333 0.666992 32.333 -3.33301 51 -12
s31 -12.334 37 -11.001v-62c-4.66699 2.66699 -10.834 5.66699 -18.501 9s-19.5 7.83301 -35.5 13.5s-27 8.5 -33 8.5c-6 -0.666992 -22.333 -6 -49 -16s-45.334 -15 -56.001 -15c-9.33301 0 -25.833 3.16699 -49.5 9.5s-39.834 9.5 -48.501 9.5
c-8 0 -25.333 -4.33301 -52 -13s-44.667 -12.667 -54 -12c-8 0 -22.833 4 -44.5 12s-38.167 12 -49.5 12c-9.33301 0 -20.833 -2.16699 -34.5 -6.5l-40 -12.5c-13 -4 -23.833 -5.83301 -32.5 -5.5s-22.167 4.66602 -40.5 12.999s-34.833 12.166 -49.5 11.499
c-12 -0.666992 -26.333 -3.33398 -43 -8.00098s-30.834 -8.83398 -42.501 -12.501s-18.5 -4.83398 -20.5 -3.50098v70z" />
    <glyph glyph-name="asciicircum" unicode="^" 
d="M937 10l0.000976562 -1.99707c1.33301 -8 -1.33398 -13.667 -8.00098 -17l-209 -101c-2 -1.33301 -4.33301 -2 -7 -2s-5 0.666992 -7 2l-208 101h-1l-198 -97c-2.66699 -0.666992 -5.16699 -1 -7.5 -1s-4.5 0.333008 -6.5 1l-209 102
c-1.33301 0.666992 -2.33301 1.33398 -3 2.00098c-7.33301 2.66699 -11 7.66699 -11 15v235c0 4 1.33301 7.33301 4 10c2 3.33301 4.33301 5.66602 7 6.99902l189 91v1v235c0 4 1.33301 7.33301 4 10c1.33301 3.33301 3.66602 5.66602 6.99902 6.99902l211 101
c4.66699 2.66699 9.33398 2.66699 14.001 0l209 -101c5.33301 -2.66699 8 -7.33398 8 -14.001v-2v-1v-229c2 0 3.66699 -0.333008 5 -1l209 -102c5.33301 -2.66699 8 -7.33398 8 -14.001v-2v-1v-233zM507.001 278.003l177 86v205l-179 -87zM491.001 678.003l-174 -83
l174 -84l172 84zM294.001 570.003v-202c1.33301 0 3 -0.666992 5 -2l176 -85l-2 203zM94.001 22.0029l181 -88l-2 207l-179 85v-204zM292.001 167.003l169 83l-172 83l-172 -82zM305.001 138.003l2 -204l177 86v205zM516.001 18.0029l181 -89l-2 207l-179 86v-204z
M713.001 162.003l172 84l-172 84l-174 -84zM906.001 15.0029v206l-179 -87l2 -205z" />
    <glyph glyph-name="underscore" unicode="_" 
d="M846 135h144v-163h-163v41h-776v449h-41v164h163v-92zM133 95h163v163h-163v-163zM337 258v-163h423l-620 367h-7v-163h204v-41z" />
    <glyph glyph-name="grave" unicode="`" 
d="M542 362h-192v-193h192v193zM570 390v-249h-249v249h249zM656 227l-28 -13v234h-235l15 29l248 -1v-249zM408 477l20 -20l-86 -87l-20 20zM629 471l20 -20l-87 -87l-20 20zM570 141l-20 20l87 87l19 -21zM709 311c0 7.33301 2.5 13.5 7.5 18.5s11.167 7.5 18.5 7.5
s13.666 -2.5 18.999 -7.5s8 -11.167 8 -18.5s-2.66699 -13.5 -8 -18.5s-11.666 -7.5 -18.999 -7.5s-13.5 2.5 -18.5 7.5s-7.5 11.167 -7.5 18.5zM235 311c0 7.33301 2.5 13.5 7.5 18.5s11.167 7.5 18.5 7.5s13.5 -2.5 18.5 -7.5s7.5 -11.167 7.5 -18.5
s-2.5 -13.666 -7.5 -18.999s-11.167 -8 -18.5 -8s-13.5 2.66699 -18.5 8s-7.5 11.666 -7.5 18.999zM599 325h157v-28h-157v28zM555 325h30v-29h-30v29zM504 325h30v-29h-30v29zM462 325h30v-29h-30v29zM419 325h30v-29h-30v29zM377 325h30v-29h-30v29zM337 325h30v-29h-30
v29zM241 324h85v-28h-85v28z" />
    <glyph glyph-name="a" unicode="a" 
d="M370 621c0 32 11.5 59.5 34.5 82.5s50.5 34.5 82.5 34.5s59.5 -11.5 82.5 -34.5s34.5 -50.5 34.5 -82.5s-11.5 -59.5 -34.5 -82.5s-50.5 -34.5 -82.5 -34.5s-59.5 11.5 -82.5 34.5s-34.5 50.5 -34.5 82.5zM618 518.5c0 32.333 11.333 59.833 34 82.5s50.167 34 82.5 34
s59.833 -11.333 82.5 -34s34 -50.167 34 -82.5s-11.333 -59.833 -34 -82.5s-50.167 -34 -82.5 -34s-59.833 11.333 -82.5 34s-34 50.167 -34 82.5zM779 271c0 16 5.66699 29.667 17 41s25 17 41 17s29.667 -5.66699 41 -17s17 -25 17 -41s-5.66699 -29.667 -17 -41
s-25 -17 -41 -17s-29.667 5.66699 -41 17s-17 25 -17 41zM676 23.5c0 16.333 5.66699 30.166 17 41.499s25.166 17 41.499 17s30.166 -5.66699 41.499 -17s17 -25.166 17 -41.499s-5.66699 -30.166 -17 -41.499s-25.166 -17 -41.499 -17s-30.166 5.66699 -41.499 17
s-17 25.166 -17 41.499zM429 -79c0 16 5.66699 29.667 17 41s25 17 41 17s29.667 -5.66699 41 -17s17 -25 17 -41s-5.66699 -29.667 -17 -41s-25 -17 -41 -17s-29.667 5.66699 -41 17s-17 25 -17 41zM181 23.5c0 16.333 5.66699 30.166 17 41.499s25.166 17 41.499 17
s30.166 -5.66699 41.499 -17s17 -25.166 17 -41.499s-5.66699 -30.166 -17 -41.499s-25.166 -17 -41.499 -17s-30.166 5.66699 -41.499 17s-17 25.166 -17 41.499zM152 518.5c0 24.333 8.5 45 25.5 62s37.667 25.5 62 25.5s45 -8.5 62 -25.5s25.5 -37.667 25.5 -62
s-8.5 -45 -25.5 -62s-37.667 -25.5 -62 -25.5s-45 8.5 -62 25.5s-25.5 37.667 -25.5 62zM71 271c0 18 6.5 33.5 19.5 46.5s28.5 19.5 46.5 19.5s33.5 -6.5 46.5 -19.5s19.5 -28.5 19.5 -46.5s-6.5 -33.5 -19.5 -46.5s-28.5 -19.5 -46.5 -19.5s-33.5 6.5 -46.5 19.5
s-19.5 28.5 -19.5 46.5z" />
    <glyph glyph-name="b" unicode="b" 
d="M863 319c5.33301 0 9.99902 -1.83301 13.999 -5.5s6 -8.16699 6 -13.5s-1.83301 -10 -5.5 -14s-8.5 -6 -14.5 -6h-48c-2.66699 -42.667 -13.334 -83 -32.001 -121l42 -24c4 -2.66699 6.83301 -6.5 8.5 -11.5s1.16699 -9.83301 -1.5 -14.5
c-4 -6.66699 -9.66699 -10 -17 -10c-3.33301 0 -6.66602 0.666992 -9.99902 2l-42 24c-11.333 -17.333 -24.5 -33.5 -39.5 -48.5s-31.167 -28.167 -48.5 -39.5l24 -42c2.66699 -4.66699 3.33398 -9.5 2.00098 -14.5s-4.33301 -8.83301 -9 -11.5
c-3.33301 -2 -6.66602 -3 -9.99902 -3c-7.33301 0 -13 3.33301 -17 10l-24 41c-38 -18.667 -78.333 -29.334 -121 -32.001v-48c0 -5.33301 -1.83301 -10 -5.5 -14s-8.33398 -6 -14.001 -6s-10.334 2 -14.001 6s-5.5 8.66699 -5.5 14v48
c-42.667 2.66699 -83 13.334 -121 32.001l-24 -41c-4 -6.66699 -9.66699 -10 -17 -10c-3.33301 0 -6.66602 1 -9.99902 3c-4.66699 2.66699 -7.66699 6.5 -9 11.5s-0.666016 9.83301 2.00098 14.5l24 42c-17.333 11.333 -33.5 24.5 -48.5 39.5s-28.167 31.167 -39.5 48.5
l-42 -24c-3.33301 -1.33301 -6.66602 -2 -9.99902 -2c-7.33301 0 -13 3.33301 -17 10c-2.66699 4.66699 -3.33398 9.5 -2.00098 14.5s4.33301 8.83301 9 11.5l42 24c-19.333 38 -30 78.333 -32 121h-49c-5.33301 0 -9.83301 2 -13.5 6s-5.5 8.66699 -5.5 14
s1.83301 9.83301 5.5 13.5s8.16699 5.5 13.5 5.5h48c2.66699 43.333 13.667 84 33 122l-42 24c-4.66699 2.66699 -7.66699 6.5 -9 11.5s-0.666016 9.83301 2.00098 14.5s6.66699 7.66699 12 9s10.333 0.666016 15 -2.00098l41 -24c12 17.333 25.5 33.666 40.5 48.999
s31.167 28.666 48.5 39.999l-24 41c-2.66699 4.66699 -3.33398 9.66699 -2.00098 15s4.33301 9.33301 9 12s9.66699 3.33398 15 2.00098s9.33301 -4.33301 12 -9l24 -41c38 18.667 78.333 29.334 121 32.001v48c0 5.33301 1.83301 10 5.5 14s8.16699 6 13.5 6s10 -2 14 -6
s6 -8.66699 6 -14v-48c42.667 -2.66699 83 -13.334 121 -32.001l24 41c2.66699 4.66699 6.66699 7.66699 12 9s10.333 0.666016 15 -2.00098s7.66699 -6.5 9 -11.5s0.666016 -10.167 -2.00098 -15.5l-24 -41c17.333 -11.333 33.5 -24.666 48.5 -39.999
s28.167 -31.666 39.5 -48.999l42 24c4.66699 2.66699 9.66699 3.33398 15 2.00098s9.33301 -4.33301 12 -9s3.16699 -9.5 1.5 -14.5s-4.83398 -8.83301 -9.50098 -11.5l-41 -24c18.667 -38 29.334 -78.667 32.001 -122h48zM748.999 179
c15.333 32 24.3281 65.667 26.9951 101h-28c-5.33301 0 -10 2 -14 6s-6 8.66699 -6 14s2 9.83301 6 13.5s8.66699 5.5 14 5.5h28c-2.66699 35.333 -11.667 69.333 -27 102l-25 -14c-2.66699 -2 -5.66699 -3 -9 -3c-8 0 -13.667 3.33301 -17 10
c-2.66699 4.66699 -3.33398 9.5 -2.00098 14.5s4.33301 8.83301 9 11.5l24 15c-20 29.333 -44.667 54 -74 74l-14 -25c-4 -6 -9.66699 -9 -17 -9c-3.33301 0 -6.66602 0.666992 -9.99902 2c-4.66699 2.66699 -7.66699 6.66699 -9 12s-0.666016 10.333 2.00098 15l14 24
c-32 16 -65.667 25.333 -101 28v-29c0 -5.33301 -2 -9.83301 -6 -13.5s-8.66699 -5.5 -14 -5.5s-9.83301 1.83301 -13.5 5.5s-5.5 8.16699 -5.5 13.5v29c-35.333 -2.66699 -69.333 -12 -102 -28l15 -24c2.66699 -4.66699 3.33398 -9.66699 2.00098 -15
s-4.33301 -9.33301 -9 -12c-3.33301 -1.33301 -6.66602 -2 -9.99902 -2c-7.33301 0 -13 3 -17 9l-14 25c-30 -20 -55 -44.667 -75 -74l25 -15c4.66699 -2.66699 7.66699 -6.5 9 -11.5s0.666016 -9.83301 -2.00098 -14.5c-4 -6.66699 -9.66699 -10 -17 -10
c-3.33301 0 -6.66602 1 -9.99902 3l-24 14c-16 -32 -25 -66 -27 -102h28c5.33301 0 10 -1.83301 14 -5.5s6 -8.16699 6 -13.5s-2 -10 -6 -14s-8.66699 -6 -14 -6h-28c2 -35.333 11 -69 27 -101l24 14c4.66699 2.66699 9.66699 3.33398 15 2.00098s9.33301 -4.33301 12 -9
s3.33398 -9.66699 2.00098 -15s-4.33301 -9.33301 -9 -12l-25 -14c20 -29.333 45 -54 75 -74l14 24c2.66699 4.66699 6.5 7.83398 11.5 9.50098s9.83301 1.16699 14.5 -1.5s7.83398 -6.66699 9.50098 -12s1.16699 -10.333 -1.5 -15l-15 -25c32 -15.333 66 -24.333 102 -27
v29c0 5.33301 1.83301 9.83301 5.5 13.5s8.16699 5.5 13.5 5.5s10 -1.83301 14 -5.5s6 -8.16699 6 -13.5v-29c35.333 2.66699 69 11.667 101 27l-14 25c-2.66699 4.66699 -3.33398 9.66699 -2.00098 15s4.33301 9.33301 9 12s9.66699 3.16699 15 1.5
s9.33301 -4.83398 12 -9.50098l14 -24c29.333 20 54 44.667 74 74l-24 14c-4.66699 2.66699 -7.66699 6.66699 -9 12s-0.666016 10.333 2.00098 15s6.5 7.66699 11.5 9s9.83301 0.666016 14.5 -2.00098z" />
    <glyph glyph-name="c" unicode="c" 
d="M820 368c-4 22 -11.832 46.834 -23.499 74.501s-23.834 50.5 -36.501 68.5c-3.33301 4 -5 8.66699 -5 14s1.66699 10 5 14l89 86c4.66699 4.66699 10.167 7 16.5 7s11.5 -2.33301 15.5 -7c26 -30 49.333 -69.333 70 -118s32.667 -92.667 36 -132v-2
c0 -6 -2.16699 -11.167 -6.5 -15.5s-9.5 -6.5 -15.5 -6.5h-125c-2.66699 0 -5.5 0.833008 -8.5 2.5s-5.5 3.66699 -7.5 6s-3.33301 5.16602 -4 8.49902zM22.001 350.001c-6 0 -10.998 2.00488 -14.998 6.00488s-6 9 -6 15v2c5.33301 68 27.166 133.167 65.499 195.5
s87.666 114.166 147.999 155.499s124.5 66.666 192.5 75.999h2c6 0 11 -2 15 -6s6 -9 6 -15v-1v-125c0 -4.66699 -1.66699 -9 -5 -13s-7.33301 -6.33301 -12 -7c-61.333 -10.667 -116 -41.834 -164 -93.501s-75 -108.834 -81 -171.501
c-0.666992 -4.66699 -3 -8.83398 -7 -12.501s-8.66699 -5.5 -14 -5.5h-125zM138.003 273.006c8 -0.666992 15.168 -4 21.501 -10s9.83301 -13 10.5 -21c7.33301 -59.333 33.833 -115.833 79.5 -169.5s97.5 -88.834 155.5 -105.501c6.66699 -1.33301 12.667 -5 18 -11
s8.33301 -12.333 9 -19v-104c0 -9.33301 -3.33301 -17.166 -10 -23.499s-14.667 -9.5 -24 -9.5h-3c-109.333 14.667 -198.833 59.167 -268.5 133.5s-110.834 175.5 -123.501 303.5v2c0 4.66699 0.833008 9 2.5 13s4 7.5 7 10.5s6.5 5.5 10.5 7.5s8.33301 3 13 3h102z
M819.004 694.006c6.66699 -4 10 -9.66895 10 -17.002c0 -6 -2 -11 -6 -15l-84 -88c-8.66699 -8.66699 -17.667 -8.66699 -27 0c-11.333 8 -25.333 16.167 -42 24.5s-33.667 15.666 -51 21.999s-33 10.833 -47 13.5c-5.33301 0.666992 -9.66602 2.83398 -12.999 6.50098
s-5 8.16699 -5 13.5v125c0 2.66699 0.666992 5.33398 2 8.00098s3 5 5 7s4.33301 3.5 7 4.5s5.33398 1.5 8.00098 1.5h1c25.333 -2.66699 53.166 -9.16699 83.499 -19.5s59.666 -23.166 87.999 -38.499s51.833 -31.333 70.5 -48zM757.004 370.004v-3.00195
c0 -4.66699 -1.66699 -8.66699 -5 -12s-7.33301 -5 -12 -5h-1h-151c-0.666992 0 -1.5 1.16699 -2.5 3.5l-4 9c-1.66699 3.66699 -3.16699 6.5 -4.5 8.5l102 94c4 3.33301 8.5 5 13.5 5s9.16699 -1.66699 12.5 -5c10.667 -11.333 21 -26.166 31 -44.499
s17 -35.166 21 -50.499zM430.004 396.002c-5.33301 -19.333 -15.667 -34.667 -31 -46h-143c-6.66699 0 -12.5 2.33301 -17.5 7s-7.5 10.667 -7.5 18v4c4 27.333 14 54.166 30 80.499s36.167 49.333 60.5 69s49.833 32.834 76.5 39.501c2 0.666992 4.33301 1 7 1
c6.66699 0 12.5 -2.33301 17.5 -7s7.5 -10.667 7.5 -18v-148zM399.003 271.001l0.000976562 2c1.33301 0 3.5 -3.33301 6.5 -10s7 -14.167 12 -22.5s10.167 -14.166 15.5 -17.499v-168c0 -6.66699 -2.5 -12.5 -7.5 -17.5s-10.833 -7.5 -17.5 -7.5
c-2.66699 0 -5.33398 0.333008 -8.00098 1c-44 12.667 -80.333 38.167 -109 76.5s-48 83.166 -58 134.499v4c0 6.66699 2.33301 12.5 7 17.5s10.667 7.5 18 7.5h141zM964.004 288.001l1.00098 -0.000976562c6 0 11.167 -2.16699 15.5 -6.5s6.5 -9.83301 6.5 -16.5v-2
c-11.333 -134 -54 -241.333 -128 -322s-168 -127.667 -282 -141h-2c-6 0 -11.333 2.33301 -16 7s-7 10 -7 16v142c0 0.666992 4.16699 1.83398 12.5 3.50098l30.5 6c12 2.33301 21.333 4.5 28 6.5c-8 6 -15.667 14.333 -23 25s-12 20.667 -14 30l-34 -9v199
c2.66699 2 6.5 4.16699 11.5 6.5s8.66699 4.33301 11 6s4.83301 5.33398 7.5 11.001s4.66699 13.167 6 22.5c1.33301 5.33301 4 9.66602 8 12.999s8.66699 5 14 5h152c-1.33301 -19.333 -2 -31.5 -2 -36.5s-0.833008 -9.5 -2.5 -13.5s-2.83398 -6.33301 -3.50098 -7
c20 -6.66699 38 -16.667 54 -30c9.33301 21.333 14 43.333 14 66c0.666992 4 2 7.66699 4 11s4.66699 5.83301 8 7.5s7 2.5 11 2.5zM793.005 80v6c0 25.333 -8.83301 46.833 -26.5 64.5s-39 26.5 -64 26.5s-46.5 -8.83301 -64.5 -26.5s-27 -39.167 -27 -64.5
s9 -46.833 27 -64.5s39.333 -26.5 64 -26.5h2c24 0 44.667 8.66699 62 26s26.333 38 27 62v-3zM664.005 502c2.66699 -1.33301 4 -3.66699 4 -7c0 -2.66699 -1 -5 -3 -7l-105 -98l-22 10v145c0 6.66699 3.33301 10 10 10h1c18 -4 38.167 -11 60.5 -21s40.5 -20.667 54.5 -32
z" />
    <glyph glyph-name="e" unicode="e" 
d="M839 75c0 -0.666992 0.333984 -0.999023 1.00098 -0.999023l1 -2c65.333 -97.333 86 -158 62 -182c-6.66699 -6 -15.667 -9 -27 -9c-36.667 0 -96.334 29 -179.001 87c-47.333 -20 -96.666 -30 -147.999 -30c-68.667 0 -131.834 16.833 -189.501 50.5
s-103.334 79.5 -137.001 137.5s-50.5 121 -50.5 189c0 48 8.66699 94.333 26 139c-19.333 25.333 -36.666 49.666 -51.999 72.999c-65.333 97.333 -86 158 -62 182c6 6 15 9 27 9c38 0 100.667 -31.333 188 -94l17 -13c68 54 145.667 81 233 81c68 0 131 -16.833 189 -50.5
s103.667 -79.5 137 -137.5s50 -121 50 -189c0 -90.667 -28.667 -170.667 -86 -240zM862.001 218.001c-83.333 34 -130 44.667 -140 32l-14 -8c46 -52.667 85.333 -102 118 -148l4 6c12.667 19.333 21.667 38.833 27 58.5s7.33301 34.5 6 44.5zM381.001 600.001
c-18 6.66699 -34.998 7.00293 -50.998 1.00293c79.333 -60.667 161.666 -133.334 246.999 -218.001c4.66699 -5.33301 9.66699 -10.666 15 -15.999c-2 13.333 1 24.166 9 32.499s22 13.166 42 14.499c76 5.33301 111 10.333 105 15c-26 32 -50.167 58 -72.5 78
s-40.5 33 -54.5 39s-26 9.5 -36 10.5s-17 0.166992 -21 -2.5l-6 -4c2 -14.667 2 -26 0 -34s-5.83301 -13.667 -11.5 -17s-11.167 -5.16602 -16.5 -5.49902s-10.333 -0.166016 -15 0.500977l-6 1c-23.333 7.33301 -35 13.666 -35 18.999
c1.33301 5.33301 13.666 16.333 36.999 33c12 10 16.833 17.667 14.5 23s-8.5 9 -18.5 11l-14 3c-16.667 -11.333 -31.167 -19 -43.5 -23s-20.5 -5 -24.5 -3l-6 3c-2 7.33301 -6 14.166 -12 20.499s-11.667 11.166 -17 14.499zM156.003 533.004
c14 -21.333 30.001 -43.667 48.001 -67c23.333 54 57.666 100 102.999 138l-15 11c-85.333 61.333 -145.666 92 -180.999 92c-8.66699 0 -15 -2 -19 -6c-9.33301 -9.33301 -8.33301 -28.833 3 -58.5s31.666 -66.167 60.999 -109.5zM698.004 62.0029
c-2 -13.333 -1.99707 -23.6689 0.00292969 -31.002s3.83301 -12.333 5.5 -15s2.83398 -4 3.50098 -4c38.667 4 75.667 28 111 72c-33.333 47.333 -73.666 98.333 -120.999 153c-24 -11.333 -45.333 -17.666 -64 -18.999s-32.834 1.16699 -42.501 7.5
s-17.5 13.666 -23.5 21.999s-9.66699 15.833 -11 22.5l-2 11c-20 -6 -35.167 -8.5 -45.5 -7.5s-16.833 4.5 -19.5 10.5s-3.66699 12.167 -3 18.5s2 12.166 4 17.499l3 7c12 10 24.5 15 37.5 15s23.167 -2.33301 30.5 -7l11 -7c-2 -7.33301 -1.16699 -14.833 2.5 -22.5
s7.5 -13.167 11.5 -16.5l7 -6c30.667 -17.333 52.334 -18 65.001 -2l-5 5c-21.333 12.667 -38.333 31 -51 55l-34 34c-86 86.667 -169.333 160 -250 220c-8.66699 -5.33301 -16.834 -12.666 -24.501 -21.999s-12.834 -17 -15.501 -23l-4 -10c-1.33301 -2 -1 -3.83301 1 -5.5
s4.33301 -2.83398 7 -3.50098l3 -1c1.33301 0 3 0.333008 5 1s4.16699 1.33398 6.5 2.00098s4.66602 1.5 6.99902 2.5s4.5 2.16699 6.5 3.5s3.83301 2.33301 5.5 3s3.16699 1.33398 4.5 2.00098l1 1c16 -2 24.5 -11 25.5 -27s-2.16699 -31.667 -9.5 -47l-11 -22
c-8 -16 -12.5 -30.667 -13.5 -44s0.333008 -23.833 4 -31.5s8 -14.167 13 -19.5s9.5 -9 13.5 -11l7 -2c13.333 -4 26.333 -9.5 39 -16.5s21.667 -12.833 27 -17.5l9 -8c1.33301 -10.667 4.83301 -21.667 10.5 -33s11.167 -20.333 16.5 -27l7 -9l68 -4
c10.667 -2 20.667 -4.66699 30 -8s17.166 -6.66602 23.499 -9.99902s12.166 -6.83301 17.499 -10.5s9.5 -7.16699 12.5 -10.5s5.5 -6.33301 7.5 -9s3.33301 -5 4 -7l1 -2c-8 -8.66699 -12 -18.5 -12 -29.5s1.66699 -19.833 5 -26.5l6 -10c10 -8 21.333 -15.5 34 -22.5
s23 -11.833 31 -14.5zM894.007 -102c9.33301 9.33301 8.50098 28.833 -2.49902 58.5s-31.167 66.167 -60.5 109.5c-34.667 -39.333 -75.334 -70 -122.001 -92c78 -54.667 133.667 -82 167 -82c8 0 14 2 18 6z" />
    <glyph glyph-name="f" unicode="f" 
d="M167 592c0 11.333 4 20.999 12 28.999s17.667 12 29 12c6 0 11.5 -1 16.5 -3s9.33301 -4.83301 13 -8.5s6.66699 -8.16699 9 -13.5s3.5 -10.666 3.5 -15.999v-584c0 -11.333 -4 -21 -12 -29s-17.833 -12 -29.5 -12s-21.5 4 -29.5 12s-12 17.667 -12 29v584zM292 632.999
h333v-59h-152v-274h-181v333zM500 549.999h333l-83 -167l83 -166h-333v333z" />
    <glyph glyph-name="h" unicode="h" 
d="M400 300c0 27.333 9.83301 50.833 29.5 70.5s43.167 29.5 70.5 29.5s50.833 -9.83301 70.5 -29.5s29.5 -43.167 29.5 -70.5s-9.83301 -50.833 -29.5 -70.5s-43.167 -29.5 -70.5 -29.5s-50.833 9.83301 -70.5 29.5s-29.5 43.167 -29.5 70.5zM975 325
c6 0 11.667 -2.66699 17 -8s8 -11 8 -17s-2.66699 -11.667 -8 -17s-11 -8 -17 -8h-75c-6 -100 -45 -186 -117 -258s-158 -111 -258 -117v-75c0 -6 -2.66699 -11.667 -8 -17s-11 -8 -17 -8s-11.667 2.66699 -17 8s-8 11 -8 17v75c-100 6 -186 45 -258 117s-111 158 -117 258
h-75c-6 0 -11.667 2.66699 -17 8s-8 11 -8 17s2.66699 11.667 8 17s11 8 17 8h75c6 100 45 186 117 258s158 111 258 117v75c0 6 2.66699 11.667 8 17s11 8 17 8s11.667 -2.66699 17 -8s8 -11 8 -17v-75c100 -6 186 -45 258 -117s111 -158 117 -258h75zM500 -50
c96.667 0 179.167 34.167 247.5 102.5s102.5 150.833 102.5 247.5s-34.167 179.167 -102.5 247.5s-150.833 102.5 -247.5 102.5s-179.167 -34.167 -247.5 -102.5s-102.5 -150.833 -102.5 -247.5s34.167 -179.167 102.5 -247.5s150.833 -102.5 247.5 -102.5z" />
    <glyph glyph-name="i" unicode="i" 
d="M430 460c-38 0 -70.666 13.5 -97.999 40.5s-41 59.667 -41 98s13.667 71 41 98s60 40.5 98 40.5s70.5 -13.5 97.5 -40.5s40.5 -59.5 40.5 -97.5v-13l-51 41c-14.667 12 -31.334 18 -50.001 18c-25.333 0 -46 -9.66699 -62 -29c-14 -17.333 -19.833 -37 -17.5 -59
s11.833 -40 28.5 -54l48 -39c-12 -2.66699 -23.333 -4 -34 -4zM744.001 521c24.667 0 47.9971 -4.83203 69.9971 -14.499s40.833 -22.334 56.5 -38.001s28.334 -34.5 38.001 -56.5s14.5 -45.333 14.5 -70c0 -49.333 -17.5 -91.333 -52.5 -126s-77.167 -52 -126.5 -52
c-23.333 0 -45.666 4.33301 -66.999 13l73 41c25.333 14 41.833 34.667 49.5 62s4.83398 53.333 -8.49902 78c-9.33301 16 -22 28.833 -38 38.5s-33.333 14.5 -52 14.5c-18 0 -34.667 -4.33301 -50 -13l-84 -47c0 10 1 19 3 27c2.66699 15.333 8 30.333 16 45l-141 116
c-7.33301 6 -11.5 13.667 -12.5 23s1.5 17.666 7.5 24.999c7.33301 8 16.333 12 27 12c8 0 15.333 -2.66699 22 -8l139 -114c12 10.667 25.333 19.334 40 26.001c24.667 12 50 18 76 18zM538.998 153.001c4 -15.333 6.33301 -31.333 7 -48v-3.5v-4.5
c0 -64.667 -22.833 -119.834 -68.5 -165.501s-100.834 -68.5 -165.501 -68.5s-120 22.833 -166 68.5s-69 100.834 -69 165.501s23 120 69 166s101.333 69 166 69c50.667 0 96.667 -15.333 138 -46c12.667 -9.33301 24.334 -20 35.001 -32l188 104c8.66699 4.66699 18 7 28 7
c22 0 38.667 -9.66699 50 -29c7.33301 -14 8.83301 -28.5 4.5 -43.5s-13.5 -26.5 -27.5 -34.5zM311.998 -97.999c54 0 100 19 138 57s57 84 57 138s-19 100 -57 138s-84 57 -138 57s-100 -19 -138 -57s-57 -84 -57 -138s19 -100 57 -138s84 -57 138 -57zM311.998 235.001
c16.667 0 32.001 -4.16699 46.001 -12.5s25.167 -19.5 33.5 -33.5s12.5 -29.333 12.5 -46c0 -6.66699 -0.666992 -13 -2 -19c-1.33301 -11.333 -9.5 -30.833 -24.5 -58.5s-29.833 -52.167 -44.5 -73.5l-21 -33c-56.667 84 -86.334 139 -89.001 165c-2 6 -3 12.333 -3 19
c0 25.333 9 47 27 65s39.667 27 65 27zM312.499 96.001c13 0 24 4.66699 33 14s13.5 20.333 13.5 33c0 8.66699 -2 16.667 -6 24s-9.66699 13 -17 17s-15.333 6 -24 6c-12.667 0 -23.667 -4.5 -33 -13.5s-14 -20 -14 -33s4.66699 -24.167 14 -33.5s20.5 -14 33.5 -14z" />
    <glyph glyph-name="j" unicode="j" 
d="M461 549l242 -232h-242v232zM515 753c59.333 0 116.002 -11.501 170.002 -34.501s100.5 -54 139.5 -93s70 -85.5 93 -139.5s34.5 -110.667 34.5 -170c0 -39.333 -5.33301 -77.833 -16 -115.5s-25.334 -72.5 -44.001 -104.5s-41.5 -61.5 -68.5 -88.5
s-56.333 -49.833 -88 -68.5s-66.334 -33.167 -104.001 -43.5s-76.5 -15.5 -116.5 -15.5c-59.333 0 -115.833 11.5 -169.5 34.5s-100 54 -139 93s-70 85.333 -93 139s-34.5 110.167 -34.5 169.5c0 47.333 7.33301 93.333 22 138s35.334 84.834 62.001 120.501s58 67 94 94
s76.167 47.833 120.5 62.5s90.166 22 137.499 22zM773.002 265.999c7.33301 0 13.501 2.16602 18.501 6.49902s7.5 10.833 7.5 19.5c0 6 -5 14 -15 24c-210.667 198.667 -316 298.334 -316 299.001c-8.66699 7.33301 -17.334 11 -26.001 11c-10 0 -18.5 -3.5 -25.5 -10.5
s-10.5 -15.167 -10.5 -24.5v-578c0 -7.33301 2.66699 -13.833 8 -19.5s11.833 -8.5 19.5 -8.5s14.167 2.83301 19.5 8.5s8 12.167 8 19.5v253h312z" />
    <glyph glyph-name="k" unicode="k" 
d="M941 800h59v-176h-59v58h-647v-58h-59v176h59v-59h647v59zM0 506v59h176v-59h-58v-647h58v-59h-176v59h59v647h-59zM235 -200v765h765v-765h-765zM294 506v-647h647v647h-647z" />
    <glyph glyph-name="l" unicode="l" 
d="M468 615l315.996 -299c10 -10 15 -18 15 -24c0 -8.66699 -2.5 -15.167 -7.5 -19.5s-11.167 -6.5 -18.5 -6.5h-312v-253c0 -4.66699 -1.16699 -9.16699 -3.5 -13.5s-5.66602 -7.83301 -9.99902 -10.5s-9.16602 -4 -14.499 -4c-7.33301 0 -13.666 2.83301 -18.999 8.5
s-8 12.167 -8 19.5v578c0 9.33301 3.5 17.5 10.5 24.5s15.5 10.5 25.5 10.5c8.66699 0 17.334 -3.66699 26.001 -11zM486.996 739c59.333 0 116 -11.5 170 -34.5s100.5 -54 139.5 -93s70 -85.5 93 -139.5s34.5 -110.667 34.5 -170s-11.5 -116 -34.5 -170
s-54 -100.5 -93 -139.5s-85.5 -70 -139.5 -93s-110.667 -34.5 -170 -34.5s-115.833 11.5 -169.5 34.5s-100 54 -139 93s-70.167 85.5 -93.5 139.5s-35 110.667 -35 170s11.667 116 35 170s54.5 100.5 93.5 139.5s85.333 70 139 93s110.167 34.5 169.5 34.5zM487.496 -91
c71 0 136.667 17.5 197 52.5s108.166 82.667 143.499 143s53 126.166 53 197.499s-17.667 137.166 -53 197.499s-83.166 108 -143.499 143s-126 52.5 -197 52.5s-136.833 -17.5 -197.5 -52.5s-108.5 -82.667 -143.5 -143s-52.5 -126.166 -52.5 -197.499
s17.5 -137.166 52.5 -197.499s82.833 -108 143.5 -143s126.5 -52.5 197.5 -52.5z" />
    <glyph glyph-name="m" unicode="m" 
d="M567 643l344.999 -326.002c10.667 -12 16 -21 16 -27v-2c0 -5.33301 -1.16699 -10 -3.5 -14s-5.5 -7.16699 -9.5 -9.5s-8.33301 -3.5 -13 -3.5h-2h-341v-277v-2c0 -8.66699 -3 -16 -9 -22s-13.167 -9 -21.5 -9s-15.5 3 -21.5 9s-9 13.333 -9 22
c0 0.666992 0.333008 1.33398 1 2.00098v632c0 10.667 3.83301 19.834 11.5 27.501s16.834 11.5 27.501 11.5c11.333 0 21 -4 29 -12zM621.499 799.998c84.333 0 165.002 -13.167 242.002 -39.5s143.167 -61.833 198.5 -106.5s99.333 -97.834 132 -159.501
s49 -126.5 49 -194.5s-16.333 -132.833 -49 -194.5s-76.834 -114.834 -132.501 -159.501s-121.834 -80.167 -198.501 -106.5s-157.167 -39.5 -241.5 -39.5s-164.833 13.167 -241.5 39.5s-142.834 61.833 -198.501 106.5s-99.834 97.834 -132.501 159.501
s-49 126.5 -49 194.5s16.333 132.833 49 194.5s76.834 114.834 132.501 159.501s121.834 80.167 198.501 106.5s157.167 39.5 241.5 39.5zM622.001 -150.002c76 0 148.5 11.833 217.5 35.5s128.5 55.667 178.5 96s89.667 88.333 119 144s44 114 44 175
s-14.667 119.167 -44 174.5s-69 103.166 -119 143.499s-109.5 72.333 -178.5 96s-141.5 35.5 -217.5 35.5s-148.5 -11.833 -217.5 -35.5s-128.5 -55.667 -178.5 -96s-89.833 -88.166 -119.5 -143.499s-44.5 -113.5 -44.5 -174.5s14.833 -119.333 44.5 -175
s69.5 -103.667 119.5 -144s109.5 -72.333 178.5 -96s141.5 -35.5 217.5 -35.5z" />
    <glyph glyph-name="n" unicode="n" 
d="M38 53c0 96 18.668 187.834 56.001 275.501s87.666 163.167 150.999 226.5s138.833 113.666 226.5 150.999s179.5 56 275.5 56c161.333 0 305.666 -49.333 432.999 -148c118 -90.667 199.333 -206.667 244 -348c20.667 -64.667 31.334 -131.667 32.001 -201v-1v-1v-1v-1
v-1l1 -1v-1v-1v-1v-1v-1l-1 -1h-1418zM747.001 458.001c60 0 111.332 -21.333 153.999 -64s64 -94.334 64 -155.001c0 -15.333 -1.66699 -31 -5 -47c-3.33301 -26.667 -22.666 -72.834 -57.999 -138.501s-70 -124.5 -104 -176.5l-51 -78
c-2.66699 4.66699 -6.5 10.667 -11.5 18s-14.5 22 -28.5 44l-40.5 64.5l-44 73.5c-16.333 28 -30.333 53.333 -42 76s-22 44.834 -31 66.501s-14.167 38.5 -15.5 50.5c-3.33301 16 -5 31.667 -5 47c0 60.667 21.333 112.334 64 155.001s94 64 154 64zM747 127.001
c31.333 0 58 11 80 33s33 48.333 33 79c0 31.333 -11 58 -33 80s-48.667 33 -80 33s-58 -11 -80 -33s-33 -48.5 -33 -79.5s11 -57.5 33 -79.5s48.667 -33 80 -33z" />
    <glyph glyph-name="o" unicode="o" 
d="M667 29c-46 46 -101.663 69 -166.996 69s-121 -23 -167 -69l-333 333c67.333 68.667 145.166 120.667 233.499 156s177.166 53 266.499 53s178.166 -17.667 266.499 -53s166.166 -87.333 233.499 -156z" />
    <glyph glyph-name="q" unicode="q" 
d="M986 39h-365v-73h146v-48h-535v48h146v73h-365v560h973v-560zM62 88h875v462h-875v-462zM870 307c12 0 23.167 -2.66699 33.5 -8s18.5 -12.5 24.5 -21.5s9 -18.833 9 -29.5c0 -16 -6.66699 -29.667 -20 -41s-29 -17 -47 -17c-26 0 -45.333 9.66699 -58 29h-165l-38 65
l-77 -248l-66 5l-50 479l-93 -301h-261v59h209l128 416l66 -5l51 -481l75 239l97 -169h124c12.667 19.333 32 29 58 29zM870 307z" />
    <glyph glyph-name="r" unicode="r" 
d="M512 94c-23.333 0 -44.334 6.99902 -63.001 20.999l-37 28c-7.33301 5.33301 -15.666 8 -24.999 8s-17.666 -2.66699 -24.999 -8l-37 -28c-18.667 -14 -39.667 -21 -63 -21s-44.333 7 -63 21l-37 28c-7.33301 5.33301 -15.666 8 -24.999 8s-17.666 -2.66699 -24.999 -8
l-48 -37c-6 -4 -12.333 -6 -19 -6c-10.667 0 -19 4 -25 12c-5.33301 7.33301 -7.5 15.333 -6.5 24s5.16699 15.667 12.5 21l48 37c18.667 14 39.667 21 63 21s44.333 -7.33301 63 -22l37 -28c7.33301 -5.33301 15.666 -8 24.999 -8s17.666 2.66699 24.999 8l37 29
c18.667 14 39.667 21 63 21s44.333 -7 63 -21l37 -29c7.33301 -5.33301 15.666 -8 24.999 -8s17.666 2.66699 24.999 8l37 29c18.667 14 39.667 21 63 21s44.333 -7 63 -21l37 -29c7.33301 -5.33301 15.5 -8 24.5 -8s17.167 2.66699 24.5 8l38 29c18.667 14 39.667 21 63 21
s44.333 -7.33301 63 -22l37 -28c6.66699 -5.33301 10.667 -12.333 12 -21v-4c0 -7.33301 -2 -13.666 -6 -18.999c-6.66699 -8.66699 -15 -13 -25 -13h-1c-6.66699 0 -13 2.33301 -19 7l-37 28c-7.33301 5.33301 -15.5 8 -24.5 8s-17.167 -2.66699 -24.5 -8l-37 -28
c-18.667 -14 -39.667 -21 -63 -21s-44.333 7 -63 21l-38 28c-6.66699 5.33301 -14.667 8 -24 8s-17.666 -2.66699 -24.999 -8l-37 -28c-18.667 -14 -39.667 -21 -63 -21zM499.499 -71.001c-23.667 0 -44.8379 7.33398 -63.5049 22.001l-37 28
c-7.33301 5.33301 -15.5 8 -24.5 8s-17.167 -2.66699 -24.5 -8l-37 -28c-18.667 -14.667 -39.667 -22 -63 -22s-44.333 7.33301 -63 22l-38 28c-6.66699 5.33301 -14.667 8 -24 8s-17.666 -2.66699 -24.999 -8l-49 -37c-5.33301 -4.66699 -11.666 -7 -18.999 -7
c-10 0 -18.333 4.33301 -25 13c-5.33301 6.66699 -7.33301 14.5 -6 23.5s5.33301 15.833 12 20.5l49 37c18.667 14 39.667 21 63 21s44.333 -7 63 -21l37 -28c7.33301 -5.33301 15.666 -8 24.999 -8s17.333 2.66699 24 8l38 28c18 14 38.833 21 62.5 21
s44.834 -7 63.501 -21l37 -28c7.33301 -5.33301 15.5 -8 24.5 -8s17.167 2.66699 24.5 8l37 28c18.667 14 39.834 21 63.501 21s44.5 -7 62.5 -21l38 -28c6.66699 -5.33301 14.667 -8 24 -8s17.666 2.66699 24.999 8l37 28c18.667 14 39.667 21 63 21s44.333 -7 63 -21
l37 -28c7.33301 -5.33301 11.5 -12.333 12.5 -21s-1.16699 -16.334 -6.5 -23.001c-6 -8.66699 -14.333 -13 -25 -13c-7.33301 0 -13.666 2.33301 -18.999 7l-37 28c-7.33301 5.33301 -15.666 8 -24.999 8s-17.666 -2.66699 -24.999 -8l-37 -28
c-18.667 -14.667 -39.667 -22 -63 -22s-44.333 7.33301 -63 22l-37 28c-7.33301 5.33301 -15.5 8 -24.5 8s-17.167 -2.66699 -24.5 -8l-38 -28c-18 -14.667 -38.833 -22 -62.5 -22zM401.995 658l567.001 -209l-104 -299c-13.333 4.66699 -35.333 9 -66 13l88 248l-448 165
l-132 -417c-26.667 -2.66699 -54.334 -15.667 -83.001 -39zM479.996 411l22 60l87 -32l-22 -60zM773.996 371l-22 -61l-87 32l22 61zM547.996 327l-22 -60l-87 32l22 60zM732.996 264l-22 -60l-87 32l22 60z" />
    <glyph glyph-name="t" unicode="t" 
d="M690 8l-389 -0.00585938c-8.66699 0 -16 3.16699 -22 9.5s-9 13.833 -9 22.5c0 44.667 9.83301 92.334 29.5 143.001s46.5 89.667 80.5 117c-34 27.333 -60.833 66.333 -80.5 117s-29.5 98.334 -29.5 143.001c0 6 1.33301 11.333 4 16s6.33398 8.5 11.001 11.5
s10 4.5 16 4.5h389c8.66699 0 16 -3.16699 22 -9.5s9 -13.833 9 -22.5c0 -45.333 -8.83301 -93.166 -26.5 -143.499s-42.834 -89.166 -75.501 -116.499c32 -27.333 57 -66.166 75 -116.499s27 -98.166 27 -143.499c0 -8.66699 -3 -16.167 -9 -22.5s-13.333 -9.5 -22 -9.5z
M334 70.9941l322.999 -0.00390625c-4.66699 46.667 -17.5 89.834 -38.5 129.501s-45.5 62.834 -73.5 69.501c-6.66699 1.33301 -12.334 4.83301 -17.001 10.5s-7 12.167 -7 19.5s2.33301 14 7 20s10.334 9.66699 17.001 11c28 6 52.5 28.833 73.5 68.5
s33.833 83.167 38.5 130.5h-323c6 -46 20.333 -89 43 -129s48.667 -63.333 78 -70c6.66699 -1.33301 12.334 -5 17.001 -11s7 -12.667 7 -20c0 -3.33301 -0.666992 -6.66602 -2 -9.99902s-3 -6.33301 -5 -9s-4.5 -5 -7.5 -7s-6.16699 -3.33301 -9.5 -4
c-29.333 -6.66699 -55.333 -30.167 -78 -70.5s-37 -83.166 -43 -128.499zM568.999 130.99c0 -8.66699 -2.99902 -16.001 -8.99902 -22.001s-13.333 -9 -22 -9h-82c-6 0 -11.333 1.33301 -16 4s-8.33398 6.33398 -11.001 11.001s-4 10 -4 16c0 8.66699 3 16 9 22
s13.333 9 22 9h82c8.66699 0 16 -3 22 -9s9 -13.333 9 -22zM500 -200.011c-90.667 0 -174.334 22.333 -251.001 67s-137.334 105.334 -182.001 182.001s-67 160.334 -67 251.001s22.333 174.334 67 251.001s105.334 137.334 182.001 182.001s160.334 67 251.001 67
s174.334 -22.333 251.001 -67s137.334 -105.334 182.001 -182.001s67 -160.334 67 -251.001s-22.333 -174.334 -67 -251.001s-105.334 -137.334 -182.001 -182.001s-160.334 -67 -251.001 -67zM500 736.989c-59.333 0 -116 -11.5 -170 -34.5s-100.5 -54 -139.5 -93
s-70 -85.5 -93 -139.5s-34.5 -110.667 -34.5 -170s11.5 -116 34.5 -170s54 -100.5 93 -139.5s85.5 -70 139.5 -93s110.667 -34.5 170 -34.5s116 11.5 170 34.5s100.5 54 139.5 93s70 85.5 93 139.5s34.5 110.667 34.5 170s-11.5 116 -34.5 170s-54 100.5 -93 139.5
s-85.5 70 -139.5 93s-110.667 34.5 -170 34.5z" />
    <glyph glyph-name="u" unicode="u" 
d="M369 625h475c12 0 22.333 -4.16699 31 -12.5s13 -18.833 13 -31.5s-4.33301 -23 -13 -31s-19 -12 -31 -12h-475c-12.667 0 -23.167 4 -31.5 12s-12.5 18.333 -12.5 31s4.16699 23.167 12.5 31.5s18.833 12.5 31.5 12.5zM369 256c-12.667 0 -23.167 4.16699 -31.5 12.5
s-12.5 18.833 -12.5 31.5s4.16699 23.167 12.5 31.5s18.833 12.5 31.5 12.5h475c12 0 22.333 -4.16699 31 -12.5s13 -18.833 13 -31.5s-4.33301 -23.167 -13 -31.5s-19 -12.5 -31 -12.5h-475zM369 -19c-12.667 0 -23.167 4.16699 -31.5 12.5s-12.5 18.833 -12.5 31.5
s4.16699 23.167 12.5 31.5s18.833 12.5 31.5 12.5h475c12 0 22.333 -4.16699 31 -12.5s13 -18.833 13 -31.5s-4.33301 -23.167 -13 -31.5s-19 -12.5 -31 -12.5h-475zM194 481c-28 0 -51.667 9.66699 -71 29s-29 43 -29 71s9.66699 51.667 29 71s43 29 71 29h6
c28 0 51.667 -9.66699 71 -29s29 -43 29 -71s-9.66699 -51.667 -29 -71s-43 -29 -71 -29h-6zM194 619c-9.33301 0 -18 -4 -26 -12s-12 -16.667 -12 -26s4 -17.833 12 -25.5s16.667 -11.5 26 -11.5h6c9.33301 0 18 3.83301 26 11.5s12 16.167 12 25.5s-4 18 -12 26
s-16.667 12 -26 12h-6zM194 200c-28 0 -51.667 9.66699 -71 29s-29 43 -29 71s9.66699 51.667 29 71s43 29 71 29h6c28 0 51.667 -9.66699 71 -29s29 -43 29 -71s-9.66699 -51.667 -29 -71s-43 -29 -71 -29h-6zM194 338c-9.33301 0 -18 -4 -26 -12s-12 -16.667 -12 -26
s4 -18 12 -26s16.667 -12 26 -12h6c9.33301 0 18 4 26 12s12 16.667 12 26s-4 18 -12 26s-16.667 12 -26 12h-6zM194 -75c-28 0 -51.667 9.66699 -71 29s-29 43 -29 71s9.66699 51.667 29 71s43 29 71 29h6c28 0 51.667 -9.66699 71 -29s29 -43 29 -71
s-9.66699 -51.667 -29 -71s-43 -29 -71 -29h-6zM194 62c-9.33301 0 -18 -3.83301 -26 -11.5s-12 -16.167 -12 -25.5s4 -17.833 12 -25.5s16.667 -11.5 26 -11.5h6c9.33301 0 18 3.83301 26 11.5s12 16.167 12 25.5s-4 17.833 -12 25.5s-16.667 11.5 -26 11.5h-6z" />
    <glyph glyph-name="v" unicode="v" 
d="M936 579l-79.9951 -205.998l-14 -34c-2 -4.66699 -5.33301 -8 -10 -10s-9.33398 -2.33301 -14.001 -1l-34 14l-206 81c-5.33301 2 -9 5.33301 -11 10s-2 9.33398 0 14.001l13 34c2 4.66699 5.33301 8 10 10s9.33398 2 14.001 0l171 -67
c-24.667 62 -64.834 112.167 -120.501 150.5s-117.834 57.5 -186.501 57.5c-60 0 -115.5 -14.833 -166.5 -44.5s-91.333 -70 -121 -121s-44.5 -106.5 -44.5 -166.5s14.833 -115.5 44.5 -166.5s70 -91.333 121 -121s106.5 -44.5 166.5 -44.5
c71.333 0 135.666 20.5 192.999 61.5s97.333 94.167 120 159.5h78c-24.667 -86 -73 -156.667 -145 -212s-154 -83 -246 -83c-54.667 0 -107 10.667 -157 32s-93.167 50.166 -129.5 86.499s-65.333 79.5 -87 129.5s-32.5 102.667 -32.5 158
c0 73.333 18.167 141.166 54.5 203.499s85.666 111.666 147.999 147.999s130.166 54.5 203.499 54.5c76 0 145.5 -19.167 208.5 -57.5s112.167 -89.5 147.5 -153.5l44 111c1.33301 5.33301 4.33301 9 9 11s9.33398 2 14.001 0l35 -14
c2.66699 -0.666992 5.16699 -2.33398 7.5 -5.00098s3.66602 -5.66699 3.99902 -9s-0.166992 -6.66602 -1.5 -9.99902z" />
    <glyph glyph-name="w" unicode="w" 
d="M442 657l-332.999 -333.002c-6 -6.66699 -13.5 -10 -22.5 -10s-16.833 3.33301 -23.5 10s-9.83398 14.334 -9.50098 23.001s3.5 16.334 9.5 23.001l333 333c6 6 13.5 9 22.5 9s16.667 -3.16699 23 -9.5s9.5 -14 9.5 -23s-3 -16.5 -9 -22.5zM903.001 195.998l-333 -333
c-6.66699 -6 -14.5 -9 -23.5 -9s-16.667 3.16699 -23 9.5s-9.5 14 -9.5 23s3.33301 16.5 10 22.5l333 333c6 6 13.5 9 22.5 9s16.667 -3.16699 23 -9.5s9.5 -14 9.5 -23s-3 -16.5 -9 -22.5zM441.001 193.998l-101 -101c-6.66699 -6 -14.5 -9 -23.5 -9
s-16.667 3.16699 -23 9.5s-9.5 14 -9.5 23s3.33301 16.5 10 22.5l101 101c6 6 13.5 9 22.5 9s16.667 -3.16699 23 -9.5s9.5 -14 9.5 -23s-3 -16.5 -9 -22.5zM291.001 286.998l-72 -73c-6.66699 -6 -14.5 -9 -23.5 -9s-16.5 3 -22.5 9
c-4.66699 4.66699 -7.66699 9.66699 -9 15s-1.33301 10.833 0 16.5s4.33301 10.5 9 14.5l72 73c6.66699 6.66699 14.5 10 23.5 10s16.5 -3.33301 22.5 -10c3.33301 -2.66699 5.83301 -6.16699 7.5 -10.5s2.5 -8.5 2.5 -12.5s-0.833008 -8 -2.5 -12
s-4.16699 -7.66699 -7.5 -11zM533.001 45.998l-73 -73.001c-6.66699 -6 -14.5 -9 -23.5 -9s-16.5 3 -22.5 9c-4.66699 4 -7.66699 8.83301 -9 14.5s-1.33301 11.334 0 17.001s4.33301 10.5 9 14.5l72 73c6.66699 6.66699 14.5 10 23.5 10s16.667 -3.16699 23 -9.5
s9.5 -14 9.5 -23s-3 -16.833 -9 -23.5zM524.001 -137.003l-461.002 461c-6.66699 6 -10 13.5 -10 22.5s3.33301 16.667 10 23s14.334 9.5 23.001 9.5s16.334 -3 23.001 -9l461 -461c6 -6 9 -13.5 9 -22.5s-3.16699 -16.667 -9.5 -23s-14 -9.5 -23 -9.5s-16.5 3 -22.5 9z
M714.999 53.9971l-460.998 461c-6 6.66699 -9 14.5 -9 23.5s3.16699 16.667 9.5 23s14 9.5 23 9.5s16.5 -3.33301 22.5 -10l461 -461c6.66699 -6 10 -13.5 10 -22.5s-3.33301 -16.667 -10 -23s-14.334 -9.5 -23.001 -9.5s-16.334 3 -23.001 9zM891.001 585.997l-105 104.999
c-6.66699 6 -10 13.5 -10 22.5s3.16699 16.833 9.5 23.5s14 9.83398 23 9.50098s16.833 -3.5 23.5 -9.5l105 -105c6.66699 -6.66699 10 -14.5 10 -23.5s-3.33301 -16.667 -10 -23s-14.5 -9.5 -23.5 -9.5s-16.5 3.33301 -22.5 10zM573.001 478.996l-177.002 178
c-6.66699 6 -10 13.5 -10 22.5s3.33301 16.667 10 23s14.334 9.5 23.001 9.5s16.334 -3 23.001 -9l178 -178c6 -6.66699 9 -14.5 9 -23.5s-3 -16.5 -9 -22.5c-3.33301 -3.33301 -7 -5.83301 -11 -7.5s-8.16699 -2.5 -12.5 -2.5s-8.5 0.833008 -12.5 2.5
s-7.66699 4.16699 -11 7.5zM856.999 195.996l-178.002 177c-6.66699 6.66699 -10 14.5 -10 23.5s3.33301 16.667 10 23s14.334 9.5 23.001 9.5s16.334 -3 23.001 -9l178 -178c6 -6.66699 9 -14.5 9 -23.5s-3.16699 -16.667 -9.5 -23s-14 -9.5 -23 -9.5
s-16.5 3.33301 -22.5 10zM936.997 585.996l-212 -212c-6.66699 -6.66699 -14.5 -10 -23.5 -10s-16.667 3.16699 -23 9.5s-9.5 14 -9.5 23s3.33301 16.833 10 23.5l212 212c6 6 13.5 9 22.5 9s16.667 -3.16699 23 -9.5s9.5 -14 9.5 -23s-3 -16.5 -9 -22.5zM831.997 690.996
l-212 -212.001c-6.66699 -6.66699 -14.5 -10 -23.5 -10s-16.667 3.33301 -23 10s-9.5 14.334 -9.5 23.001s3 16.334 9 23.001l213 212c6 6.66699 13.5 10 22.5 10s16.833 -3.33301 23.5 -10c4 -4 6.66699 -8.83301 8 -14.5s1.33301 -11.334 0 -17.001s-4 -10.5 -8 -14.5z
" />
    <glyph glyph-name="uniE865" unicode="&#xe865;" 
d="M970 314l-452.001 -185v0c-6 -2.66699 -12.167 -4 -18.5 -4s-12.166 1.33301 -17.499 4v0h-1l-452 185c-19.333 8 -29 22.333 -29 43c0 12.667 4.5 23.5 13.5 32.5s20.167 13.5 33.5 13.5c6 0 12 -1 18 -3v0l435 -178l434 178h1v0c5.33301 2 11 3 17 3
c13.333 0 24.5 -4.5 33.5 -13.5s13.5 -19.833 13.5 -32.5c0 -20.667 -9.66699 -35 -29 -43zM969.999 515l-451.999 -185v0c-6 -2.66699 -12 -4 -18 -4s-12 1.33301 -18 4v0h-1l-452 185c-19.333 8 -29 22.333 -29 43c0 9.33301 2.66699 18 8 26s12.333 13.667 21 17l452 185
h1v0c5.33301 2.66699 11.166 4 17.499 4s12.5 -1.33301 18.5 -4v0l452 -185c8.66699 -3.33301 15.667 -9 21 -17s8 -16.667 8 -26c0 -20.667 -9.66699 -35 -29 -43zM47 202c6 0 11.999 -1 17.999 -3v0l435 -178l434 178h1v0c5.33301 2 11 3 17 3
c13.333 0 24.5 -4.5 33.5 -13.5s13.5 -19.833 13.5 -32.5c0 -20.667 -9.66699 -35 -29 -43l-452 -185v0c-6 -2.66699 -12.167 -4 -18.5 -4s-12.166 1.33301 -17.499 4v0h-1l-452 185c-8.66699 3.33301 -15.667 9 -21 17s-8 16.667 -8 26c0 12.667 4.5 23.5 13.5 32.5
s20.167 13.5 33.5 13.5z" />
    <glyph glyph-name="uniE866" unicode="&#xe866;" 
d="M655 204l-50.999 37c12 20.667 23.333 38.334 34 53.001c28.667 38 54 63 76 75c8 -14 15 -25.333 21 -34c7.33301 -10.667 12.333 -17.667 15 -21c-10.667 -4.66699 -21.334 -11.667 -32.001 -21c-25.333 -22.667 -46.333 -52.334 -63 -89.001zM440.001 135
c34.667 10.667 66 25 94 43c14 9.33301 24 16.666 30 21.999l44 -47c-19.333 -20 -50.333 -39 -93 -57c-12.667 -5.33301 -31.667 -11.666 -57 -18.999c-1.33301 4 -3 10.333 -5 19c-1.33301 2.66699 -3.33301 8.5 -6 17.5s-5 16.167 -7 21.5zM365.001 721
c0 -26 9.16699 -48.001 27.5 -66.001s40.166 -27 65.499 -27c26 0 48 8.83301 66 26.5s27 39.834 27 66.501c0 25.333 -9 47.166 -27 65.499s-40 27.5 -66 27.5c-25.333 0 -47.166 -9.16699 -65.499 -27.5s-27.5 -40.166 -27.5 -65.499zM262.001 720.999
c0 35.333 8.66895 68.001 26.002 98.001s41.166 53.833 71.499 71.5s63.166 26.5 98.499 26.5c54 0 100.333 -19.167 139 -57.5s58 -84.5 58 -138.5c0 -20.667 -3 -39.667 -9 -57h2c-16 -38 -33 -74 -51 -108l-26 -51l-33 -62c-22 -40.667 -48.667 -87.334 -80 -140.001v1
l-1 1l-14.5 24l-27 46l-34.5 62.5l-36 66.5l-26 51c-16 30 -33 66.333 -51 109h2c-5.33301 17.333 -8 36.333 -8 57zM224.003 139l12.001 15c15.333 20.667 23.666 32.334 24.999 35.001c30 -20.667 59.667 -36.334 89 -47.001c12.667 -4.66699 25.667 -8 39 -10l-3 -22
c-0.666992 -4 -1.5 -10.833 -2.5 -20.5s-1.83301 -16.5 -2.5 -20.5c-32 4.66699 -68.667 18 -110 40c-17.333 9.33301 -33 19.333 -47 30zM17.0039 -8l-0.00195312 599c0 20 7 37.167 21 51.5s31 21.5 51 21.5h116l32 -98h-107c-2.66699 0 -5.16699 -0.666992 -7.5 -2
s-4.16602 -3.16602 -5.49902 -5.49902s-2 -4.83301 -2 -7.5v-227c30 -38 61.667 -70.667 95 -98c-2.66699 -4 -7 -8.66699 -13 -14c-2 -2 -4.66699 -5 -8 -9l-10 -11.5c-3.33301 -3.66699 -6.33301 -6.83398 -9 -9.50098l-23.5 21c-9 8 -14.5 13 -16.5 15
c-5.33301 4 -10.333 8.66699 -15 14v-202c0 -10 5 -15 15 -15h744c10 0 15 5 15 15v330l-28 -4c-15.333 -2 -36.666 -7.33301 -63.999 -16l-17 44l-5 14c32.667 16 70.667 23.667 114 23v130c0 10 -5 15 -15 15h-198l35 98h200c20 0 37 -7.16699 51 -21.5s21 -31.5 21 -51.5
v-599c0 -20 -7 -37 -21 -51s-31 -21 -51 -21h-822c-20 0 -37 7 -51 21s-21 31 -21 51z" />
    <glyph glyph-name="uniE867" unicode="&#xe867;" 
d="M333 721c3.33301 0 6.33301 -1.33301 9 -4s4 -6 4 -10v-642c0 -5.33301 -2.33301 -9.33301 -7 -12l-209 -112c-2.66699 -0.666992 -5 -1 -7 -1c-4 0 -7.33301 1.33301 -10 4s-4 6 -4 10v642c0 5.33301 2.66699 9.33301 8 12l209 111c2 1.33301 4.33301 2 7 2zM388 721
c2.66699 0 5.00098 -0.333008 7.00098 -1l223 -112c5.33301 -2.66699 8 -6.66699 8 -12v-642c0 -4 -1.5 -7.33301 -4.5 -10s-6.16699 -4 -9.5 -4c-2 0 -4 0.333008 -6 1l-224 112c-5.33301 2.66699 -8 6.66699 -8 12v642c0 4 1.33301 7.33301 4 10
c3.33301 2.66699 6.66602 4 9.99902 4zM877.001 721c3.33301 0 6.5 -1.33301 9.5 -4s4.5 -6 4.5 -10v-642c0 -5.33301 -2.66699 -9.33301 -8 -12l-209 -112c-2 -0.666992 -4.33301 -1 -7 -1c-3.33301 0 -6.33301 1.33301 -9 4s-4 6 -4 10v642
c0 5.33301 2.33301 9.33301 7 12l209 111c2.66699 1.33301 5 2 7 2z" />
    <glyph glyph-name="uniE868" unicode="&#xe868;" 
d="M500 840c90.667 0 174.334 -22.333 251.001 -67s137.334 -105.334 182.001 -182.001s67 -160.334 67 -251.001s-22.333 -174.334 -67 -251.001s-105.334 -137.334 -182.001 -182.001s-160.334 -67 -251.001 -67s-174.334 22.333 -251.001 67
s-137.334 105.334 -182.001 182.001s-67 160.334 -67 251.001s22.333 174.334 67 251.001s105.334 137.334 182.001 182.001s160.334 67 251.001 67zM682 695v-119l54 -52v171h-54zM792 98c12 4.66699 19.6689 12.002 23.002 22.002s2.33301 19.167 -3 27.5
s-13.666 12.5 -24.999 12.5c-5.33301 0 -11 -1 -17 -3c-11.333 -4 -27 -10 -47 -18l-38 -15c-16.667 -6.66699 -30.667 -12 -42 -16c-20 -7.33301 -32 -11 -36 -11c-14.667 0 -40.334 4.66699 -77.001 14s-61 16.333 -73 21c-8 4 -12.667 9.66699 -14 17
s0.5 13.833 5.5 19.5s11.5 8.5 19.5 8.5c2 0 4.33301 -0.333008 7 -1c84.667 -18 131 -28 139 -30c4 -0.666992 7.33301 -1 10 -1c6.66699 0 12.834 1.5 18.501 4.5s10 7 13 12s4.66699 10 5 15s-1 9.66699 -4 14s-7.83301 7.16602 -14.5 8.49902
c-4.66699 1.33301 -25.334 7.66602 -62.001 18.999s-69.834 20.833 -99.501 28.5s-48.834 11.5 -57.501 11.5h-1v0.5c0 0.333008 -0.166992 0.5 -0.5 0.5s-0.5 0.166992 -0.5 0.5v0.5h-1h-0.5h-1.5c-9.33301 -1.33301 -24.666 -5.66602 -45.999 -12.999l-45 -17
c-7.33301 -3.33301 -15.666 -6.66602 -24.999 -9.99902c-7.33301 -3.33301 -16.666 -7 -27.999 -11c-30 -12.667 -54.333 -23.334 -73 -32.001c-5.33301 -2 -9 -3.66699 -11 -5c-5.33301 -2.66699 -8.33301 -9.5 -9 -20.5s0.666016 -23.333 3.99902 -37
s7.66602 -27.334 12.999 -41.001s11.666 -25.167 18.999 -34.5s14.666 -14 21.999 -14c2 0 4 0.333008 6 1l29 12l28 11.5c7.33301 3 14.833 5.83301 22.5 8.5s13.5 4.33398 17.5 5.00098h2c9.33301 0 46.333 -8.66699 111 -26s99.334 -26.333 104.001 -27
c0.666992 -0.666992 1.33398 -1 2.00098 -1c8 0 28.5 6.33301 61.5 19s68.667 27.167 107 43.5s59.166 25.166 62.499 26.499zM836.002 355.002v73.002l-347 257l-316 -257v-73l82 65v-171c4 1.33301 7.66699 2.5 11 3.5s6 2 8 3l7 3.5c2.66699 1.33301 5 2.33301 7 3
c22 8.66699 47 18 75 28c27.333 9.33301 46.666 14.333 57.999 15h2c14 0 41.667 -6 83 -18c22.667 -6 56 -16 100 -30c24.667 -7.33301 40.667 -12 48 -14c18 -4.66699 31.667 -14.334 41 -29.001c7.33301 -11.333 11 -23 11 -35l16 5.5
c6.66699 2.33301 11.334 4.16602 14.001 5.49902v245z" />
    <glyph glyph-name="uniE869" unicode="&#xe869;" 
d="M186 576v216h636v-216h-636zM811 509c37.333 0 68.501 -12.667 93.501 -38s37.5 -56.666 37.5 -93.999v-264h-175v-176h-528v176h-176v264c0 37.333 12.667 68.666 38 93.999s56.666 38 93.999 38h616zM679.001 25v220h-352v-220h352zM810.501 333c13 0 23.5 4 31.5 12
s12 18.667 12 32s-4 24 -12 32s-18.5 12 -31.5 12s-23.5 -4.16699 -31.5 -12.5s-12 -19 -12 -32s4 -23.5 12 -31.5s18.5 -12 31.5 -12z" />
    <glyph glyph-name="uniE86A" unicode="&#xe86a;" 
d="M1044 265c24 0 44.5 -10.5 61.5 -31.5s25.5 -46.167 25.5 -75.5s-8.5 -54.333 -25.5 -75s-37.5 -31 -61.5 -31h-614zM39 265h392h-392zM740 394l89 -117zM875 -161h-474c-23.333 0 -43.5 10.5 -60.5 31.5s-25.5 46.167 -25.5 75.5s8.5 54.333 25.5 75s37.167 31 60.5 31
h474v-213zM420 575.5c0 51 18.167 94.667 54.5 131s80 54.5 131 54.5s94.5 -18.167 130.5 -54.5s54 -80 54 -131s-18 -94.5 -54 -130.5s-79.5 -54 -130.5 -54s-94.667 18 -131 54s-54.5 79.5 -54.5 130.5z" />
    <glyph glyph-name="uniE86B" unicode="&#xe86b;" 
d="M1032 50l-606.998 -0.00195312c-6.66699 0 -13 1.83301 -19 5.5s-10.667 8.5 -14 14.5s-5 12.333 -5 19c0 10.667 3.66699 19.834 11 27.501s16.333 11.5 27 11.5h607c13.333 0 24.666 6.5 33.999 19.5s14 28.5 14 46.5s-4.66699 33.667 -14 47s-20.666 20 -33.999 20
c-10.667 0 -19.834 3.66699 -27.501 11s-11.5 16.5 -11.5 27.5s3.83301 20.333 11.5 28s16.834 11.5 27.501 11.5c22.667 0 43.667 -6.5 63 -19.5s34.666 -30.667 45.999 -53s17 -46.5 17 -72.5c0 -39.333 -12.333 -73.166 -37 -101.499s-54.334 -42.5 -89.001 -42.5z
M427.002 260.998h-388c-10.667 0 -19.834 3.66699 -27.501 11s-11.5 16.5 -11.5 27.5s3.83301 20.333 11.5 28s16.834 11.5 27.501 11.5h388c10.667 0 19.834 -3.83301 27.501 -11.5s11.5 -17 11.5 -28s-3.83301 -20.167 -11.5 -27.5s-16.834 -11 -27.501 -11z
M866.002 -160.002l-469 0.00292969c-34.667 0 -64 14.167 -88 42.5s-36 62.166 -36 101.499c0 26 5.5 50.167 16.5 72.5s26 39.833 45 52.5s39.833 19 62.5 19h469c6.66699 0 13 -1.66699 19 -5s10.833 -8 14.5 -14s5.5 -12.5 5.5 -19.5s-1.83301 -13.5 -5.5 -19.5
s-8.5 -10.833 -14.5 -14.5s-12.333 -5.5 -19 -5.5h-469c-12.667 0 -23.5 -6.5 -32.5 -19.5s-13.5 -28.333 -13.5 -46s4.5 -33.167 13.5 -46.5s19.833 -20 32.5 -20h469c10.667 0 19.834 -3.83301 27.501 -11.5s11.5 -16.834 11.5 -27.501s-3.83301 -19.834 -11.5 -27.501
s-16.834 -11.5 -27.501 -11.5zM594.002 435.001v124h39v-124h-39zM711.002 435.001v257h38v-257h-38zM827.002 435.001v197h39v-197h-39zM730.002 266.001c-25.333 0 -50.333 3.33301 -75 10c-56.667 16.667 -105.167 51.834 -145.5 105.501s-60.5 110.167 -60.5 169.5
c0 52 12.833 100.167 38.5 144.5s60.5 79.166 104.5 104.499s92 38 144 38c23.333 0 46.333 -2.66699 69 -8c58 -16 107.833 -51 149.5 -105s62.5 -111.333 62.5 -172c0 -25.333 -3.33301 -50.333 -10 -75c-16 -58 -51 -107.833 -105 -149.5s-111.333 -62.5 -172 -62.5z
M730.002 782.001c-62.667 -0.666992 -116.333 -23.1689 -161 -67.502s-67 -98.166 -67 -161.499c0 -41.333 10.167 -79.5 30.5 -114.5s48 -62.667 83 -83s73.167 -30.5 114.5 -30.5c48 0 93.667 16.333 137 49s71.333 72.334 84 119.001c5.33301 19.333 8 39.333 8 60
c0 48 -16.667 93.667 -50 137s-73.333 71.333 -120 84c-19.333 5.33301 -39 8 -59 8z" />
    <glyph glyph-name="uniE86C" unicode="&#xe86c;" 
d="M132 390c-2 -0.666992 -3.83398 -0.99707 -5.50098 -0.99707s-3.5 0.333008 -5.5 1c-6.66699 2 -12.334 6.16699 -17.001 12.5s-7 13.166 -7 20.499c0 3.33301 0.333008 6.66602 1 9.99902c26.667 84 80.334 156.667 161.001 218s164.667 93.666 252 96.999h2
c9.33301 0 17.333 -3.33301 24 -10s10 -14.667 10 -24v-1c0 -9.33301 -3.16699 -17.5 -9.5 -24.5s-14.166 -10.5 -23.499 -10.5c-74 -2.66699 -145.167 -30 -213.5 -82s-113.5 -113.333 -135.5 -184c-2.66699 -6 -7.16699 -11.167 -13.5 -15.5s-12.833 -6.5 -19.5 -6.5z
M526.999 -149.997c-80 0 -160 25.8311 -240 77.498s-136.333 113.834 -169 186.501c-2 4.66699 -3 9.66699 -3 15c0 9.33301 3.33301 17.5 10 24.5s14.667 10.5 24 10.5c4.66699 0 9 -1 13 -3s7.83301 -4.5 11.5 -7.5s6.16699 -6.5 7.5 -10.5
c28 -61.333 75.833 -113.833 143.5 -157.5s135.167 -65.5 202.5 -65.5c27.333 0 59.166 4.66699 95.499 14s66.5 21 90.5 35c5.33301 2.66699 11 4 17 4c10 0 18.333 -3.33301 25 -10s10 -15 10 -25c0 -5.33301 -1.66699 -11 -5 -17s-7.66602 -10.667 -12.999 -14
c-28 -15.333 -63.5 -28.666 -106.5 -39.999s-80.833 -17 -113.5 -17zM922.999 124.001c-4.66699 0 -8.66895 1 -12.002 3c-6.66699 2 -12.167 6.16699 -16.5 12.5s-6.5 12.833 -6.5 19.5c0 4 0.666992 8 2 12c3.33301 10.667 5.33301 16.667 6 18
c11.333 37.333 17 75.333 17 114c0 48.667 -13 101.167 -39 157.5s-57.333 100.166 -94 131.499c-10.667 6.66699 -16 16.334 -16 29.001c0 10 3.33301 18.333 10 25s15 10 25 10c10.667 0 19.334 -4 26.001 -12c28.667 -24 55.167 -55.667 79.5 -95
s43.5 -80.833 57.5 -124.5s21 -84.5 21 -122.5c0 -46 -7 -91 -21 -135l-7 -20c-1.33301 -4 -3.66602 -7.83301 -6.99902 -11.5s-7.33301 -6.5 -12 -8.5s-9 -3 -13 -3zM406.997 724.001c0 34.667 12.1689 64.332 36.502 88.999s54.166 37 89.499 37
c22.667 0 43.667 -5.66699 63 -17s34.666 -26.666 45.999 -45.999s17 -40.333 17 -63c0 -34.667 -12.333 -64.334 -37 -89.001s-54.5 -37 -89.5 -37s-64.667 12.333 -89 37s-36.5 54.334 -36.5 89.001zM19.999 161.499c0 35 12.333 64.833 37 89.5s54.334 37 89.001 37
s64.334 -12.333 89.001 -37s37 -54.5 37 -89.5s-12.333 -64.833 -37 -89.5s-54.334 -37 -89.001 -37s-64.334 12.333 -89.001 37s-37 54.5 -37 89.5zM769.999 136.499c0 35 12.333 64.833 37 89.5s54.334 37 89.001 37s64.334 -12.333 89.001 -37s37 -54.5 37 -89.5
s-12.333 -64.667 -37 -89s-54.334 -36.5 -89.001 -36.5s-64.334 12.167 -89.001 36.5s-37 54 -37 89z" />
    <glyph glyph-name="uniE86D" unicode="&#xe86d;" 
d="M146 58v196l220 209v-404zM710 458l69 68l119 -100v-368h-188v400zM428 58v337l109 -97l111 97v-337h-220zM145 0h754v-87h-754v87zM146 333v109l157 158l61 61l174 -173l178 173l-55 50l237 76l-53 -243l-65 59l-243 -237l-31 32l-142 141z" />
    <glyph glyph-name="uniE874" unicode="&#xe874;" 
d="M54 302c0 60.667 11.833 118.667 35.5 174s55.334 102.833 95.001 142.5s87.167 71.334 142.5 95.001s113.333 35.5 174 35.5s118.667 -11.833 174 -35.5s103 -55.334 143 -95.001s71.833 -87.167 95.5 -142.5s35.5 -113.333 35.5 -174s-11.833 -118.667 -35.5 -174
s-55.5 -103 -95.5 -143s-87.667 -71.833 -143 -95.5s-113.333 -35.5 -174 -35.5s-118.667 11.833 -174 35.5s-102.833 55.5 -142.5 95.5s-71.334 87.667 -95.001 143s-35.5 113.333 -35.5 174zM501 172l-0.00195312 252c1.33301 24 11 44.667 29 62s39.333 26 64 26h3h4
c16 0 30.833 -4 44.5 -12s24.834 -18.667 33.501 -32s13.334 -28 14.001 -44v-134zM692.998 75v132v-132zM639.998 264v26h107v-26h-107zM639.998 205v26h107v-26h-107zM500.998 409l-0.000976562 -251c-0.666992 -16 -5.16699 -30.667 -13.5 -44s-19.5 -24 -33.5 -32
s-29 -12 -45 -12h-3.5h-3.5c-16 0 -31 4 -45 12s-25.167 18.667 -33.5 32s-13.166 28 -14.499 44v134zM308.997 507v-132v132zM361.997 318v-26h-106v26h106zM361.997 377v-27h-106v27h106z" />
    <glyph glyph-name="uniE875" unicode="&#xe875;" 
d="M850 -21h-583c-16.667 0 -30.667 5.66699 -42 17s-17 25 -17 41v642c0 16 5.66699 29.833 17 41.5s25.333 17.5 42 17.5h583c16 0 29.667 -5.83301 41 -17.5s17 -25.5 17 -41.5v-642c0 -16 -5.66699 -29.667 -17 -41s-25 -17 -41 -17zM850 650
c0 8 -2.83301 14.833 -8.5 20.5s-12.5 8.5 -20.5 8.5h-525c-8 0 -14.833 -2.83301 -20.5 -8.5s-8.5 -12.5 -8.5 -20.5v-583c0 -8 2.83301 -15 8.5 -21s12.5 -9 20.5 -9h525c8 0 14.833 3 20.5 9s8.5 13 8.5 21v583zM763 154h-408.999c-8 0 -14.833 2.83301 -20.5 8.5
s-8.5 12.5 -8.5 20.5s2.83301 14.833 8.5 20.5s12.5 8.5 20.5 8.5h409c5.33301 0 10.166 -1.16699 14.499 -3.5s7.83301 -5.83301 10.5 -10.5s4 -9.66699 4 -15c0 -8 -2.83301 -14.833 -8.5 -20.5s-12.5 -8.5 -20.5 -8.5zM763.001 329l-409.001 0.000976562
c-5.33301 0 -10.166 1.33301 -14.499 4s-7.83301 6.16699 -10.5 10.5s-4 9.16602 -4 14.499c0 8 2.83301 15 8.5 21s12.5 9 20.5 9h409c8 0 14.833 -3 20.5 -9s8.5 -13 8.5 -21s-2.83301 -14.833 -8.5 -20.5s-12.5 -8.5 -20.5 -8.5zM588 504.001l-233.999 -0.000976562
c-8 0 -14.833 2.83301 -20.5 8.5s-8.5 12.5 -8.5 20.5c0 5.33301 1.33301 10.333 4 15s6.16699 8.33398 10.5 11.001s9.16602 4 14.499 4h234c8 0 14.833 -2.83301 20.5 -8.5s8.5 -12.834 8.5 -21.501c0 -2.66699 -0.333008 -5.16699 -1 -7.5s-1.66699 -4.66602 -3 -6.99902
s-3 -4.33301 -5 -6s-4 -3.16699 -6 -4.5s-4.16699 -2.33301 -6.5 -3s-4.83301 -1 -7.5 -1zM792.001 -138l-642 0.00195312c-16 0 -29.667 5.83301 -41 17.5s-17 25.5 -17 41.5v642c0 7.33301 1.5 14.666 4.5 21.999s7 13.666 12 18.999s11.167 9.5 18.5 12.5s15 4.5 23 4.5
v-700h700c0 -10.667 -2.5 -20.5 -7.5 -29.5s-12 -16.167 -21 -21.5s-18.833 -8 -29.5 -8z" />
    <glyph glyph-name="uniE876" unicode="&#xe876;" 
d="M62 675h874v-125h-874v125zM62 363h874v-124h-874v124zM62 52h874v-125h-874v125z" />
    <glyph glyph-name="uniE87A" unicode="&#xe87a;" 
d="M978 503l-205 -204.005l-7 -7l-1 2c-4 -2 -8.33301 -3 -13 -3c-8 0 -14.833 2.83301 -20.5 8.5s-8.5 12.5 -8.5 20.5c0 4.66699 0.666992 9 2 13l181 182h-284c-22.667 -1.33301 -44.667 -5.66602 -66 -12.999c-42.667 -14.667 -78.834 -43 -108.501 -85
s-44.5 -85.333 -44.5 -130v-3.5v-3.5v-3v-133c-1.33301 -7.33301 -4.83301 -13.5 -10.5 -18.5s-12.167 -7.5 -19.5 -7.5h-1c-8 0 -14.833 2.83301 -20.5 8.5s-8.5 12.834 -8.5 21.501v149c2.66699 75.333 30.834 139.833 84.501 193.5s118.5 81.834 194.5 84.501h284
l-182 181l1 1c-2 4.66699 -3 9 -3 13c0 8.66699 3 15.834 9 21.501s13 8.5 21 8.5c4.66699 0 9 -1 13 -3l1 1l7 -7l205 -204c12 -11.333 18 -25.166 18 -41.499s-6 -30.5 -18 -42.5zM842 77.9951l-1 0.000976562c-5.33301 0 -10 2 -14 6s-6 8.66699 -6 14s2 10 6 14
s8.66699 6 14 6h1c5.33301 0 9.83301 -2 13.5 -6s5.5 -8.66699 5.5 -14s-1.83301 -9.83301 -5.5 -13.5s-8.16699 -5.83398 -13.5 -6.50098zM862 -61.0039l-240 0.000976562c-5.33301 0 -10 2 -14 6s-6 8.66699 -6 14c0 3.33301 1 6.66602 3 9.99902s4.5 5.83301 7.5 7.5
s6.16699 2.5 9.5 2.5h200v59c0 6 2 10.833 6 14.5s8.66699 5.5 14 5.5s10 -1.83301 14 -5.5s6 -8.5 6 -14.5v-99zM193 435.997l-10.001 0.00195312c-16.667 0 -30.834 -5.83301 -42.501 -17.5s-17.5 -25.834 -17.5 -42.501v-457c0 -16 5.83301 -29.833 17.5 -41.5
s25.834 -17.5 42.501 -17.5h679c16.667 0 30.834 5.83301 42.501 17.5s17.5 25.5 17.5 41.5v259v10c0.666992 7.33301 3.83398 13.833 9.50098 19.5s12.5 8.5 20.5 8.5s15 -2.83301 21 -8.5s9 -12.167 9 -19.5v-269c0 -32.667 -11.667 -60.667 -35 -84s-51.333 -35 -84 -35
h-1h-679h-1c-32.667 0 -60.667 11.667 -84 35s-35 51.333 -35 84v457c0 33.333 11.667 61.666 35 84.999s51.666 35 84.999 35h10c8 0 15 -3 21 -9s9 -13.167 9 -21.5s-3 -15.333 -9 -21s-13 -8.5 -21 -8.5z" />
    <glyph glyph-name="uniE87B" unicode="&#xe87b;" 
d="M410 -200c-68 0 -132.667 5.83301 -194 17.5s-112.666 29.5 -153.999 53.5s-62 52 -62 84c0 37.333 23.333 69.5 70 96.5s114 44.833 202 53.5c9.33301 2.66699 16 -2.33301 20 -15c1.33301 -2 4 -7 8 -15c9.33301 -15.333 11.666 -23 6.99902 -23
c-83.333 -8 -144.5 -20.5 -183.5 -37.5s-58.5 -36.833 -58.5 -59.5c0 -30 30.833 -54.167 92.5 -72.5s146.5 -27.5 254.5 -27.5c72.667 0 135.5 4.33301 188.5 13s92.833 20.5 119.5 35.5s40 32.167 40 51.5c0 22.667 -19.667 42.5 -59 59.5s-101.333 29.5 -186 37.5
c-4.66699 0 -2 8.66699 8 26c4 6 6.33301 10 7 12c0 4 1.66699 7.5 5 10.5s7.33301 4.5 12 4.5h3c90 -8 158.333 -25.5 205 -52.5s70 -59.5 70 -97.5c-2 -32 -24 -60 -66 -84s-93.667 -41.833 -155 -53.5s-126 -17.5 -194 -17.5zM410 -70l-16.999 16.9971l-3 3l-31 30.5
c-10 9.66699 -26.667 27.167 -50 52.5l-64 72c-19.333 22.667 -40.833 50 -64.5 82s-43.667 61.833 -60 89.5s-30 56.834 -41 87.501s-16.5 58.667 -16.5 84v2c0 62.667 15.5 120.834 46.5 174.501s73.167 96.334 126.5 128.001s111.333 47.834 174 48.501
c63.333 -1.33301 121.666 -17.833 174.999 -49.5s95.5 -74.334 126.5 -128.001s46.5 -111.834 46.5 -174.501c0 -1.33301 -0.333008 -2.66602 -1 -3.99902c0 -28.667 -6.83301 -60.667 -20.5 -96s-32.5 -70.833 -56.5 -106.5s-47.5 -68.667 -70.5 -99s-49 -60.833 -78 -91.5
l-62.5 -65.5l-38 -37.5l-4 -4l-16 -15h-1zM411.001 747.997c-82 -0.666992 -151.837 -30.168 -209.504 -88.501s-86.5 -128.5 -86.5 -210.5v-1c0 -30.667 10.5 -67.167 31.5 -109.5s48.167 -84.833 81.5 -127.5s64.833 -80.667 94.5 -114s58.834 -64 87.501 -92
c28 26.667 57.333 57.167 88 91.5s62.334 72.5 95.001 114.5s59.5 84.333 80.5 127s31.5 79.334 31.5 110.001v1c0 54 -13.167 103.667 -39.5 149s-62.166 81.5 -107.499 108.5s-94.666 40.833 -147.999 41.5h1zM409.997 314.996c-26 0 -49.833 6.5 -71.5 19.5
s-39 30.333 -52 52s-19.5 45.5 -19.5 71.5v2c0 26 6.5 50 19.5 72s30.333 39.5 52 52.5s45.5 19.833 71.5 20.5c39.333 0 72.833 -14 100.5 -42s41.5 -61.667 41.5 -101v-2v-2c0 -39.333 -13.833 -73 -41.5 -101s-61.167 -42 -100.5 -42zM409.997 552.996l-3 -0.00195312
c-25.333 0 -47 -9.16699 -65 -27.5s-27 -40.166 -27 -65.499c0 -16.667 4.16699 -32.167 12.5 -46.5s19.5 -25.666 33.5 -33.999s29.333 -12.5 46 -12.5c26 0 48 9.16699 66 27.5s27 40.166 27 65.499v2c0 16.667 -4 31.834 -12 45.501s-19 24.667 -33 33s-29 12.5 -45 12.5
z" />
    <glyph glyph-name="uniE87C" unicode="&#xe87c;" 
d="M282 412l85 0.000976562c4.66699 0 8.33398 -1.66699 11.001 -5c6 -8.66699 12.667 -17.334 20 -26.001c2 -3.33301 2.66699 -7 2 -11l-64 -446c-1.33301 -7.33301 -5.66602 -11 -12.999 -11h-189c-4.66699 0 -8.33398 1.83301 -11.001 5.5s-3.33398 7.5 -2.00098 11.5
l148 473c2 6 6.33301 9 13 9zM921 -69.999c1.33301 -4 0.666992 -7.83301 -2 -11.5s-6.33398 -5.5 -11.001 -5.5h-188c-8 0 -12.667 3.66699 -14 11l-65 448c0 4 1 7.66699 3 11c8 9.33301 14 17.333 18 24c2.66699 3.33301 6.33398 5 11.001 5h87c6.66699 0 11 -3 13 -9z
M545.001 118.001c4 0 7.33301 -1.33301 10 -4s4 -5.66699 4 -9l5 -131c0 -4 -1.33301 -7.5 -4 -10.5s-6 -4.5 -10 -4.5h-58c-4 0 -7.33301 1.5 -10 4.5s-4 6.5 -4 10.5l5 131c0 3.33301 1.33301 6.33301 4 9s5.66699 4 9 4h49zM520.001 254.001
c12.667 0 23.333 4.66797 32 14.001c0.666992 -2 1 -4.33301 1 -7l4 -84c0 -4 -1.33301 -7.5 -4 -10.5s-6 -4.5 -10 -4.5h-44c-2.66699 0 -5 0.666992 -7 2s-3.66699 3.16602 -5 5.49902s-2 4.83301 -2 7.5l3 84c0 2 0.666992 4 2 6c8 -8.66699 18 -13 30 -13zM683 499.002
l-6.99902 -13.998c-11.333 -20 -26.333 -42.667 -45 -68c-0.666992 -0.666992 -3.33398 -4 -8.00098 -10c-6.66699 -9.33301 -15.667 -21 -27 -35c-3.33301 -4 -6 -7.33301 -8 -10c-1.33301 -1.33301 -5.66602 -6.66602 -12.999 -15.999l-13 -16
c-2 -2 -4.5 -4.83301 -7.5 -8.5s-5.16699 -6.5 -6.5 -8.5c-0.666992 -0.666992 -1.5 -1.66699 -2.5 -3s-1.83301 -2 -2.5 -2c-1.33301 -2 -3.66602 -5 -6.99902 -9s-5.66602 -7 -6.99902 -9l-0.5 -0.5l-0.5 -0.5c0 -0.666992 -0.333008 -1 -1 -1l-1 -1h-1l-0.5 -0.5
l-0.5 -0.5h-1v0h-1h-1h-2h-0.5h-0.5h-1h-1l-1 1l-2 1l-2 2c-0.666992 1.33301 -2.16699 3.33301 -4.5 6s-4.16602 4.66699 -5.49902 6c-2 2.66699 -5 6.33398 -9 11.001l-31 39c-6 6.66699 -13 15.334 -21 26.001l-8 10c-1.33301 0.666992 -2.83301 2.16699 -4.5 4.5
s-2.83398 3.83301 -3.50098 4.5s-1.33398 1.66699 -2.00098 3s-1.33398 2.33301 -2.00098 3s-1.5 1.66699 -2.5 3l-3 4c-1 1.33301 -1.83301 2.66602 -2.5 3.99902c-3.33301 4 -6 7.33301 -8 10l-4 6c-0.666992 1.33301 -2 3.16602 -4 5.49902s-3 3.83301 -3 4.5
c-6 8.66699 -11 16.334 -15 23.001c-1.33301 1.33301 -2.33301 2.66602 -3 3.99902c-2 3.33301 -4 6.33301 -6 9l-3 7c-0.666992 1.33301 -2.66699 4.66602 -6 9.99902c-1.33301 3.33301 -3 6.66602 -5 9.99902c-2.66699 6 -5 12 -7 18c-0.666992 2 -2 5 -4 9
c-0.666992 3.33301 -1.66699 6.33301 -3 9c-0.666992 4 -1.66699 8.66699 -3 14c-1.33301 4 -2.33301 8.66699 -3 14c-0.666992 6 -1.33398 10.667 -2.00098 14c-0.666992 6 -1 12.333 -1 19c0 52 18.333 96.333 55 133s81 55 133 55s96.333 -18.333 133 -55s55 -81 55 -133
c0 -2 -0.166992 -5.16699 -0.5 -9.5s-0.666016 -7.5 -0.999023 -9.5s-0.5 -5.33301 -0.5 -10c-0.666992 -2.66699 -1.33398 -5.66699 -2.00098 -9c-0.666992 -2.66699 -1.33398 -5.66699 -2.00098 -9c-1.33301 -6 -3 -12 -5 -18l-3 -9
c-1.33301 -4.66699 -3 -9.33398 -5 -14.001c-0.666992 -0.666992 -1.16699 -1.5 -1.5 -2.5l-0.5 -1.5c-1.33301 -3.33301 -2.66602 -6.33301 -3.99902 -9zM520.001 520.004c22 0 40.833 7.83301 56.5 23.5s23.5 34.5 23.5 56.5s-7.83301 40.833 -23.5 56.5
s-34.5 23.5 -56.5 23.5s-40.833 -7.83301 -56.5 -23.5s-23.5 -34.5 -23.5 -56.5s7.83301 -40.833 23.5 -56.5s34.5 -23.5 56.5 -23.5z" />
    <glyph glyph-name="uniE880" unicode="&#xe880;" 
d="M864 437v-386h45c7.33301 0 13.666 -2.66699 18.999 -8s8 -11.666 8 -18.999v-144c0 -8 -2.66699 -14.667 -8 -20s-11.666 -8 -18.999 -8h-144c-8 0 -14.5 2.66699 -19.5 8s-7.5 12 -7.5 20v45h-476v-45c0 -8 -2.66699 -14.667 -8 -20s-12 -8 -20 -8h-144
c-7.33301 0 -13.833 2.66699 -19.5 8s-8.5 12 -8.5 20v144c0 7.33301 2.66699 13.666 8 18.999s12 8 20 8h45v476h-45c-7.33301 0 -13.833 2.66699 -19.5 8s-8.5 12 -8.5 20v144c0 7.33301 2.83301 13.666 8.5 18.999s12.167 8 19.5 8h144c5.33301 0 10 -1.16699 14 -3.5
s7.16699 -5.66602 9.5 -9.99902s3.5 -8.83301 3.5 -13.5v-45h379h5h4h89v45c0 7.33301 2.5 13.666 7.5 18.999s11.5 8 19.5 8h144c7.33301 0 13.666 -2.66699 18.999 -8s8 -11.666 8 -18.999v-144c0 -8 -2.66699 -14.667 -8 -20s-11.666 -8 -18.999 -8h-45v-90zM578 600
l-124 -0.000976562l-260 -261c-1.33301 -1.33301 -3 -2.66602 -5 -3.99902v-125zM261 554.999c0 -7.33301 -2.5 -13.667 -7.5 -19s-11.5 -8 -19.5 -8h-44v-116l187 188h-116v-45zM117 580.998h90v91h-90v-91zM207 -48.002v45h-90v-91h90v46zM222 49.998l516 516v34h-82
l-467 -467v-83h33zM261 -22.002l81 1l468 468v80h-34l-515 -514v-35zM542 -22.002l1 1c1.33301 2.66699 3 5 5 7l260 260v123l-390 -391h124zM738 23.998c0 7.33301 2.5 13.667 7.5 19s11.5 8 19.5 8h45v119l-191 -191h119v45zM882 -3.00098h-90v-90h90v90zM792 580.999h90
v91h-90v-91z" />
    <glyph glyph-name="uniE881" unicode="&#xe881;" 
d="M324 498c4 -16 7.33301 -28.667 10 -38c3.33301 -12.667 7.66602 -26.667 12.999 -42c4.66699 -14 10.334 -28.333 17.001 -43c6 -14 12.667 -27 20 -39v-301l-192 -48v478zM381 524c0 2.66699 -0.169922 4.99902 -0.50293 6.99902s-0.5 4.66699 -0.5 8
c0 22.667 4.5 43.834 13.5 63.501s21.167 37.167 36.5 52.5s33.166 27.333 53.499 36s42.333 13 66 13s45.5 -4.33301 65.5 -13c20.667 -8.66699 38.667 -20.5 54 -35.5s27.333 -32.5 36 -52.5s13 -41.333 13 -64v-10v-9c-3.33301 -27.333 -9.33301 -53 -18 -77
c-9.33301 -24.667 -20.666 -48.667 -33.999 -72c-14 -23.333 -30 -45.333 -48 -66c-17.333 -20.667 -36.333 -41 -57 -61c-3.33301 -3.33301 -7.16602 -5 -11.499 -5s-8.16602 1.66699 -11.499 5c-21.333 20 -40.666 40.333 -57.999 61c-18 22 -34 44.667 -48 68
c-13.333 22.667 -24.666 47 -33.999 73c-8.66699 25.333 -14.334 51.333 -17.001 78zM549.497 608.999c-10.333 0 -19.834 -1.83398 -28.501 -5.50098s-16.167 -8.66699 -22.5 -15s-11.333 -13.833 -15 -22.5s-5.5 -17.834 -5.5 -27.501s1.83301 -18.834 5.5 -27.501
s8.66699 -16.167 15 -22.5s13.833 -11.333 22.5 -15s18.167 -5.5 28.5 -5.5s19.833 2 28.5 6c9.33301 3.33301 17 8 23 14c6.66699 6.66699 11.834 14.334 15.501 23.001s5.5 17.834 5.5 27.501s-1.83301 18.834 -5.5 27.501s-8.66699 16.167 -15 22.5s-14 11.333 -23 15
s-18.667 5.5 -29 5.5zM430.996 273.998c14.667 -16 28.999 -30.667 42.999 -44l38 -36c14.667 -12.667 27.334 -23 38.001 -31l20 18c7.33301 6 15 13 23 21l30 29v-244l-192 48v239zM861.995 512.998v-477.998l-192 -48v293c3.33301 3.33301 6.33301 6.66602 9 9.99902l9 9
c10 11.333 19.333 24.666 28 39.999s16.667 32 24 50c6.66699 17.333 12.667 35 18 53l14 49zM861.995 513z" />
    <glyph glyph-name="uniE882" unicode="&#xe882;" 
d="M47 125l365 365l138 138l28 28l88 89l277 -277l-620 -619zM323 -82l551 550l-208 207l-54 -53l104 -103l-28 -28l-103 104l-42 -42l69 -69l-28 -28l-68 69l-42 -42l69 -69l-27 -27l-70 69l-41 -42l103 -104l-27 -28l-104 104l-41 -41l69 -70l-28 -27l-69 69l-41 -42
l69 -69l-28 -27l-69 69l-42 -42l104 -103l-28 -27l-103 103l-54 -54zM874 468z" />
    <glyph glyph-name="uniE883" unicode="&#xe883;" 
d="M567 70v350c0 13.333 5.33301 22.666 16 27.999s21.334 5.33301 32.001 0s16 -14.666 16 -27.999v-350c0 -12.667 -5.33301 -21.667 -16 -27s-21.334 -5.33301 -32.001 0s-16 14.333 -16 27zM375 70v350c0 13.333 5.33301 22.666 16 27.999s21.334 5.33301 32.001 0
s16 -14.666 16 -27.999v-350c0 -12.667 -5.33301 -21.667 -16 -27s-21.334 -5.33301 -32.001 0s-16 14.333 -16 27zM918 580c12.667 0 21.667 -5.33301 27 -16s5.33301 -21.334 0 -32.001s-14.333 -16 -27 -16h-830c-12.667 0 -21.667 5.33301 -27 16
s-5.33301 21.334 0 32.001s14.333 16 27 16h160v64c0 26 9.33301 48.333 28 67s41 28 67 28h321c25.333 0 47.333 -9.33301 66 -28s28 -41 28 -67v-64h160zM312 644v-64h382v64c0 8.66699 -3 16 -9 22s-13 9 -21 9h-321c-8 0 -15.167 -3.16699 -21.5 -9.5
s-9.5 -13.5 -9.5 -21.5zM726 -153l-446 0.00195312c-26.667 0 -49.334 9.33301 -68.001 28s-28 41 -28 67v478c0 4.66699 0.833008 9 2.5 13s4 7.5 7 10.5s6.33301 5.16699 10 6.5s7.83398 2 12.501 2c5.33301 0 10.5 -1.33301 15.5 -4s9 -6.33398 12 -11.001
s4.5 -10.334 4.5 -17.001v-478c0 -5.33301 1.5 -10.5 4.5 -15.5s6.83301 -8.83301 11.5 -11.5s10 -4 16 -4h446c6 0 11.333 1.5 16 4.5s8.5 6.83301 11.5 11.5s4.5 9.66699 4.5 15v477c0 13.333 5.33301 22.666 16 27.999s21.334 5.33301 32.001 0s16 -14.666 16 -27.999
v-477c0 -26 -9.33301 -48.333 -28 -67s-41.334 -28 -68.001 -28zM726 -152.998z" />
    <glyph glyph-name="uniE884" unicode="&#xe884;" 
d="M33 209l931 479l-246 -801l-274 125l-116 -125v170l520 524l-621 -470zM33 209z" />
  </font>
</defs>
</svg>
