<?xml version="1.0" standalone="no"?><!DOCTYPE svg PUBLIC "-//W3C//DTD SVG 1.1//EN" "http://www.w3.org/Graphics/SVG/1.1/DTD/svg11.dtd"><svg class="icon" width="64px" height="64.00px" viewBox="0 0 1024 1024" version="1.1" xmlns="http://www.w3.org/2000/svg"><path d="M677.936 579.2032h98.3328c12.2912 0 24.58346667-12.2912 24.58346667-24.58346667v-67.6032c0-12.2912-12.2912-24.58346667-24.58346667-24.58346666h-98.3328c-12.2912 0-24.58346667 12.2912-24.58346667 24.58346666v67.6032c0 18.4384 6.14613333 24.58346667 24.58346667 24.58346667zM462.83413333 775.8688h98.3328c12.2912 0 24.58346667-12.2912 24.58346667-24.58346667v-67.6032c0-12.2912-12.2912-24.58346667-24.58346667-24.58346666h-98.3328c-12.2912 0-24.58346667 12.2912-24.58346666 24.58346666v67.6032c0 12.2912 12.2912 24.58346667 24.58346666 24.58346667z m-215.10293333 0h98.3328c12.2912 0 24.58346667-12.2912 24.58346667-24.58346667v-67.6032c0-12.2912-12.2912-24.58346667-24.58346667-24.58346666h-98.3328c-12.2912 0-24.58346667 12.2912-24.58346667 24.58346666v67.6032c0.00106667 12.2912 12.29226667 24.58346667 24.58346667 24.58346667z m0-196.6656h98.3328c12.2912 0 24.58346667-12.2912 24.58346667-24.58346667V493.16266667c0-12.2912-12.2912-24.58346667-24.58346667-24.58346667h-98.3328c-12.2912 0-24.58346667 12.2912-24.58346667 24.58346667v67.6032c0.00106667 12.29226667 12.29226667 18.43733333 24.58346667 18.43733333z m430.2048 196.6656h98.3328c12.2912 0 24.58346667-12.2912 24.58346667-24.58346667v-67.6032c0-12.2912-12.2912-24.58346667-24.58346667-24.58346666h-98.3328c-12.2912 0-24.58346667 12.2912-24.58346667 24.58346666v67.6032c0 12.2912 6.14613333 24.58346667 24.58346667 24.58346667zM462.83413333 579.2032h98.3328c12.2912 0 24.58346667-6.14613333 24.58346667-18.43733333V493.16266667c0-12.2912-12.2912-24.58346667-24.58346667-24.58346667h-98.3328c-12.2912 0-24.58346667 12.2912-24.58346666 24.58346667v67.6032c0 12.29226667 12.2912 18.43733333 24.58346666 18.43733333z m-184.37333333-282.70506667c24.58346667 0 49.16586667-24.58346667 49.16586667-49.16586666v-147.49866667c0-24.58346667-24.58346667-49.16586667-49.16586667-49.16586667s-49.16586667 24.58346667-49.16586667 49.16586667v147.49866667c-6.14613333 24.5824 18.43626667 49.16586667 49.16586667 49.16586666z m467.0784 0c24.58346667 0 49.16586667-24.58346667 49.16586667-49.16586666v-147.49866667c0-24.58346667-24.58346667-49.16586667-49.16586667-49.16586667s-49.16586667 24.58346667-49.16586667 49.16586667v147.49866667c0 24.5824 24.58346667 49.16586667 49.16586667 49.16586666z"  /><path d="M880.74666667 136.7072h-55.312v104.47786667c0 43.0208-36.87466667 79.89546667-79.89546667 79.89546666s-79.89546667-36.87466667-79.89546667-79.89546666v-104.47786667H358.3552v104.47786667c0 49.16586667-36.87466667 86.04053333-79.89546667 86.04053333s-79.89546667-36.87466667-79.89546666-79.89546667v-110.624H143.25333333c-49.16586667 0-86.04053333 36.87466667-86.04053333 86.04053334v663.744c0 49.16586667 36.87466667 86.04053333 86.04053333 86.04053333h737.49333334c49.16586667 0 86.04053333-36.87466667 86.04053333-86.04053333v-663.744c0-43.01866667-43.01973333-86.03946667-86.04053333-86.03946667z m12.2912 749.7856c0 6.14613333-6.14613333 12.2912-12.2912 12.2912H143.25333333c-6.14613333 0-12.2912-6.14613333-12.2912-12.2912V364.10133333h755.93066667l6.14506667 522.39146667z"  /></svg>