<?xml version="1.0" standalone="no"?><!DOCTYPE svg PUBLIC "-//W3C//DTD SVG 1.1//EN" "http://www.w3.org/Graphics/SVG/1.1/DTD/svg11.dtd"><svg class="icon" width="64px" height="64.00px" viewBox="0 0 1024 1024" version="1.1" xmlns="http://www.w3.org/2000/svg"><path d="M512 0a512 512 0 1 0 512 512A512 512 0 0 0 512 0z m0 975.238095a463.238095 463.238095 0 1 1 463.238095-463.238095 463.238095 463.238095 0 0 1-463.238095 463.238095z"  /><path d="M303.542857 567.344762a118.979048 118.979048 0 1 0 118.979048 118.979048 118.979048 118.979048 0 0 0-118.979048-118.979048z m0 208.213333a89.234286 89.234286 0 1 1 89.234286-89.234285 89.234286 89.234286 0 0 1-89.234286 89.234285z"  /><path d="M660.48 448.365714a118.491429 118.491429 0 0 0-50.95619 11.459048L655.60381 414.47619a118.979048 118.979048 0 1 0-168.228572-168.228571l-143.36 143.36a118.979048 118.979048 0 0 0 131.169524 195.047619l-11.702857 11.702857a118.979048 118.979048 0 1 0 162.377143 173.836191l118.979047-118.979048a118.979048 118.979048 0 0 0-84.114285-203.093333z m-237.958095 118.979048a89.234286 89.234286 0 0 1-66.316191-148.72381l8.289524-8.289523a89.234286 89.234286 0 1 1 58.026667 157.013333z m118.979047 208.213333a89.234286 89.234286 0 0 1-66.803809-148.23619l9.020952-9.020953a89.234286 89.234286 0 1 1 58.026667 157.013334z"  /><path d="M422.521905 418.620952a59.489524 59.489524 0 1 0 59.489524 59.489524 59.489524 59.489524 0 0 0-59.489524-59.489524z m0 89.234286a29.744762 29.744762 0 1 1 29.744762-29.744762 29.744762 29.744762 0 0 1-29.744762 29.744762zM303.542857 626.834286a59.489524 59.489524 0 1 0 59.489524 59.489524 59.489524 59.489524 0 0 0-59.489524-59.489524z m0 89.234285a29.744762 29.744762 0 1 1 29.744762-29.744761 29.744762 29.744762 0 0 1-29.744762 29.744761zM541.500952 626.834286a59.489524 59.489524 0 1 0 59.489524 59.489524 59.489524 59.489524 0 0 0-59.489524-59.489524z m0 89.234285a29.744762 29.744762 0 1 1 29.744762-29.744761 29.744762 29.744762 0 0 1-29.744762 29.744761z"  /></svg>