<svg id="图层_1" data-name="图层 1" xmlns="http://www.w3.org/2000/svg" viewBox="0 0 59.65 77.61"><defs><style>.cls-1{stroke:#000;stroke-miterlimit:10;stroke-width:0.5px;}</style></defs><title>空间查询</title><path d="M59.94,53.1l-6.57-6.33a1.32,1.32,0,0,0-1.87,0,1.34,1.34,0,0,0,0,1.88L58.11,55a1.32,1.32,0,0,0,1.83-1.91Zm2,28.65a1.2,1.2,0,0,0,1,.1,1.27,1.27,0,0,1-1-.1Zm-2-28.65-6.57-6.33a1.32,1.32,0,0,0-1.87,0,1.34,1.34,0,0,0,0,1.88L58.11,55a1.32,1.32,0,0,0,1.83-1.91Zm0,0-6.57-6.33a1.32,1.32,0,0,0-1.87,0,1.34,1.34,0,0,0,0,1.88L58.11,55a1.32,1.32,0,0,0,1.83-1.91Zm0,0-6.57-6.33a1.32,1.32,0,0,0-1.87,0,1.34,1.34,0,0,0,0,1.88L58.11,55a1.32,1.32,0,0,0,1.83-1.91Zm0,0-6.57-6.33a1.32,1.32,0,0,0-1.87,0,1.34,1.34,0,0,0,0,1.88L58.11,55a1.32,1.32,0,0,0,1.83-1.91Zm0,0-6.57-6.33a1.32,1.32,0,0,0-1.87,0,1.34,1.34,0,0,0,0,1.88L58.11,55a1.32,1.32,0,0,0,1.83-1.91Zm0,0" transform="translate(-3.25 -4.3)"/><path class="cls-1" d="M52.05,16.35,28.74,4.69a1.31,1.31,0,0,0-1.19,0L4.24,16.35a2.2,2.2,0,0,0-.73,2V43.18a1.36,1.36,0,0,0,.63,1.14S27,58.1,27.34,58.27a1.72,1.72,0,0,0,1.68.1L36.61,54a1.36,1.36,0,0,0-1.35-2.36L30,54.67h0l-.54.29V31.54L50.1,19.83l2.11-1.28a1.2,1.2,0,0,0,.55-.88A1.3,1.3,0,0,0,52.05,16.35ZM26.81,54.89,6.15,42.43V19.8L26.81,31.54Zm1.33-25.66L7.64,17.61,28.14,7.36,48.65,17.61Z" transform="translate(-3.25 -4.3)"/><path d="M27.67,29.37" transform="translate(-3.25 -4.3)"/><path d="M44.74,31.17a8.9,8.9,0,1,1-8.9,8.89,8.9,8.9,0,0,1,8.9-8.89m0-2.47A11.37,11.37,0,1,0,56.1,40.06,11.37,11.37,0,0,0,44.74,28.7Z" transform="translate(-3.25 -4.3)"/></svg>