<?xml version="1.0" standalone="no"?><!DOCTYPE svg PUBLIC "-//W3C//DTD SVG 1.1//EN" "http://www.w3.org/Graphics/SVG/1.1/DTD/svg11.dtd"><svg class="icon" width="64px" height="64.00px" viewBox="0 0 1024 1024" version="1.1" xmlns="http://www.w3.org/2000/svg"><path d="M683.666266 445.844278l53.281507 0 0-26.460652-53.281507 0c-6.656607-128.323621-109.539812-231.185336-237.83478-237.83478l0-53.28867-26.467815 0 0 53.289694C291.029818 188.209546 188.181405 291.067168 181.527868 419.382603l-53.268204 0 0 26.460652 53.267181 0c6.650467 128.314411 109.499903 231.182266 237.835803 237.842966l0 53.275367 26.467815 0 0-53.273321C574.128501 677.0378 677.013753 574.165852 683.666266 445.844278zM630.327454 419.382603 445.831486 419.382603 445.831486 234.872309C544.729937 241.388722 623.8049 320.454476 630.327454 419.382603zM419.362648 234.874355l0 184.509271L234.851331 419.383626C241.373885 320.462662 320.448848 241.402025 419.362648 234.874355zM234.851331 445.844278l184.512341 0 0 184.511317C320.446801 623.824855 241.371838 544.743752 234.851331 445.844278zM445.831486 630.355595l0-184.512341 184.495968 0C623.80797 544.751938 544.731984 623.838158 445.831486 630.355595z"  /><path d="M710.479959 631.097492 631.076514 710.493773 816.350195 895.739824 895.739313 816.357869Z"  /></svg>