<?xml version="1.0" standalone="no"?><!DOCTYPE svg PUBLIC "-//W3C//DTD SVG 1.1//EN" "http://www.w3.org/Graphics/SVG/1.1/DTD/svg11.dtd"><svg class="icon" width="64px" height="64.00px" viewBox="0 0 1024 1024" version="1.1" xmlns="http://www.w3.org/2000/svg"><path d="M331.776 309.248c3.1744 11.9808 6.656 25.088 10.5472 39.1168 3.8912 14.1312 8.3968 28.4672 13.312 43.1104 4.9152 14.6432 10.5472 29.0816 16.7936 43.4176 6.2464 14.336 13.0048 27.7504 20.3776 40.3456v308.5312l-195.7888 48.5376V342.9376L331.776 309.248z m58.6752-26.624c0-2.6624-0.1024-5.12-0.4096-7.4752s-0.4096-4.8128-0.4096-7.4752c0-23.4496 4.608-45.4656 13.7216-65.7408 9.1136-20.3776 21.504-38.1952 37.1712-53.6576 15.6672-15.36 33.8944-27.5456 54.784-36.4544 20.8896-8.9088 43.3152-13.312 67.3792-13.312s46.4896 4.4032 67.3792 13.312 39.1168 20.992 54.784 36.4544c15.6672 15.36 28.0576 33.28 37.1712 53.6576 9.1136 20.3776 13.7216 42.2912 13.7216 65.7408v9.4208c0 3.1744-0.3072 6.2464-0.8192 9.4208-3.1744 27.648-9.216 54.1696-18.432 79.4624-9.1136 25.2928-20.7872 49.7664-34.816 73.216-14.1312 23.4496-30.3104 46.08-48.5376 67.6864-18.2272 21.7088-37.888 42.3936-58.7776 62.2592-3.6864 3.6864-7.5776 5.5296-11.776 5.5296s-8.0896-1.8432-11.776-5.5296c-21.4016-19.8656-41.2672-40.7552-59.4944-62.6688-18.2272-21.9136-34.4064-44.8512-48.5376-68.9152-14.1312-23.9616-25.7024-48.9472-34.816-74.752-9.0112-25.8048-14.848-52.5312-17.5104-80.1792z m172.3392-86.9376c-10.4448 0-20.0704 1.8432-28.9792 5.5296-8.9088 3.6864-16.5888 8.704-23.1424 15.2576s-11.776 14.2336-15.6672 23.1424c-3.8912 8.9088-5.8368 18.2272-5.8368 28.16s1.9456 19.3536 5.8368 28.16c3.8912 8.9088 9.1136 16.5888 15.6672 23.1424s14.2336 11.5712 23.1424 15.2576c8.9088 3.6864 18.5344 5.5296 28.9792 5.5296s20.2752-1.8432 29.3888-5.5296c9.1136-3.6864 16.9984-8.704 23.4496-15.2576 6.5536-6.5536 11.776-14.2336 15.6672-23.1424 3.8912-8.9088 5.8368-18.2272 5.8368-28.16s-1.9456-19.3536-5.8368-28.16c-3.8912-8.9088-9.1136-16.5888-15.6672-23.1424s-14.336-11.5712-23.4496-15.2576c-9.216-3.6864-18.944-5.5296-29.3888-5.5296zM441.344 538.624c15.1552 16.6912 29.9008 31.8464 44.2368 45.4656 14.336 13.6192 27.2384 25.6 38.8096 36.0448 13.6192 11.9808 26.3168 22.7328 38.4 32.1536 6.2464-5.2224 13.312-11.264 21.0944-18.0224 6.7584-5.7344 14.6432-13.0048 23.4496-21.9136 8.9088-8.9088 19.0464-18.8416 30.5152-29.7984v249.7536L441.344 783.7696V538.624z m440.9344-245.0432v490.1888l-195.7888 48.5376V532.3776c3.1744-3.1744 6.144-6.3488 9.0112-9.8304 2.8672-3.3792 5.8368-6.656 9.0112-9.8304 10.4448-11.4688 20.0704-25.1904 28.9792-41.0624 8.9088-15.9744 16.7936-32.8704 23.8592-50.8928 7.0656-18.0224 13.312-36.0448 18.8416-54.0672 5.5296-18.0224 10.3424-34.816 14.4384-50.4832l91.648-22.6304z m0 0"  /></svg>