<svg id="图层_1" data-name="图层 1" xmlns="http://www.w3.org/2000/svg" viewBox="0 0 64 64"><title>画板 1</title><path d="M3,43.17l17.69,17.7L60.33,21.23,42.64,3.53,37,9.19,35.21,11l-8.86,8.87ZM20.69,56.44,7.42,43.17l3.44-3.44,6.64,6.63,1.77-1.77L12.63,38l2.66-2.66,4.42,4.43L21.48,38l-4.42-4.43,2.65-2.65,4.42,4.42,1.77-1.77-4.42-4.42,2.65-2.65,6.64,6.63,1.77-1.77L25.9,24.69,28.56,22,33,26.46l1.77-1.77-4.42-4.43L33,17.61,37.4,22l1.77-1.77-4.42-4.42,2.67-2.67,6.64,6.64L45.83,18,39.2,11.4,42.64,8,55.91,21.23ZM55.91,21.23"/></svg>