<svg id="图层_1" data-name="图层 1" xmlns="http://www.w3.org/2000/svg" viewBox="0 0 64 64"><title>面积测量</title><path d="M55.31,23.22V17.45h2.87a1.75,1.75,0,0,0,1.75-1.75V6.47a1.75,1.75,0,0,0-1.75-1.75H48.94A1.74,1.74,0,0,0,47.2,6.47V9.34H41.52a1.57,1.57,0,0,0-.53,0H16.73V6.47A1.74,1.74,0,0,0,15,4.72H5.75A1.75,1.75,0,0,0,4,6.47V15.7a1.75,1.75,0,0,0,1.75,1.75H8.62V47.92H5.75A1.74,1.74,0,0,0,4,49.66V58.9a1.75,1.75,0,0,0,1.75,1.75H15a1.74,1.74,0,0,0,1.74-1.75V56H47.2V58.9a1.74,1.74,0,0,0,1.74,1.75h9.24a1.75,1.75,0,0,0,1.75-1.75V49.66a1.74,1.74,0,0,0-1.75-1.74H55.31V23.22ZM37,12.83,12.11,37.73v-8a1.68,1.68,0,0,0,.29-.24L29.07,12.83ZM16.73,15.7V12.83h7.4l-12,12v-7.4H15A1.74,1.74,0,0,0,16.73,15.7ZM7.5,14V8.21h5.74V14Zm5.74,40.26v2.94H7.5V51.41h5.74Zm1-6.29H12.11V42.68L42,12.83H47.2V15Zm2.48,4.61V50.38L49.66,17.45h2.16v5.14L21.87,52.53Zm18,0h-8l25-25v7.85L35.08,52.11A1.75,1.75,0,0,0,34.77,52.53ZM47.2,49.66v2.87H39.6L51.82,40.32v7.6H48.94A1.74,1.74,0,0,0,47.2,49.66Zm9.23,1.75v5.74H50.69V51.41ZM50.69,14V8.21h5.74V14Z"/></svg>