<?xml version="1.0" standalone="no"?><!DOCTYPE svg PUBLIC "-//W3C//DTD SVG 1.1//EN" "http://www.w3.org/Graphics/SVG/1.1/DTD/svg11.dtd"><svg class="icon" width="64px" height="64.00px" viewBox="0 0 1024 1024" version="1.1" xmlns="http://www.w3.org/2000/svg"><path d="M862.6 419.2l-15.8-17c-9.5-10.2-25.3-10.2-34.8 0L619.2 616.8c-1.6 0-1.6 3.4-1.6 3.4v46c0 3.4 0 6.8 3.2 6.8h41.1c1.6 0 3.2-1.7 4.7-1.7L861 460.1c12.6-11.9 12.6-28.9 1.6-40.9z"  /><path d="M734.5 713.8l-14.2 15.3c-15.8 17-36.3 25.5-58.5 25.5h-41.1c-37.9 0-79-32.4-79-88.6v-42.6c0-34.1 14.2-54.5 22.1-66.4l170.7-187.3c4.7-5.1 9.5-17 9.5-23.8V204.7c0-44.3-34.8-81.7-75.9-81.7H263.6c-41.1 0-75.9 40.9-75.9 81.7h-25.3c-28.4 0-50.6 25.5-50.6 56.2 0 30.7 22.1 54.5 50.6 54.5h25.3v110.7h-25.3c-28.4 0-50.6 23.8-50.6 54.5s22.1 54.5 50.6 54.5h25.3v110.7h-25.3c-28.4 0-50.6 25.5-50.6 54.5 0 30.7 22.1 54.5 50.6 54.5h25.3c0 54.5 34.8 81.7 75.9 81.7h404.6c41.1 0 75.9-37.5 75.9-81.7V719c-0.1-8.6-3.2-10.3-9.6-5.2z m-433-412.1c0-15.3 11.1-27.2 25.3-27.2h252.9c14.2 0 25.3 11.9 25.3 27.2V329c0 15.3-11.1 27.2-25.3 27.2H326.8c-14.2 0-25.3-11.9-25.3-27.2v-27.3z m189.7 357.7c0 15.3-11.1 27.2-25.3 27.2H326.8c-14.2 0-25.3-11.9-25.3-27.2v-27.2c0-15.3 11.1-27.2 25.3-27.2h139.1c14.2 0 25.3 11.9 25.3 27.2v27.2z m37.9-165.2c0 15.3-11.1 27.2-25.3 27.2h-177c-14.2 0-25.3-11.9-25.3-27.2V467c0-15.3 11.1-27.2 25.3-27.2h177c14.2 0 25.3 11.9 25.3 27.2v27.2z"  /></svg>