<?xml version="1.0" standalone="no"?><!DOCTYPE svg PUBLIC "-//W3C//DTD SVG 1.1//EN" "http://www.w3.org/Graphics/SVG/1.1/DTD/svg11.dtd"><svg class="icon" width="64px" height="64.00px" viewBox="0 0 1024 1024" version="1.1" xmlns="http://www.w3.org/2000/svg"><path d="M835.712 693.888v-74.112H532.864v74.112h65.92c19.328 0 35.2 16.256 35.2 35.584v176.128c0 19.584-15.872 35.456-35.2 35.456H424.32c-19.328 0-35.456-16-35.456-35.456V729.344c0-19.328 16.128-35.584 35.456-35.584h65.664v-74.112H194.816V693.76h65.792c19.2 0 35.328 16.256 35.328 35.584v176.128c0 19.584-16 35.456-35.328 35.456H86.016c-19.712 0-35.456-16-35.456-35.456V729.344c0-19.328 15.744-35.584 35.456-35.584h65.92v-95.616c0-11.904 9.6-21.632 21.12-21.632h316.928V427.008h-121.728c-19.712 0-35.328-16.256-35.328-35.968V120.704c0-19.712 15.616-35.456 35.328-35.456h286.208c19.712 0 35.584 15.744 35.584 35.456v270.208c0 19.712-15.872 35.968-35.584 35.968h-121.728v149.632h324.608c11.52 0 20.864 9.6 20.864 21.632V693.76h58.624c19.456 0 35.328 16.256 35.328 35.584v176.128c0 19.584-15.872 35.456-35.328 35.456H762.624c-19.968 0-35.584-16-35.584-35.456V729.344c0-19.328 15.616-35.584 35.584-35.584h73.088v0.128z m0 0z" /></svg>