<svg id="图层_1" data-name="图层 1" xmlns="http://www.w3.org/2000/svg" viewBox="0 0 55.92 54.16"><defs><style>.cls-1,.cls-2,.cls-3{fill:none;stroke:#231f20;stroke-miterlimit:10;}.cls-1{stroke-width:5px;}.cls-2,.cls-3{stroke-width:3px;}.cls-3{stroke-linecap:round;}</style></defs><title>分段统计</title><line class="cls-1" x1="50.66" y1="50.95" x2="50.66" y2="54.16"/><path class="cls-1" d="M54.57,56.93" transform="translate(-3.91 -5.48)"/><path class="cls-1" d="M33.91,34.57h8.82A11.84,11.84,0,0,1,54.57,46.42v7.2" transform="translate(-3.91 -5.48)"/><path class="cls-2" d="M28.52,34.57" transform="translate(-3.91 -5.48)"/><line class="cls-1" x1="23.82" y1="29.09" x2="27.09" y2="29.09"/><path class="cls-2" d="M24.83,34.57" transform="translate(-3.91 -5.48)"/><path class="cls-1" d="M9,11.33V22.72A11.85,11.85,0,0,0,20.81,34.57h4" transform="translate(-3.91 -5.48)"/><path class="cls-2" d="M9,7.92" transform="translate(-3.91 -5.48)"/><line class="cls-1" x1="5.05" x2="5.05" y2="2.94"/><polyline class="cls-3" points="47.31 2.3 53.09 10.81 21.41 10.81"/><polyline class="cls-3" points="8.61 52.54 2.83 44.03 34.51 44.03"/></svg>