<?xml version="1.0" standalone="no"?><!DOCTYPE svg PUBLIC "-//W3C//DTD SVG 1.1//EN" "http://www.w3.org/Graphics/SVG/1.1/DTD/svg11.dtd"><svg class="icon" width="64px" height="64.00px" viewBox="0 0 1024 1024" version="1.1" xmlns="http://www.w3.org/2000/svg"><path d="M162.304 369.664C87.04 369.664 26.112 308.736 26.112 233.472S87.04 97.28 162.304 97.28c75.264 0 136.192 60.928 136.192 136.192S237.568 369.664 162.304 369.664z m0-221.184c-47.104 0-84.992 37.888-84.992 84.992s37.888 84.992 84.992 84.992c47.104 0 84.992-37.888 84.992-84.992S209.408 148.48 162.304 148.48zM494.592 645.632c-75.264 0-136.192-60.928-136.192-136.192 0-75.264 60.928-136.192 136.192-136.192s136.192 60.928 136.192 136.192c0 75.264-60.928 136.192-136.192 136.192z m0-221.184c-47.104 0-84.992 37.888-84.992 84.992s37.888 84.992 84.992 84.992c47.104 0 84.992-37.888 84.992-84.992s-37.888-84.992-84.992-84.992zM826.368 921.6c-75.264 0-136.192-60.928-136.192-136.192 0-75.264 60.928-136.192 136.192-136.192 75.264 0 136.192 60.928 136.192 136.192 0 75.264-60.928 136.192-136.192 136.192z m0-221.184c-47.104 0-84.992 37.888-84.992 84.992s37.888 84.992 84.992 84.992 84.992-37.888 84.992-84.992-37.888-84.992-84.992-84.992zM936.96 259.072H383.488c-14.336 0-25.6-11.264-25.6-25.6s11.264-25.6 25.6-25.6H936.96c14.336 0 25.6 11.264 25.6 25.6s-11.264 25.6-25.6 25.6zM274.432 535.04H51.712c-14.336 0-25.6-11.264-25.6-25.6s11.264-25.6 25.6-25.6h222.72c14.336 0 25.6 11.264 25.6 25.6s-11.264 25.6-25.6 25.6zM929.792 535.04h-222.72c-14.336 0-25.6-11.264-25.6-25.6s11.264-25.6 25.6-25.6h222.72c14.336 0 25.6 11.264 25.6 25.6s-11.264 25.6-25.6 25.6zM619.008 811.008h-552.96c-14.336 0-25.6-11.264-25.6-25.6s11.264-25.6 25.6-25.6h552.96c14.336 0 25.6 11.264 25.6 25.6s-11.264 25.6-25.6 25.6z" /></svg>