<svg id="图层_1" data-name="图层 1" xmlns="http://www.w3.org/2000/svg" viewBox="0 0 54.48 56.82"><defs><style>.cls-1{fill:none;stroke:#231f20;stroke-miterlimit:10;stroke-width:5px;}</style></defs><title>条数统计</title><circle class="cls-1" cx="12.66" cy="46.28" r="8.04"/><path class="cls-1" d="M43.82,28.08c7.09,0,12.85,4.94,12.85,11h0c0,6.08-5.76,11-12.85,11H23.46" transform="translate(-4.68 -3.56)"/><path class="cls-1" d="M43.82,28.08" transform="translate(-4.68 -3.56)"/><path class="cls-1" d="M23.46,50.11" transform="translate(-4.68 -3.56)"/><line class="cls-1" x1="20.7" y1="2.5" x2="26.73" y2="2.5"/><line class="cls-1" x1="31.07" y1="2.5" x2="37.11" y2="2.5"/><line class="cls-1" x1="41.56" y1="2.5" x2="44.58" y2="2.5"/><path class="cls-1" d="M44.3,28.08H20c-7.1,0-12.85-4.93-12.85-11h0c0-6.08,5.75-11,12.85-11h1.25" transform="translate(-4.68 -3.56)"/><path class="cls-1" d="M46.83,28.08" transform="translate(-4.68 -3.56)"/><path class="cls-1" d="M27.32,6.06" transform="translate(-4.68 -3.56)"/></svg>