<?xml version="1.0" standalone="no"?><!DOCTYPE svg PUBLIC "-//W3C//DTD SVG 1.1//EN" "http://www.w3.org/Graphics/SVG/1.1/DTD/svg11.dtd"><svg class="icon" width="64px" height="64.00px" viewBox="0 0 1024 1024" version="1.1" xmlns="http://www.w3.org/2000/svg"><path d="M0.021 0h64.584v1024H0.02V0z m0 959.473h1023.958V1024H0.021v-64.527zM137.452 99.941c0 14.774-14.359 26.861-31.908 26.861h-66.65c-17.55 0-31.907-12.087-31.907-26.86S21.345 73.08 38.894 73.08h66.65c17.549 0 31.908 12.088 31.908 26.861z m0 176.511c0 14.774-14.359 26.861-31.908 26.861h-66.65c-17.55 0-31.907-12.087-31.907-26.86s14.358-26.861 31.907-26.861h66.65c17.549 0 31.908 12.087 31.908 26.86z m0 178.046c0 14.774-14.359 26.861-31.908 26.861h-66.65c-17.55 0-31.907-12.087-31.907-26.86s14.358-26.861 31.907-26.861h66.65c17.549 0 31.908 12.088 31.908 26.86z m0 178.046c0 14.774-14.359 26.861-31.908 26.861h-66.65c-17.55 0-31.907-12.088-31.907-26.86s14.358-26.861 31.907-26.861h66.65c17.549 0 31.908 12.087 31.908 26.86z m0 176.512c0 14.773-14.359 26.86-31.908 26.86h-66.65c-17.55 0-31.907-12.088-31.907-26.86s14.358-26.861 31.907-26.861h66.65c17.549 0 31.908 12.088 31.908 26.86z m80.64-392.93H386.93V910.36H218.093V416.126zM496.48 262.638h163.66v647.72H496.48v-647.72z m271.1-156.558h167.303v804.277H767.58V106.08z" /></svg>