<?xml version="1.0" standalone="no"?><!DOCTYPE svg PUBLIC "-//W3C//DTD SVG 1.1//EN" "http://www.w3.org/Graphics/SVG/1.1/DTD/svg11.dtd"><svg class="icon" width="64px" height="64.00px" viewBox="0 0 1024 1024" version="1.1" xmlns="http://www.w3.org/2000/svg"><path d="M858.1 166c-92.4-92.4-215.3-143.3-346-143.3S258.6 73.6 166.2 166C73.8 258.4 22.9 381.3 22.9 512s50.8 253.6 143.2 346c92.4 92.3 215.2 143.2 345.9 143.2s253.6-50.9 346.1-143.3c190.7-190.7 190.7-501.1 0-691.9zM813 812.8c-80.4 80.4-187.3 124.7-301 124.7-113.6 0-220.5-44.3-300.8-124.6-11.8-11.8-22.8-24.2-33.1-37.1L373 597l130 98.6 294.7-235.8 58.1 50.6L857 343l-168.7 15 56.1 49.1L503 598.9 372 494.1l-236.2 217C103.7 650.5 86.6 582.6 86.6 512c0-113.7 44.3-220.6 124.6-300.9 80.4-80.3 187.2-124.6 300.9-124.6 113.7 0 220.5 44.2 300.9 124.6C978.9 377 978.9 647 813 812.8z" fill="#515151" /></svg>