<svg id="图层_1" data-name="图层 1" xmlns="http://www.w3.org/2000/svg" viewBox="0 0 64 64"><defs><style>.cls-1{fill:none;stroke:#231f20;stroke-miterlimit:10;stroke-width:3px;}.cls-2{fill:#231f20;}</style></defs><title>管线数据</title><circle class="cls-1" cx="32.08" cy="31.89" r="28.64"/><path class="cls-1" d="M32.08,40.17V24.08a5.93,5.93,0,0,1,6.14-5.63h0a5.92,5.92,0,0,1,6.14,5.63v8.57"/><line class="cls-1" x1="44.36" y1="46.38" x2="44.36" y2="37.93"/><rect class="cls-2" x="40.99" y="32.61" width="6.79" height="1.7"/><rect class="cls-2" x="40.99" y="36.39" width="6.79" height="1.7"/><path class="cls-1" d="M32.08,25V41.07a5.91,5.91,0,0,1-6.14,5.63h0a5.92,5.92,0,0,1-6.14-5.63V32.51"/><line class="cls-1" x1="19.8" y1="18.78" x2="19.8" y2="27.23"/><rect class="cls-2" x="16.39" y="30.84" width="6.79" height="1.7" transform="translate(39.56 63.38) rotate(180)"/><rect class="cls-2" x="16.39" y="27.06" width="6.79" height="1.7" transform="translate(39.56 55.83) rotate(180)"/></svg>